<?xml version='1.0' encoding='utf-8'?>
<svg xmlns="http://www.w3.org/2000/svg" id="pure_smill_no_javascript" version="1.1" x="0px" y="0px" width="1053.5910949350289" height="189.4377221448066" viewBox="65.54954079396725 279.6258063005958 1053.5910949350289 189.4377221448066"><defs id="defs82" /><defs id="defs83" /><g id="g37" transform="translate(-13.613145,-10.209854)"><g id="text51_group"><path style="font-style:normal;font-variant:normal;font-weight:normal;font-stretch:normal;font-size:63.7367px;font-family:Zapfino;-inkscape-font-specification:'Zapfino, Normal';font-variant-ligatures:normal;font-variant-caps:normal;font-variant-numeric:normal;font-variant-east-asian:normal;writing-mode:lr-tb;direction:ltr;fill:#000080;stroke-width:19.8645" d="M 82.690490 400.006826 Q 82.371807 399.847485 81.814110 398.891434 Q 81.256414 397.935384 80.619047 396.899662 Q 79.981680 395.863941 79.583326 394.748548 Q 79.184972 393.633156 79.184972 392.995789 Q 79.184972 391.402372 80.220693 389.330929 Q 81.256414 387.259486 82.371807 385.506727 Q 84.283908 382.160550 88.028439 375.866551 Q 91.772970 369.572552 98.465323 358.418629 Q 102.130184 352.363643 105.476360 346.149315 Q 108.822537 339.934986 110.256613 336.270126 Q 110.893980 334.676709 110.893980 333.561316 Q 110.893980 331.808557 109.858258 331.011848 Q 108.822537 330.215140 107.069778 330.215140 Q 105.157677 330.215140 102.767551 330.294811 Q 100.377424 330.374482 98.624665 330.533823 Q 97.987298 330.533823 97.588944 329.816785 Q 97.190589 329.099747 97.190589 328.303039 Q 97.190589 327.665672 97.668615 327.665672 Q 99.262032 328.143697 101.572487 328.382710 Q 103.882943 328.621722 106.113727 328.621722 Q 109.141221 328.621722 112.168714 328.143697 Q 115.196207 327.665672 117.108308 327.028305 Q 118.223700 327.028305 118.383042 328.462380 Q 118.701726 329.737114 119.259422 332.206912 Q 119.817118 334.676709 120.295143 336.429468 Q 121.569877 341.209721 123.641320 347.185036 Q 125.712763 353.160352 128.023218 359.534022 Q 130.333673 365.907692 132.644129 372.122020 Q 134.954584 378.336348 136.707343 383.435284 Q 137.026027 384.710018 137.344710 385.506727 Q 137.663394 386.303436 138.460103 386.303436 Q 138.938128 386.303436 139.495824 385.427056 Q 140.053520 384.550677 140.531545 383.594626 Q 144.196406 376.105564 148.100279 368.297818 Q 152.004151 360.490072 155.987695 352.841668 Q 159.971239 345.193264 164.034453 338.022885 Q 168.097668 330.852507 172.081212 324.638178 Q 173.037262 323.044761 174.391667 321.292002 Q 175.746072 319.539243 177.419161 318.105167 Q 179.092249 316.671091 180.924679 315.715040 Q 182.757109 314.758990 184.828552 314.758990 Q 185.943944 314.758990 187.617032 315.794711 Q 189.290121 316.830433 189.768146 318.105167 Q 189.768146 318.423850 189.290121 318.423850 Q 187.378020 318.423850 185.465919 318.901875 Q 183.553818 319.379901 181.402704 320.654635 Q 179.251591 321.929369 176.941135 324.319495 Q 174.630680 326.709621 171.921870 330.374482 Q 164.273466 340.891037 156.943746 354.594427 Q 149.614025 368.297818 143.399697 382.160550 Q 141.646938 386.303436 139.814507 390.605663 Q 137.982077 394.907890 136.229318 398.413409 Q 135.751293 399.528801 135.273268 399.528801 Q 134.635901 399.528801 133.839192 398.413409 Q 131.927091 391.721055 129.297952 383.753968 Q 126.668813 375.786880 123.880332 367.979134 Q 121.091852 360.171389 118.542384 353.319693 Q 115.992916 346.467998 114.240157 342.325113 Q 113.284106 340.253670 112.487397 340.253670 Q 111.690689 340.253670 110.415955 342.165771 Q 106.432411 348.380099 103.006563 353.797719 Q 99.580716 359.215338 96.712564 364.393945 Q 93.844413 369.572552 91.294945 374.512146 Q 88.745477 379.451740 86.514692 384.550677 Q 85.877325 385.984752 85.319629 387.896853 Q 84.761933 389.808954 84.283908 391.960068 Q 83.805882 394.111181 83.487199 396.262295 Q 83.168515 398.413409 83.168515 400.006826 Z M 212.235333 370.528602 Q 209.526523 374.193463 205.622650 377.141285 Q 201.718777 380.089107 196.779183 380.089107 Q 194.070373 380.089107 191.441234 378.734703 Q 188.812096 377.380298 187.218678 374.671488 Q 186.103286 377.220956 184.350527 380.487462 Q 182.597767 383.753968 180.207641 387.020474 Q 177.817515 390.286979 174.869692 392.995789 Q 171.921870 395.704599 168.575693 397.457358 Q 165.707542 398.732092 163.795441 398.732092 Q 158.059138 398.732092 158.059138 393.633156 Q 158.059138 390.765005 159.094859 387.737511 Q 160.130581 384.710018 161.723998 381.841867 Q 163.317416 378.973715 165.149846 376.424247 Q 166.982276 373.874779 168.575693 372.281362 Q 171.921870 368.616501 176.224097 366.067033 Q 180.526325 363.517565 185.465919 363.039540 Q 185.784602 361.764806 186.421969 360.091718 Q 187.059336 358.418629 188.652754 358.099946 Q 189.449463 357.940604 190.246171 357.781262 Q 191.042880 357.621921 191.680247 357.303237 Q 192.158272 356.984554 192.636298 357.223566 Q 193.114323 357.462579 192.795639 358.099946 Q 191.680247 359.852705 191.122551 362.561515 Q 190.564855 365.270325 190.564855 368.457160 Q 190.564855 372.918729 192.237943 375.786880 Q 193.911032 378.655032 198.053917 378.655032 Q 202.196803 378.655032 205.542979 375.946222 Q 208.889156 373.237412 211.119941 370.050577 Q 211.438624 369.253868 212.155662 369.572552 Q 212.872700 369.891235 212.235333 370.528602 Z M 185.943944 371.643995 Q 185.625261 370.209919 185.465919 368.297818 Q 185.306577 366.385717 185.306577 364.632958 Q 185.306577 363.836249 184.669210 363.836249 Q 182.916451 363.836249 181.004350 365.031312 Q 179.092249 366.226375 177.180148 368.218147 Q 175.268047 370.209919 173.355946 372.759387 Q 171.443845 375.308855 169.850427 378.017665 Q 167.778985 381.523183 166.105896 385.586398 Q 164.432808 389.649612 164.592150 393.314473 Q 164.592150 394.429865 164.990504 395.385916 Q 165.388858 396.341966 166.822934 396.341966 Q 169.531744 396.341966 172.718579 393.314473 Q 175.905414 390.286979 178.773565 386.223765 Q 181.641717 382.160550 183.633489 378.017665 Q 185.625261 373.874779 185.943944 371.643995 Z M 258.603782 341.847087 Q 258.603782 343.759188 256.930694 345.671289 Q 255.257605 347.583390 253.186163 347.583390 Q 251.274062 347.583390 251.274062 345.671290 Q 251.274062 343.599847 252.787808 341.687746 Q 254.301555 339.775645 256.532339 339.775645 Q 258.603782 339.775645 258.603782 341.847087 Z M 268.323629 377.539639 Q 268.323629 379.929766 267.447249 382.399563 Q 266.570870 384.869360 265.216465 387.020474 Q 263.862060 389.171587 262.188971 391.083688 Q 260.515883 392.995789 258.922466 394.429865 Q 253.026821 400.006826 247.449860 404.707408 Q 241.872898 409.407989 236.375608 413.949229 Q 230.878318 418.490469 225.301356 423.111380 Q 219.724395 427.732291 213.828750 432.990568 Q 210.482574 435.858720 208.411131 438.408188 Q 206.339688 440.957656 204.347916 443.666466 Q 202.356144 446.375275 199.727005 449.402769 Q 197.097867 452.430262 192.795639 456.413806 Q 192.476956 456.732489 191.839589 456.732489 Q 191.042880 456.732489 190.644526 455.218743 Q 190.246171 453.704996 190.246171 452.908287 Q 190.246171 451.314870 190.883538 450.518161 Q 193.592348 446.693959 196.301158 444.383504 Q 199.009968 442.073048 201.639106 439.842264 Q 204.268245 437.611479 206.897384 434.822999 Q 209.526523 432.034518 212.235333 427.413607 Q 219.087028 415.144293 225.938723 401.440902 Q 232.790419 387.737511 240.916848 370.050577 Q 241.554215 368.457160 241.554215 367.819793 Q 241.554215 366.385717 240.279481 366.385717 Q 239.960797 366.385717 238.208038 366.863742 Q 236.455279 367.341768 234.702520 367.501109 Q 234.065153 367.501109 234.065153 367.023084 Q 234.065153 366.385717 234.861861 366.067033 Q 238.367380 365.429666 240.677835 364.792300 Q 242.988291 364.154932 244.502037 363.597236 Q 246.015784 363.039540 246.892164 362.641186 Q 247.768543 362.242831 248.565252 362.242831 Q 250.158669 362.242831 250.158669 363.995591 Q 250.158669 364.951641 249.521302 366.226375 Q 246.812493 371.165969 244.502037 375.786880 Q 242.191582 380.407791 239.960797 384.869360 Q 237.730013 389.330929 235.339887 393.792498 Q 232.949760 398.254067 230.081609 403.193661 Q 227.372799 407.814572 222.512876 415.622318 Q 217.652952 423.430063 212.394675 431.875176 Q 217.015585 427.891632 223.707939 422.713026 Q 230.400292 417.534419 237.570671 411.559103 Q 244.741050 405.583787 251.433403 398.971105 Q 258.125757 392.358422 262.587326 385.666069 Q 264.658769 382.638576 265.535148 380.009437 Q 266.411528 377.380298 266.411528 375.308855 Q 266.411528 372.918729 265.455477 371.803337 Q 264.977452 370.847286 265.296136 370.847286 Q 265.614819 370.847286 266.252186 371.165969 Q 267.367578 371.962678 267.845604 373.795108 Q 268.323629 375.627538 268.323629 377.539639 Z M 316.922863 375.786880 Q 313.258002 380.248449 308.876104 384.789689 Q 304.494206 389.330929 300.032637 392.995789 Q 295.571068 396.660649 291.189170 398.891434 Q 286.807272 401.122218 283.142412 401.122218 Q 279.955577 401.122218 278.680843 399.528801 Q 277.406109 397.935384 277.406109 395.545257 Q 277.406109 393.314473 278.760514 389.569942 Q 280.114918 385.825410 282.823728 381.523183 Q 280.752285 384.231993 278.043476 387.259486 Q 275.334666 390.286979 272.466514 392.756777 Q 269.598363 395.226574 266.730211 396.899662 Q 263.862060 398.572750 261.631275 398.572750 Q 258.285099 398.572750 258.285099 395.226574 Q 258.285099 391.561713 261.153250 385.984752 Q 264.021402 380.407791 268.881325 375.229184 Q 273.741248 370.050577 279.955577 366.306046 Q 286.169905 362.561515 292.862258 362.561515 Q 293.658967 360.968097 294.296334 360.330730 Q 294.933701 359.693363 295.571068 359.374680 L 300.032637 358.099946 L 300.351321 358.259288 Q 299.554612 359.055996 298.837574 360.251060 Q 298.120536 361.446123 297.323827 362.720857 Q 298.120536 362.720857 299.713954 362.880199 Q 301.307371 363.039540 302.104080 363.198882 Q 302.900789 363.517565 302.900789 363.995591 Q 302.900789 364.473616 302.422763 364.473616 Q 301.466713 364.154932 299.554612 363.995591 Q 297.642511 363.836249 296.686460 363.836249 Q 289.356740 376.742931 285.930892 384.311664 Q 282.505045 391.880397 282.505045 395.545257 Q 282.505045 396.979333 283.222082 397.935384 Q 283.939120 398.891434 286.169905 398.891434 Q 288.719373 398.891434 292.224891 397.059004 Q 295.730410 395.226574 299.713954 391.960068 Q 303.697497 388.693562 307.920054 384.391335 Q 312.142610 380.089107 315.966812 375.308855 Q 316.285496 374.830830 316.604179 375.069842 Q 316.922863 375.308855 316.922863 375.786880 Z M 292.065550 363.676907 Q 286.647930 363.676907 281.708336 367.501109 Q 276.768742 371.325311 272.944540 376.503918 Q 269.120338 381.682525 266.809882 386.781461 Q 264.499427 391.880397 264.499427 394.270523 Q 264.499427 395.545257 265.455477 395.545257 Q 266.411528 395.545257 268.403300 394.270523 Q 270.395072 392.995789 272.944540 390.844676 Q 275.494008 388.693562 278.123146 385.825410 Q 280.752285 382.957259 282.983070 379.611082 Q 285.532538 375.786880 287.922664 371.484653 Q 290.312790 367.182426 292.224891 363.836249 Z M 340.027416 365.748350 Q 339.868075 368.775843 337.637290 372.361033 Q 335.406506 375.946222 332.219671 379.531411 Q 329.032836 383.116601 325.128963 386.542448 Q 321.225090 389.968296 317.480559 392.597435 Q 313.736028 395.226574 310.549193 396.899662 Q 307.362358 398.572750 305.609598 398.572750 L 303.060130 396.023282 Q 303.060130 395.385915 303.697497 395.545257 Q 307.362358 395.226574 309.752484 392.756777 Q 312.142610 390.286979 313.417344 382.957259 Q 313.736028 381.204500 314.054711 379.053386 Q 314.373395 376.902272 314.692078 374.910501 Q 315.010762 372.918729 315.409116 371.325311 Q 315.807470 369.731894 316.126154 369.094527 Q 316.763521 367.182426 316.524508 366.784071 Q 316.285496 366.385717 315.010762 366.385717 L 310.389851 367.182426 Q 308.955775 366.545059 310.549193 366.067033 Q 313.736028 365.589008 318.038255 364.951641 Q 322.340482 364.314274 324.889950 363.517565 Q 325.367975 363.836249 325.049292 364.154932 Q 324.411925 364.632958 323.615216 365.270325 Q 322.818507 365.907692 322.340482 367.023084 Q 321.543773 368.775843 320.986077 371.325311 Q 320.428381 373.874779 319.950356 376.264905 Q 319.472331 378.655032 319.073976 380.646804 Q 318.675622 382.638576 318.356938 383.435284 Q 317.400888 386.144094 315.170103 388.693562 Q 312.939319 391.243030 310.708534 392.995789 Q 310.071167 394.111181 310.867876 393.633156 Q 315.488787 392.039739 319.711343 389.410600 Q 323.933900 386.781461 327.280076 383.196272 Q 330.626253 379.611082 332.777367 375.149513 Q 334.928480 370.687944 335.406506 365.429666 Q 335.884531 359.215338 333.494405 357.303237 Q 333.175721 357.143895 333.335063 356.984554 Q 333.494405 356.825212 334.450455 356.984554 Q 337.318607 357.303237 338.912024 359.693363 Q 340.505442 362.083490 340.027416 365.748350 Z M 396.115712 375.786880 Q 392.450852 380.248449 388.068954 384.789689 Q 383.687056 389.330929 379.225487 392.995789 Q 374.763918 396.660649 370.382020 398.891434 Q 366.000122 401.122218 362.335261 401.122218 Q 359.148426 401.122218 357.873692 399.528801 Q 356.598958 397.935384 356.598958 395.545257 Q 356.598958 393.314473 357.953363 389.569942 Q 359.307768 385.825410 362.016578 381.523183 Q 359.945135 384.231993 357.236325 387.259486 Q 354.527516 390.286979 351.659364 392.756777 Q 348.791213 395.226574 345.923061 396.899662 Q 343.054910 398.572750 340.824125 398.572750 Q 337.477948 398.572750 337.477948 395.226574 Q 337.477948 391.561713 340.346100 385.984752 Q 343.214251 380.407791 348.074175 375.229184 Q 352.934098 370.050577 359.148426 366.306046 Q 365.362755 362.561515 372.055108 362.561515 Q 372.851817 360.968097 373.489184 360.330730 Q 374.126551 359.693363 374.763918 359.374680 L 379.225487 358.099946 L 379.544170 358.259288 Q 378.747462 359.055996 378.030424 360.251060 Q 377.313386 361.446123 376.516677 362.720857 Q 377.313386 362.720857 378.906803 362.880199 Q 380.500221 363.039540 381.296930 363.198882 Q 382.093638 363.517565 382.093638 363.995591 Q 382.093638 364.473616 381.615613 364.473616 Q 380.659563 364.154932 378.747462 363.995591 Q 376.835361 363.836249 375.879310 363.836249 Q 368.549590 376.742931 365.123742 384.311664 Q 361.697894 391.880397 361.697894 395.545257 Q 361.697894 396.979333 362.414932 397.935384 Q 363.131970 398.891434 365.362755 398.891434 Q 367.912223 398.891434 371.417741 397.059004 Q 374.923260 395.226574 378.906803 391.960068 Q 382.890347 388.693562 387.112904 384.391335 Q 391.335460 380.089107 395.159662 375.308855 Q 395.478345 374.830830 395.797029 375.069842 Q 396.115712 375.308855 396.115712 375.786880 Z M 371.258399 363.676907 Q 365.840780 363.676907 360.901186 367.501109 Q 355.961591 371.325311 352.137389 376.503918 Q 348.313187 381.682525 346.002732 386.781461 Q 343.692277 391.880397 343.692277 394.270523 Q 343.692277 395.545257 344.648327 395.545257 Q 345.604378 395.545257 347.596150 394.270523 Q 349.587921 392.995789 352.137389 390.844676 Q 354.686857 388.693562 357.315996 385.825410 Q 359.945135 382.957259 362.175920 379.611082 Q 364.725388 375.786880 367.115514 371.484653 Q 369.505640 367.182426 371.417741 363.836249 Z M 409.659761 368.457160 Q 409.181736 369.253868 408.863052 368.616501 Q 407.907002 366.545059 404.879509 366.545059 Q 402.648724 366.545059 400.417940 367.819793 Q 398.187155 369.094527 398.187155 371.643995 Q 398.187155 372.918729 398.983864 374.193463 Q 399.780573 375.468197 401.214648 377.539639 Q 402.489382 379.451740 403.604775 381.363841 Q 404.720167 383.275942 404.720167 385.347385 Q 404.720167 389.490271 402.808066 392.119410 Q 400.895965 394.748548 398.266826 396.341966 Q 395.637687 397.935384 392.928877 398.493080 Q 390.220068 399.050776 388.626650 399.050776 Q 378.906803 399.050776 377.950753 392.517764 Q 378.747462 392.039739 379.783183 391.322701 Q 380.818904 390.605663 381.296930 389.968296 Q 381.615613 389.968296 381.774955 390.605663 Q 382.571664 393.473815 384.802448 395.545257 Q 387.033233 397.616700 390.060726 397.616700 Q 391.335460 397.616700 393.088219 397.377687 Q 394.840978 397.138675 396.354725 396.262295 Q 397.868472 395.385915 398.983864 393.792498 Q 400.099256 392.199080 400.099256 389.490271 Q 400.099256 387.418828 399.302547 385.666069 Q 398.505839 383.913309 397.549788 382.479234 Q 396.593738 380.885816 395.637687 379.292399 Q 394.681637 377.698981 394.681637 375.786880 Q 394.681637 373.874779 396.036042 371.643995 Q 397.390446 369.413210 399.461889 367.580780 Q 401.533332 365.748350 404.003129 364.473616 Q 406.472926 363.198882 408.863052 363.198882 Q 411.412520 363.198882 411.412520 364.792299 Q 410.934495 365.589008 410.456470 366.624730 Q 409.978445 367.660451 409.659761 368.457160 Z M 455.231502 376.264905 Q 452.841375 379.292399 449.813882 382.399563 Q 446.786389 385.506727 443.599554 388.295208 Q 440.412719 391.083688 437.066542 393.314473 Q 433.720365 395.545257 430.692872 396.819991 Q 428.302746 397.776042 426.310974 398.174396 Q 424.319202 398.572750 422.566443 398.572750 Q 413.802647 398.572750 413.802647 391.243030 Q 413.802647 388.374878 415.077381 385.188043 Q 418.104874 377.698981 423.602164 371.883007 Q 429.099455 366.067033 435.473125 363.358224 Q 437.385226 362.561515 438.659960 362.561515 Q 444.555604 362.561515 444.555604 367.182426 Q 444.555604 369.572552 443.440212 370.847286 Q 442.484162 371.803337 440.253377 373.556096 L 439.775352 373.396754 Q 440.253377 372.122020 440.253377 370.687944 Q 440.253377 369.094527 439.058314 367.660451 Q 437.863251 366.226375 435.313783 366.226375 Q 432.286290 366.226375 429.497809 368.218147 Q 426.709328 370.209919 424.558215 373.476425 Q 422.407101 376.742931 421.132367 380.965487 Q 419.857633 385.188043 419.857633 389.649612 Q 419.857633 392.995789 421.690063 394.668878 Q 423.522493 396.341966 426.231303 396.341966 Q 430.692872 396.341966 438.261605 391.163359 Q 445.830338 385.984752 454.434793 375.468197 Q 455.231502 374.671488 455.629856 375.069842 Q 456.028210 375.468197 455.231502 376.264905 Z M 516.259392 341.209721 Q 516.259392 342.803138 514.904987 344.635568 Q 513.550582 346.467998 510.682431 346.467998 Q 508.770330 346.149315 508.770330 344.396555 Q 508.770330 342.962480 510.204405 340.970708 Q 511.638481 338.978936 513.869266 338.978936 Q 515.144000 338.978936 515.701696 339.695974 Q 516.259392 340.413012 516.259392 341.209721 Z M 520.242936 377.380298 Q 519.446227 378.177007 515.940708 381.602854 Q 512.435190 385.028702 507.575266 388.773233 Q 502.715343 392.517764 497.297724 395.545257 Q 491.880104 398.572750 487.259193 398.572750 Q 483.116308 398.572750 483.116308 394.429865 Q 483.116308 391.561713 485.665776 386.462777 Q 486.781168 384.231993 488.215244 381.682525 Q 489.649320 379.133057 491.163066 376.503918 Q 492.676813 373.874779 494.110889 371.484653 Q 495.544964 369.094527 496.660357 367.341768 Q 496.979040 366.863742 496.341673 366.624730 Q 495.704306 366.385717 495.066939 366.704400 Q 489.649320 369.253868 485.108080 371.006628 Q 480.566840 372.759387 477.220663 372.759387 Q 474.671195 372.759387 473.237119 372.122020 Q 471.803044 371.484653 470.846993 370.767615 Q 469.890943 370.050577 469.333247 369.413210 Q 468.775550 368.775843 467.978842 368.775843 Q 466.863449 368.775843 463.756285 371.803337 Q 460.649121 374.830830 456.984261 381.523183 Q 454.753476 385.347385 452.363350 389.888625 Q 449.973224 394.429865 448.220465 397.457358 Q 447.583098 398.572750 446.467705 398.572750 Q 445.989680 398.572750 444.874288 397.218346 Q 443.758896 395.863941 443.758896 394.589207 Q 443.758896 392.995789 446.069351 389.330929 Q 448.379806 385.666069 451.407300 380.885816 Q 454.116109 376.583589 456.107881 372.839058 Q 458.099653 369.094527 458.099653 366.863742 Q 458.099653 365.748350 457.621628 364.951641 Q 457.143603 364.154932 455.709527 364.154932 Q 453.956768 364.154932 451.885325 365.270325 Q 449.813882 366.385717 447.742439 367.660451 Q 447.105072 367.341768 447.105072 366.863742 Q 449.335857 365.270325 451.964996 363.915920 Q 454.594135 362.561515 457.302944 362.561515 Q 460.011754 362.561515 461.127146 363.597236 Q 462.242539 364.632958 462.242539 367.341768 Q 462.242539 368.457160 461.764513 370.289590 Q 461.286488 372.122020 460.649121 373.396754 Q 460.330438 373.874779 460.410108 374.034121 Q 460.489779 374.193463 460.808463 373.874779 Q 465.110690 368.138476 468.775550 365.349996 Q 472.440411 362.561515 473.237119 362.561515 Q 473.874486 362.561515 474.193170 363.836249 Q 474.989879 366.226375 477.220663 367.899464 Q 479.451448 369.572552 482.160257 369.572552 Q 486.303143 369.572552 490.366358 367.740122 Q 494.429572 365.907692 499.050483 363.198882 Q 500.006533 362.561515 501.679622 362.163161 Q 503.352710 361.764806 503.671394 361.764806 Q 504.786786 361.764806 504.786786 362.561515 Q 504.786786 363.039540 504.468102 363.676907 Q 500.803242 369.253868 497.058711 375.308855 Q 493.314180 381.363841 491.083395 386.781461 Q 490.605370 387.896853 490.366358 389.251258 Q 490.127345 390.605663 490.127345 391.402372 Q 490.127345 395.067232 493.632863 395.067232 Q 495.066939 395.067232 497.855420 393.792498 Q 500.643900 392.517764 504.069748 390.127638 Q 507.495596 387.737511 511.479139 384.231993 Q 515.462683 380.726474 519.446227 376.424247 Q 520.083594 375.786880 520.641290 376.105564 Q 521.198986 376.424247 520.242936 377.380298 Z M 559.441006 372.600045 Q 550.995893 383.275942 541.355718 388.454549 Q 531.715542 393.633156 521.198986 396.023282 Q 517.534126 396.819991 514.825316 397.298017 Q 512.116506 397.776042 509.407697 398.254067 Q 504.786786 406.061813 500.643900 413.789888 Q 496.501015 421.517962 492.358129 429.166366 Q 486.303143 440.479631 481.363549 450.518161 Q 476.423954 460.556691 470.687651 470.435880 Q 469.572259 472.347981 467.660158 473.383702 Q 465.748057 474.419423 463.198589 475.216132 Q 460.649121 476.012841 457.302944 476.809550 Q 453.956768 477.606258 449.973224 479.040334 Q 449.017173 479.518359 448.857832 478.801322 Q 448.698490 478.084284 449.654540 477.765600 Q 453.797426 476.172183 456.665577 474.658436 Q 459.533729 473.144689 461.844184 471.073247 Q 464.154640 469.001804 466.226082 466.133652 Q 468.297525 463.265501 471.006335 458.963274 Q 473.715145 454.501705 477.619018 447.889022 Q 481.522890 441.276340 486.303143 433.309252 Q 491.083395 425.342164 496.341673 416.339356 Q 501.599951 407.336547 507.017570 398.254067 Q 506.061520 397.935384 506.061520 396.501308 Q 506.061520 395.545257 507.097241 395.385916 Q 508.132963 395.226574 508.770330 395.067232 L 516.100050 383.116601 Q 521.198986 374.830830 526.297922 365.907692 Q 531.396858 356.984554 536.814478 349.973517 Q 537.451845 349.336150 538.567237 349.017466 Q 538.885920 348.858124 539.841971 348.698783 Q 540.798021 348.539441 541.754072 348.380099 Q 542.710122 348.220757 543.506831 348.141087 Q 544.303540 348.061416 544.462882 348.061416 Q 544.940907 348.061416 544.940907 348.380099 Q 544.940907 348.858124 544.303540 349.495491 Q 540.957363 352.522985 538.407895 355.311465 Q 535.858427 358.099946 533.627643 360.729085 Q 531.396858 363.358224 529.405086 366.067033 Q 527.413314 368.775843 525.341872 371.962678 Q 526.935289 370.209919 528.847390 368.297818 Q 530.759491 366.385717 532.671592 364.792300 Q 534.583693 363.198882 536.495794 362.163161 Q 538.407895 361.127439 540.001313 361.127439 Q 541.594730 361.127439 542.630452 362.083490 Q 543.666173 363.039540 543.666173 365.270325 Q 543.666173 366.863742 542.311768 370.209919 Q 540.957363 373.556096 537.690857 377.698981 Q 534.424351 381.841867 529.006732 386.303436 Q 523.589112 390.765005 515.462683 394.589207 Q 519.764910 394.111181 525.102859 393.075460 Q 530.440808 392.039739 536.177111 389.569942 Q 541.913414 387.100144 547.649717 382.877588 Q 553.386020 378.655032 558.484956 371.962678 Q 558.644297 371.643995 559.042652 371.723666 Q 559.441006 371.803337 559.441006 372.600045 Z M 537.133161 368.457160 Q 537.133161 367.819793 536.894149 366.863742 Q 536.655136 365.907692 535.221060 365.907692 Q 534.424351 365.907692 532.910605 366.784071 Q 531.396858 367.660451 529.484757 369.174198 Q 527.572656 370.687944 525.501213 372.918729 Q 523.429771 375.149513 521.517670 377.858323 Q 518.808860 381.682525 516.259392 386.064423 Q 513.709924 390.446321 511.160456 395.067232 Q 516.418734 393.633156 521.119315 390.286979 Q 525.819897 386.940803 529.405086 382.957259 Q 532.990276 378.973715 535.061718 374.990171 Q 537.133161 371.006628 537.133161 368.457160 Z M 585.254370 339.456961 Q 583.979636 339.775645 582.386218 340.652024 Q 580.792801 341.528404 579.996092 342.803138 Q 576.331232 347.902074 572.905384 353.479035 Q 569.479536 359.055996 566.292701 364.632958 L 586.051078 364.632958 Q 586.529104 364.951641 586.529104 365.270325 Q 586.529104 365.589008 586.210420 365.748350 Q 584.935686 365.748350 582.386218 365.828021 Q 579.836750 365.907692 576.809257 366.067033 Q 573.781764 366.226375 570.594929 366.385717 Q 567.408094 366.545059 565.017967 366.704400 Q 560.556398 374.671488 558.166272 380.248449 Q 555.776146 385.825410 555.776146 389.968296 Q 555.776146 395.704599 561.034424 395.704599 Q 563.583892 395.704599 566.850397 394.350194 Q 570.116903 392.995789 573.781764 390.765005 Q 574.259789 390.286979 574.737814 390.844676 Q 575.215839 391.402372 574.419131 391.721055 Q 569.001511 395.226574 564.380600 396.819991 Q 559.759690 398.413409 554.979437 398.413409 Q 552.429969 398.413409 550.517868 396.899662 Q 548.605767 395.385915 548.605767 391.721055 Q 548.605767 388.534220 551.473919 382.319892 Q 554.342070 376.105564 559.919031 367.023084 Q 558.006930 367.182426 555.218450 367.421438 Q 552.429969 367.660451 551.951944 367.660451 Q 551.155235 367.660451 551.155235 367.023084 Q 551.792602 365.907692 553.226678 364.792299 L 561.353107 364.632958 Q 562.787183 362.242831 564.539942 359.295009 Q 566.292701 356.347187 568.045461 353.399364 Q 569.798220 350.451542 571.630650 347.663061 Q 573.463080 344.874581 574.897156 342.484454 Q 576.649915 341.687746 579.757079 340.413012 Q 582.864243 339.138278 585.254370 338.341569 Q 585.573053 338.341569 585.732395 338.739923 Q 585.891737 339.138278 585.254370 339.456961 Z M 664.447219 370.528602 Q 661.738410 374.193463 657.834537 377.141285 Q 653.930664 380.089107 648.991070 380.089107 Q 646.282260 380.089107 643.653121 378.734703 Q 641.023982 377.380298 639.430565 374.671488 Q 638.315172 377.220956 636.562413 380.487462 Q 634.809654 383.753968 632.419528 387.020474 Q 630.029401 390.286979 627.081579 392.995789 Q 624.133757 395.704599 620.787580 397.457358 Q 617.919428 398.732092 616.007327 398.732092 Q 610.271024 398.732092 610.271024 393.633156 Q 610.271024 390.765005 611.306746 387.737511 Q 612.342467 384.710018 613.935885 381.841867 Q 615.529302 378.973715 617.361732 376.424247 Q 619.194162 373.874779 620.787580 372.281362 Q 624.133757 368.616501 628.435984 366.067033 Q 632.738211 363.517565 637.677805 363.039540 Q 637.996489 361.764806 638.633856 360.091718 Q 639.271223 358.418629 640.864640 358.099946 Q 641.661349 357.940604 642.458058 357.781262 Q 643.254767 357.621921 643.892134 357.303237 Q 644.370159 356.984554 644.848184 357.223566 Q 645.326209 357.462579 645.007526 358.099946 Q 643.892134 359.852705 643.334438 362.561515 Q 642.776741 365.270325 642.776741 368.457160 Q 642.776741 372.918729 644.449830 375.786880 Q 646.122918 378.655032 650.265804 378.655032 Q 654.408689 378.655032 657.754866 375.946222 Q 661.101043 373.237412 663.331827 370.050577 Q 663.650511 369.253868 664.367549 369.572552 Q 665.084586 369.891235 664.447219 370.528602 Z M 638.155831 371.643995 Q 637.837147 370.209919 637.677805 368.297818 Q 637.518464 366.385717 637.518464 364.632958 Q 637.518464 363.836249 636.881097 363.836249 Q 635.128337 363.836249 633.216236 365.031312 Q 631.304135 366.226375 629.392034 368.218147 Q 627.479933 370.209919 625.567832 372.759387 Q 623.655731 375.308855 622.062314 378.017665 Q 619.990871 381.523183 618.317783 385.586398 Q 616.644694 389.649612 616.804036 393.314473 Q 616.804036 394.429865 617.202391 395.385916 Q 617.600745 396.341966 619.034821 396.341966 Q 621.743630 396.341966 624.930465 393.314473 Q 628.117300 390.286979 630.985452 386.223765 Q 633.853603 382.160550 635.845375 378.017665 Q 637.837147 373.874779 638.155831 371.643995 Z M 686.755064 365.110983 Q 685.799014 366.226375 684.763293 367.819793 Q 683.727571 369.413210 683.408888 370.209919 Q 683.249546 370.687944 682.771521 370.687944 Q 682.612179 370.687944 682.293495 370.209919 Q 681.974812 369.731894 681.417116 369.174198 Q 680.859420 368.616501 679.903369 368.138476 Q 678.947319 367.660451 677.194559 367.660451 Q 675.123117 367.660451 672.573649 369.094527 Q 670.024181 370.528602 668.112080 372.281362 Q 665.084586 374.830830 662.774131 377.858323 Q 660.463676 380.885816 658.392233 384.152322 Q 656.320790 387.418828 654.408689 390.844676 Q 652.496588 394.270523 650.265804 397.776042 Q 650.106462 398.254067 649.309753 398.254067 Q 648.991070 398.254067 647.955348 397.298016 Q 646.919627 396.341966 646.919627 395.863941 Q 646.919627 394.907890 648.035019 392.995789 Q 650.584487 388.534220 653.213626 383.992980 Q 655.842765 379.451740 658.153220 375.468197 Q 660.463676 371.484653 662.216435 368.536831 Q 663.969194 365.589008 664.606561 364.154932 Q 665.403270 362.720857 665.721953 362.720857 Q 666.040637 362.720857 667.315371 363.517565 Q 668.590105 364.314274 668.590105 365.748350 Q 668.590105 366.226375 668.032409 367.341767 Q 667.474713 368.457160 666.757675 369.652223 Q 666.040637 370.847286 665.403270 371.962678 Q 664.765903 373.078070 664.447219 373.556096 Q 663.969194 374.352804 664.287878 374.352804 Q 664.606561 374.352804 665.084586 373.874779 Q 666.678004 372.281362 668.988459 370.369261 Q 671.298915 368.457160 673.848383 366.784071 Q 676.397851 365.110983 678.867648 363.995591 Q 681.337445 362.880199 683.249546 362.880199 Q 684.683622 362.880199 685.719343 363.597236 Q 686.755064 364.314274 686.755064 365.110983 Z M 755.909384 376.264905 Q 753.519258 379.292399 750.491764 382.399563 Q 747.464271 385.506727 744.277436 388.295208 Q 741.090601 391.083688 737.744424 393.314473 Q 734.398248 395.545257 731.370754 396.819991 Q 728.980628 397.776042 726.988856 398.174396 Q 724.997084 398.572750 723.244325 398.572750 Q 714.480529 398.572750 714.480529 391.243030 Q 714.480529 388.374878 715.755263 385.188043 Q 718.782756 377.698981 724.280047 371.883007 Q 729.777337 366.067033 736.151007 363.358224 Q 738.063108 362.561515 739.337842 362.561515 Q 745.233487 362.561515 745.233487 367.182426 Q 745.233487 369.572552 744.118094 370.847286 Q 743.162044 371.803337 740.931259 373.556096 L 740.453234 373.396754 Q 740.931259 372.122020 740.931259 370.687944 Q 740.931259 369.094527 739.736196 367.660451 Q 738.541133 366.226375 735.991665 366.226375 Q 732.964172 366.226375 730.175691 368.218147 Q 727.387211 370.209919 725.236097 373.476425 Q 723.084983 376.742931 721.810249 380.965487 Q 720.535515 385.188043 720.535515 389.649612 Q 720.535515 392.995789 722.367945 394.668878 Q 724.200376 396.341966 726.909185 396.341966 Q 731.370754 396.341966 738.939487 391.163359 Q 746.508221 385.984752 755.112675 375.468197 Q 755.909384 374.671488 756.307738 375.069842 Q 756.706093 375.468197 755.909384 376.264905 Z M 827.294488 374.671488 Q 816.459249 387.100144 803.791580 393.792498 Q 791.123911 400.484851 777.261178 400.484851 Q 775.827103 400.484851 774.711710 400.086497 Q 773.596318 399.688143 773.596318 398.891434 Q 773.596318 398.572750 773.835331 397.537029 Q 774.074343 396.501308 774.871052 394.907890 L 775.986444 394.111181 Q 777.261178 394.429865 779.571634 394.668878 Q 781.882089 394.907890 783.794190 394.907890 Q 787.459050 394.907890 790.247531 392.995789 Q 793.036012 391.083688 793.673379 387.737511 Q 793.832720 386.622119 793.832720 384.231993 Q 793.832720 381.682525 793.832720 378.814373 Q 793.832720 375.946222 793.832720 373.396754 Q 793.832720 370.687944 793.992062 369.413210 Q 790.805227 371.803337 784.431557 374.751159 Q 778.057887 377.698981 768.975407 380.885816 Q 768.178699 383.753968 767.700673 385.506727 Q 767.222648 387.259486 766.107256 389.012246 Q 765.151205 390.286979 763.079763 391.960068 Q 761.008320 393.633156 758.538523 395.226574 Q 756.068726 396.819991 753.280245 397.855713 Q 750.491764 398.891434 747.782955 398.891434 Q 744.596120 398.891434 742.285664 397.935384 Q 739.975209 396.979333 738.381791 395.545257 Q 736.788374 394.111181 736.071336 392.597435 Q 735.354298 391.083688 735.354298 389.968296 Q 735.672982 389.330929 736.629032 388.534220 Q 737.585083 387.737511 738.222450 387.418828 Q 744.118094 386.462777 751.049460 384.869360 Q 757.980827 383.275942 764.035813 381.204500 Q 764.354497 379.133057 764.434167 375.468197 Q 764.513838 371.803337 764.513838 368.138476 Q 764.513838 364.314274 766.425939 361.127439 Q 768.338040 357.940604 771.524875 357.940604 Q 773.596318 358.737313 777.739204 358.737313 Q 778.057887 358.896655 777.978216 359.295009 Q 777.898545 359.693363 777.579862 359.852705 Q 776.783153 359.852705 775.667761 360.251060 Q 774.552369 360.649414 773.516647 361.844477 Q 772.480926 363.039540 771.684217 365.270325 Q 770.887508 367.501109 770.409483 371.006628 Q 770.090800 373.078070 769.772116 375.149513 Q 769.453433 377.220956 769.134749 379.451740 Q 776.623811 377.061614 783.316165 374.034121 Q 790.008518 371.006628 793.036012 368.457160 Q 794.151404 367.660451 794.231075 366.385717 Q 794.310746 365.110983 794.948113 363.836249 Q 795.585480 362.561515 796.939884 361.366452 Q 798.294289 360.171389 799.808036 359.295009 Q 801.321783 358.418629 802.596517 357.860933 Q 803.871251 357.303237 804.508618 357.303237 Q 804.986643 357.303237 805.703681 357.621921 Q 806.420719 357.940604 806.420719 358.259288 Q 806.420719 358.737313 805.624010 358.737313 Q 804.508618 358.737313 803.074542 360.410401 Q 801.640466 362.083490 800.843757 364.792299 Q 800.365732 366.385717 799.967378 368.457160 Q 799.569023 370.528602 799.250340 372.839058 Q 798.931656 375.149513 798.772315 377.380298 Q 798.612973 379.611082 798.453631 381.523183 Q 798.294289 383.913309 797.019555 387.259486 Q 795.744821 390.605663 791.442594 393.473815 Q 790.964569 393.792498 790.884898 394.190852 Q 790.805227 394.589207 791.761278 394.589207 Q 801.481124 394.270523 810.165250 388.374879 Q 818.849375 382.479234 826.497779 373.874779 Q 826.975804 373.556096 827.294488 373.795108 Q 827.613171 374.034121 827.294488 374.671488 Z M 763.876471 382.479234 Q 758.299510 384.391335 752.642878 386.064423 Q 746.986246 387.737511 742.843360 389.012246 Q 740.293892 389.649612 740.293892 391.880397 Q 740.293892 393.633156 742.285664 395.704599 Q 744.277436 397.776042 747.782955 397.776042 Q 749.695056 397.776042 752.244524 396.979333 Q 754.793992 396.182624 757.184118 394.429865 Q 759.574244 392.677106 761.406674 389.729283 Q 763.239104 386.781461 763.876471 382.479234 Z M 899.157617 377.061614 Q 896.289466 381.045158 892.544934 385.108373 Q 888.800403 389.171587 884.577847 392.358422 Q 880.355291 395.545257 875.973392 397.616700 Q 871.591494 399.688143 867.448609 399.688143 Q 865.536508 399.688143 863.943090 399.130447 Q 862.349673 398.572750 862.349673 396.341966 Q 862.349673 394.111181 863.943090 390.685334 Q 865.536508 387.259486 867.687621 383.435284 Q 869.838735 379.611082 872.149191 375.627539 Q 874.459646 371.643995 875.893722 368.297818 Q 876.212405 367.501109 875.973392 366.943413 Q 875.734380 366.385717 874.937671 366.863742 Q 873.184912 367.979134 870.794786 369.891235 Q 868.404659 371.803337 865.934862 373.954450 Q 863.465065 376.105564 861.154610 378.336348 Q 858.844154 380.567133 857.410079 382.319892 Q 854.860611 386.303436 853.028180 389.649612 Q 851.195750 392.995789 848.486941 397.138675 Q 847.849574 398.094725 847.530890 398.094725 Q 846.734181 398.094725 846.176485 396.341966 Q 845.618789 394.589207 845.618789 394.111181 Q 845.618789 392.677106 847.610561 390.207309 Q 849.602333 387.737511 851.992459 384.710018 Q 854.541927 379.611082 857.250737 373.954450 Q 859.959547 368.297818 861.871648 363.836249 Q 862.349673 363.039540 863.305723 363.039540 Q 864.261774 363.039540 865.058483 363.836249 Q 865.855191 364.632958 865.855191 365.589008 Q 865.855191 366.226375 863.544736 369.970906 Q 861.234281 373.715438 859.003496 378.655032 Q 862.030989 375.946222 865.616179 372.918729 Q 869.201368 369.891235 872.467874 367.341767 Q 875.734380 364.792299 878.204177 363.119211 Q 880.673974 361.446123 881.630025 361.446123 Q 882.267392 361.446123 882.825088 362.163161 Q 883.382784 362.880199 883.382784 363.517565 Q 883.382784 364.154932 882.586075 365.429666 Q 880.833316 367.979134 878.283848 371.962678 Q 875.734380 375.946222 873.423924 380.168778 Q 871.113469 384.391335 869.520052 388.215537 Q 867.926634 392.039739 867.926634 394.270523 Q 867.926634 396.182624 868.723343 396.899662 Q 869.520052 397.616700 871.272811 397.616700 Q 873.981621 397.616700 877.646481 395.545257 Q 881.311341 393.473815 885.215214 390.366650 Q 889.119087 387.259486 892.624605 383.435284 Q 896.130124 379.611082 898.360908 376.105564 Q 898.679592 375.627538 899.316959 375.866551 Q 899.954326 376.105564 899.157617 377.061614 Z M 930.866625 378.655032 Q 928.157816 382.001208 924.413284 385.586398 Q 920.668753 389.171587 916.286855 392.119410 Q 911.904957 395.067232 907.204375 396.899662 Q 902.503794 398.732092 897.882883 398.732092 Q 890.393821 398.732092 890.393821 392.039739 Q 890.393821 387.578170 892.704276 382.399563 Q 895.014732 377.220956 898.679592 372.839058 Q 902.344452 368.457160 906.726350 365.509337 Q 911.108248 362.561515 915.091792 362.561515 Q 917.322577 362.561515 918.198956 363.358224 Q 919.075336 364.154932 919.075336 365.429666 Q 919.075336 367.341768 917.880273 369.572552 Q 916.685210 371.803337 914.295083 373.795108 Q 911.904957 375.786880 908.240097 377.141285 Q 904.575237 378.495690 899.476301 378.495690 Q 898.679592 379.929766 897.723541 383.036930 Q 896.767491 386.144094 896.767491 389.330929 Q 896.767491 395.863941 902.663136 395.863941 Q 906.327996 395.863941 910.231869 394.111181 Q 914.135742 392.358422 917.800602 389.729283 Q 921.465462 387.100144 924.572626 383.992980 Q 927.679790 380.885816 929.751233 378.177007 Q 930.069917 377.858323 930.468271 378.017665 Q 930.866625 378.177007 930.866625 378.655032 Z M 914.135742 366.226375 Q 914.135742 364.154932 912.064299 364.154932 Q 910.470881 364.154932 908.797793 365.349996 Q 907.124705 366.545059 905.531287 368.457160 Q 903.937870 370.369261 902.503794 372.600045 Q 901.069718 374.830830 900.113668 376.902272 Q 900.432351 377.061614 901.229060 377.141285 Q 902.025769 377.220956 902.503794 377.220956 Q 907.124705 377.220956 910.630223 373.954450 Q 914.135742 370.687944 914.135742 366.226375 Z M 963.531684 378.655032 Q 960.822874 382.001208 957.078343 385.586398 Q 953.333812 389.171587 948.951914 392.119410 Q 944.570016 395.067232 939.869434 396.899662 Q 935.168853 398.732092 930.547942 398.732092 Q 923.058880 398.732092 923.058880 392.039739 Q 923.058880 387.578170 925.369335 382.399563 Q 927.679790 377.220956 931.344651 372.839058 Q 935.009511 368.457160 939.391409 365.509337 Q 943.773307 362.561515 947.756851 362.561515 Q 949.987635 362.561515 950.864015 363.358224 Q 951.740395 364.154932 951.740395 365.429666 Q 951.740395 367.341768 950.545331 369.572552 Q 949.350268 371.803337 946.960142 373.795108 Q 944.570016 375.786880 940.905156 377.141285 Q 937.240295 378.495690 932.141359 378.495690 Q 931.344651 379.929766 930.388600 383.036930 Q 929.432550 386.144094 929.432550 389.330929 Q 929.432550 395.863941 935.328194 395.863941 Q 938.993055 395.863941 942.896927 394.111181 Q 946.800800 392.358422 950.465661 389.729283 Q 954.130521 387.100144 957.237685 383.992980 Q 960.344849 380.885816 962.416292 378.177007 Q 962.734975 377.858323 963.133330 378.017665 Q 963.531684 378.177007 963.531684 378.655032 Z M 946.800800 366.226375 Q 946.800800 364.154932 944.729358 364.154932 Q 943.135940 364.154932 941.462852 365.349996 Q 939.789763 366.545059 938.196346 368.457160 Q 936.602928 370.369261 935.168853 372.600045 Q 933.734777 374.830830 932.778726 376.902272 Q 933.097410 377.061614 933.894119 377.141285 Q 934.690827 377.220956 935.168853 377.220956 Q 939.789763 377.220956 943.295282 373.954450 Q 946.800800 370.687944 946.800800 366.226375 Z M 1056.905950 291.654436 Q 1056.905950 292.610487 1055.949899 293.566537 Q 1054.993849 294.522588 1054.675165 296.275347 Q 1054.356482 297.390739 1053.559773 297.390739 Q 1053.081748 297.390739 1052.603722 297.151727 Q 1052.125697 296.912714 1051.408659 296.594031 Q 1050.691621 296.275347 1049.655900 296.036334 Q 1048.620179 295.797322 1046.708078 295.797322 Q 1043.999268 295.797322 1041.290458 296.514360 Q 1038.581648 297.231397 1036.350864 298.665473 Q 1031.889295 301.533625 1026.710688 306.791902 Q 1021.532081 312.050180 1017.229854 318.264508 Q 1006.553957 333.561316 998.507198 346.866353 Q 990.460440 360.171389 985.042820 370.687944 Q 979.625201 381.204500 976.916391 388.613891 Q 974.207581 396.023282 974.207581 399.528801 Q 974.207581 402.237611 975.402644 403.990370 Q 976.597708 405.743129 979.306517 405.743129 Q 983.608745 405.743129 987.512617 403.034319 Q 991.416490 400.325510 994.922009 396.262295 Q 998.427527 392.199080 1001.295679 387.259486 Q 1004.163830 382.319892 1006.235273 378.017665 Q 1006.553957 377.380298 1007.270994 377.539639 Q 1007.988032 377.698981 1007.191324 378.814373 Q 1004.323172 384.550677 1001.056666 389.729283 Q 997.790160 394.907890 994.204971 398.811763 Q 990.619782 402.715636 986.715909 404.946420 Q 982.812036 407.177205 978.987834 407.177205 Q 974.685607 407.177205 972.614164 404.866750 Q 970.542721 402.556294 970.542721 398.891434 Q 970.542721 395.067232 972.056468 390.685334 Q 973.570214 386.303436 976.757049 379.929766 Q 972.295480 385.347385 968.949304 389.012245 Q 965.603127 392.677106 963.053659 394.748548 Q 960.504191 396.819991 958.671761 397.696371 Q 956.839331 398.572750 955.405255 398.572750 Q 953.174470 398.572750 952.377762 397.377687 Q 951.581053 396.182624 951.581053 394.270523 Q 951.581053 392.836447 952.377762 390.525992 Q 953.174470 388.215537 954.608546 385.984752 Q 960.504191 376.424247 967.754240 370.369261 Q 975.004290 364.314274 985.680187 362.402173 Q 993.328591 349.017466 1000.339628 338.341569 Q 1007.350665 327.665672 1015.636436 317.467800 Q 1022.488132 308.863345 1029.260156 302.330333 Q 1036.032180 295.797322 1043.202559 292.451145 Q 1048.620179 289.901677 1052.603722 289.901677 Q 1054.515823 289.901677 1055.710886 290.379702 Q 1056.905950 290.857728 1056.905950 291.654436 Z M 984.405453 364.792299 Q 978.350467 364.951641 975.083961 367.102755 Q 971.817455 369.253868 969.267987 372.440703 Q 963.213001 379.929766 960.663533 385.267714 Q 958.114065 390.605663 958.114065 393.155131 Q 958.114065 393.951840 958.751432 394.270523 Q 959.388799 394.589207 959.707482 394.589207 Q 960.822874 394.589207 963.770697 392.199080 Q 966.718519 389.808954 970.303708 385.745740 Q 973.888898 381.682525 977.713100 376.264905 Q 981.537302 370.847286 984.405453 364.792299 Z M 1039.378357 378.655032 Q 1036.669547 382.001208 1032.925016 385.586398 Q 1029.180485 389.171587 1024.798587 392.119410 Q 1020.416689 395.067232 1015.716107 396.899662 Q 1011.015526 398.732092 1006.394615 398.732092 Q 998.905553 398.732092 998.905553 392.039739 Q 998.905553 387.578170 1001.216008 382.399563 Q 1003.526463 377.220956 1007.191324 372.839058 Q 1010.856184 368.457160 1015.238082 365.509337 Q 1019.619980 362.561515 1023.603524 362.561515 Q 1025.834308 362.561515 1026.710688 363.358224 Q 1027.587068 364.154932 1027.587068 365.429666 Q 1027.587068 367.341768 1026.392004 369.572552 Q 1025.196941 371.803337 1022.806815 373.795108 Q 1020.416689 375.786880 1016.751829 377.141285 Q 1013.086968 378.495690 1007.988032 378.495690 Q 1007.191324 379.929766 1006.235273 383.036930 Q 1005.279223 386.144094 1005.279223 389.330929 Q 1005.279223 395.863941 1011.174867 395.863941 Q 1014.839728 395.863941 1018.743600 394.111181 Q 1022.647473 392.358422 1026.312334 389.729283 Q 1029.977194 387.100144 1033.084358 383.992980 Q 1036.191522 380.885816 1038.262965 378.177007 Q 1038.581648 377.858323 1038.980003 378.017665 Q 1039.378357 378.177007 1039.378357 378.655032 Z M 1022.647473 366.226375 Q 1022.647473 364.154932 1020.576031 364.154932 Q 1018.982613 364.154932 1017.309525 365.349996 Q 1015.636436 366.545059 1014.043019 368.457160 Q 1012.449601 370.369261 1011.015526 372.600045 Q 1009.581450 374.830830 1008.625399 376.902272 Q 1008.944083 377.061614 1009.740792 377.141285 Q 1010.537500 377.220956 1011.015526 377.220956 Q 1015.636436 377.220956 1019.141955 373.954450 Q 1022.647473 370.687944 1022.647473 366.226375 Z M 1132.752623 291.654436 Q 1132.752623 292.610487 1131.796572 293.566537 Q 1130.840522 294.522588 1130.521838 296.275347 Q 1130.203155 297.390739 1129.406446 297.390739 Q 1128.928421 297.390739 1128.450395 297.151727 Q 1127.972370 296.912714 1127.255332 296.594031 Q 1126.538294 296.275347 1125.502573 296.036334 Q 1124.466852 295.797322 1122.554751 295.797322 Q 1119.845941 295.797322 1117.137131 296.514360 Q 1114.428321 297.231397 1112.197537 298.665473 Q 1107.735968 301.533625 1102.557361 306.791902 Q 1097.378754 312.050180 1093.076527 318.264508 Q 1082.400630 333.561316 1074.353871 346.866353 Q 1066.307113 360.171389 1060.889493 370.687944 Q 1055.471874 381.204500 1052.763064 388.613891 Q 1050.054254 396.023282 1050.054254 399.528801 Q 1050.054254 402.237611 1051.249317 403.990370 Q 1052.444381 405.743129 1055.153190 405.743129 Q 1059.455418 405.743129 1063.359290 403.034319 Q 1067.263163 400.325510 1070.768682 396.262295 Q 1074.274200 392.199080 1077.142352 387.259486 Q 1080.010503 382.319892 1082.081946 378.017665 Q 1082.400630 377.380298 1083.117667 377.539639 Q 1083.834705 377.698981 1083.037997 378.814373 Q 1080.169845 384.550677 1076.903339 389.729283 Q 1073.636833 394.907890 1070.051644 398.811763 Q 1066.466455 402.715636 1062.562582 404.946420 Q 1058.658709 407.177205 1054.834507 407.177205 Q 1050.532280 407.177205 1048.460837 404.866750 Q 1046.389394 402.556294 1046.389394 398.891434 Q 1046.389394 395.067232 1047.903141 390.685334 Q 1049.416887 386.303436 1052.603722 379.929766 Q 1048.142153 385.347385 1044.795977 389.012245 Q 1041.449800 392.677106 1038.900332 394.748548 Q 1036.350864 396.819991 1034.518434 397.696371 Q 1032.686004 398.572750 1031.251928 398.572750 Q 1029.021143 398.572750 1028.224435 397.377687 Q 1027.427726 396.182624 1027.427726 394.270523 Q 1027.427726 392.836447 1028.224435 390.525992 Q 1029.021143 388.215537 1030.455219 385.984752 Q 1036.350864 376.424247 1043.600913 370.369261 Q 1050.850963 364.314274 1061.526860 362.402173 Q 1069.175264 349.017466 1076.186301 338.341569 Q 1083.197338 327.665672 1091.483109 317.467800 Q 1098.334805 308.863345 1105.106829 302.330333 Q 1111.878853 295.797322 1119.049232 292.451145 Q 1124.466852 289.901677 1128.450395 289.901677 Q 1130.362496 289.901677 1131.557559 290.379702 Q 1132.752623 290.857728 1132.752623 291.654436 Z M 1060.252126 364.792299 Q 1054.197140 364.951641 1050.930634 367.102755 Q 1047.664128 369.253868 1045.114660 372.440703 Q 1039.059674 379.929766 1036.510206 385.267714 Q 1033.960738 390.605663 1033.960738 393.155131 Q 1033.960738 393.951840 1034.598105 394.270523 Q 1035.235472 394.589207 1035.554155 394.589207 Q 1036.669547 394.589207 1039.617370 392.199080 Q 1042.565192 389.808954 1046.150381 385.745740 Q 1049.735571 381.682525 1053.559773 376.264905 Q 1057.383975 370.847286 1060.252126 364.792299 Z M 1121.439358 333.720658 Q 1122.076725 334.039342 1121.917384 334.517367 Q 1121.758042 334.995392 1121.280017 334.995392 Q 1119.208574 334.995392 1117.615156 336.270126 Q 1114.109638 339.138278 1110.604119 344.077872 Q 1107.098601 349.017466 1103.752424 355.152124 Q 1100.406247 361.286781 1097.219412 368.138476 Q 1094.032577 374.990171 1091.005084 382.001208 Q 1090.686401 382.638576 1090.208375 382.479234 Q 1089.730350 382.319892 1089.730350 381.682525 Q 1094.510603 367.979134 1099.051842 356.984554 Q 1103.593082 345.989973 1107.895310 337.704202 Q 1110.444778 332.764608 1115.543714 332.764608 Q 1116.818448 332.764608 1118.650878 333.083291 Q 1120.483308 333.401975 1121.439358 333.720658 Z M 1091.483109 392.995789 Q 1091.483109 395.226574 1089.889692 396.899662 Q 1088.296274 398.572750 1086.224832 398.572750 Q 1083.197338 398.572750 1083.197338 395.545257 Q 1083.197338 393.314473 1084.312731 391.243030 Q 1085.428123 389.171587 1087.977591 389.171587 Q 1089.730350 389.171587 1090.606730 390.286979 Q 1091.483109 391.402372 1091.483109 392.995789 Z" id="text51_tspan0" /></g></g></svg>