<?xml version='1.0' encoding='utf-8'?>
<svg xmlns="http://www.w3.org/2000/svg" width="400" height="200">
  <path d="M 53.2031250000000000000000000000 100.0000000000000000000000000000 L 53.2031250000000000000000000000 71.3671875000000000000000000000 L 56.9921875000000000000000000000 71.3671875000000000000000000000 L 56.9921875000000000000000000000 83.1250000000000000000000000000 L 71.8750000000000000000000000000 83.1250000000000000000000000000 L 71.8750000000000000000000000000 71.3671875000000000000000000000 L 75.6640625000000000000000000000 71.3671875000000000000000000000 L 75.6640625000000000000000000000 100.0000000000000000000000000000 L 71.8750000000000000000000000000 100.0000000000000000000000000000 L 71.8750000000000000000000000000 86.5039062500000000000000000000 L 56.9921875000000000000000000000 86.5039062500000000000000000000 L 56.9921875000000000000000000000 100.0000000000000000000000000000 Z M 95.7226562500000000000000000000 93.3203125000000000000000000000 L 99.3554687500000000000000000000 93.7695312500000000000000000000 Q 98.4960937500000000000000000000 96.9531250000000000000000000000 96.1718750000000000000000000000 98.7109375000000000000000000000 Q 93.8476562500000000000000000000 100.4687500000000000000000000000 90.2343750000000000000000000000 100.4687500000000000000000000000 Q 85.6835937500000000000000000000 100.4687500000000000000000000000 83.0175781250000000000000000000 97.6660156250000000000000000000 Q 80.3515625000000000000000000000 94.8632812500000000000000000000 80.3515625000000000000000000000 89.8046875000000000000000000000 Q 80.3515625000000000000000000000 84.5703125000000000000000000000 83.0468750000000000000000000000 81.6796875000000000000000000000 Q 85.7421875000000000000000000000 78.7890625000000000000000000000 90.0390625000000000000000000000 78.7890625000000000000000000000 Q 94.1992187500000000000000000000 78.7890625000000000000000000000 96.8359375000000000000000000000 81.6210937500000000000000000000 Q 99.4726562500000000000000000000 84.4531250000000000000000000000 99.4726562500000000000000000000 89.5898437500000000000000000000 Q 99.4726562500000000000000000000 89.9023437500000000000000000000 99.4531250000000000000000000000 90.5273437500000000000000000000 L 83.9843750000000000000000000000 90.5273437500000000000000000000 Q 84.1796875000000000000000000000 93.9453125000000000000000000000 85.9179687500000000000000000000 95.7617187500000000000000000000 Q 87.6562500000000000000000000000 97.5781250000000000000000000000 90.2539062500000000000000000000 97.5781250000000000000000000000 Q 92.1875000000000000000000000000 97.5781250000000000000000000000 93.5546875000000000000000000000 96.5625000000000000000000000000 Q 94.9218750000000000000000000000 95.5468750000000000000000000000 95.7226562500000000000000000000 93.3203125000000000000000000000 Z M 84.1796875000000000000000000000 87.6367187500000000000000000000 L 95.7617187500000000000000000000 87.6367187500000000000000000000 Q 95.5273437500000000000000000000 85.0195312500000000000000000000 94.4335937500000000000000000000 83.7109375000000000000000000000 Q 92.7539062500000000000000000000 81.6796875000000000000000000000 90.0781250000000000000000000000 81.6796875000000000000000000000 Q 87.6562500000000000000000000000 81.6796875000000000000000000000 86.0058593750000000000000000000 83.3007812500000000000000000000 Q 84.3554687500000000000000000000 84.9218750000000000000000000000 84.1796875000000000000000000000 87.6367187500000000000000000000 Z M 103.6914062500000000000000000000 100.0000000000000000000000000000 L 103.6914062500000000000000000000 71.3671875000000000000000000000 L 107.2070312500000000000000000000 71.3671875000000000000000000000 L 107.2070312500000000000000000000 100.0000000000000000000000000000 Z M 112.5781250000000000000000000000 100.0000000000000000000000000000 L 112.5781250000000000000000000000 71.3671875000000000000000000000 L 116.0937500000000000000000000000 71.3671875000000000000000000000 L 116.0937500000000000000000000000 100.0000000000000000000000000000 Z M 120.2343750000000000000000000000 89.6289062500000000000000000000 Q 120.2343750000000000000000000000 83.8671875000000000000000000000 123.4375000000000000000000000000 81.0937500000000000000000000000 Q 126.1132812500000000000000000000 78.7890625000000000000000000000 129.9609375000000000000000000000 78.7890625000000000000000000000 Q 134.2382812500000000000000000000 78.7890625000000000000000000000 136.9531250000000000000000000000 81.5917968750000000000000000000 Q 139.6679687500000000000000000000 84.3945312500000000000000000000 139.6679687500000000000000000000 89.3359375000000000000000000000 Q 139.6679687500000000000000000000 93.3398437500000000000000000000 138.4667968750000000000000000000 95.6347656250000000000000000000 Q 137.2656250000000000000000000000 97.9296875000000000000000000000 134.9707031250000000000000000000 99.1992187500000000000000000000 Q 132.6757812500000000000000000000 100.4687500000000000000000000000 129.9609375000000000000000000000 100.4687500000000000000000000000 Q 125.6054687500000000000000000000 100.4687500000000000000000000000 122.9199218750000000000000000000 97.6757812500000000000000000000 Q 120.2343750000000000000000000000 94.8828125000000000000000000000 120.2343750000000000000000000000 89.6289062500000000000000000000 Z M 123.8476562500000000000000000000 89.6289062500000000000000000000 Q 123.8476562500000000000000000000 93.6132812500000000000000000000 125.5859375000000000000000000000 95.5957031250000000000000000000 Q 127.3242187500000000000000000000 97.5781250000000000000000000000 129.9609375000000000000000000000 97.5781250000000000000000000000 Q 132.5781250000000000000000000000 97.5781250000000000000000000000 134.3164062500000000000000000000 95.5859375000000000000000000000 Q 136.0546875000000000000000000000 93.5937500000000000000000000000 136.0546875000000000000000000000 89.5117187500000000000000000000 Q 136.0546875000000000000000000000 85.6640625000000000000000000000 134.3066406250000000000000000000 83.6816406250000000000000000000 Q 132.5585937500000000000000000000 81.6992187500000000000000000000 129.9609375000000000000000000000 81.6992187500000000000000000000 Q 127.3242187500000000000000000000 81.6992187500000000000000000000 125.5859375000000000000000000000 83.6718750000000000000000000000 Q 123.8476562500000000000000000000 85.6445312500000000000000000000 123.8476562500000000000000000000 89.6289062500000000000000000000 Z M 160.3515625000000000000000000000 100.0000000000000000000000000000 L 152.7539062500000000000000000000 71.3671875000000000000000000000 L 156.6406250000000000000000000000 71.3671875000000000000000000000 L 160.9960937500000000000000000000 90.1367187500000000000000000000 Q 161.6992187500000000000000000000 93.0859375000000000000000000000 162.2070312500000000000000000000 95.9960937500000000000000000000 Q 163.3007812500000000000000000000 91.4062500000000000000000000000 163.4960937500000000000000000000 90.7031250000000000000000000000 L 168.9453125000000000000000000000 71.3671875000000000000000000000 L 173.5156250000000000000000000000 71.3671875000000000000000000000 L 177.6171875000000000000000000000 85.8593750000000000000000000000 Q 179.1601562500000000000000000000 91.2500000000000000000000000000 179.8437500000000000000000000000 95.9960937500000000000000000000 Q 180.3906250000000000000000000000 93.2812500000000000000000000000 181.2695312500000000000000000000 89.7656250000000000000000000000 L 185.7617187500000000000000000000 71.3671875000000000000000000000 L 189.5703125000000000000000000000 71.3671875000000000000000000000 L 181.7187500000000000000000000000 100.0000000000000000000000000000 L 178.0664062500000000000000000000 100.0000000000000000000000000000 L 172.0312500000000000000000000000 78.1835937500000000000000000000 Q 171.2695312500000000000000000000 75.4492187500000000000000000000 171.1328125000000000000000000000 74.8242187500000000000000000000 Q 170.6835937500000000000000000000 76.7968750000000000000000000000 170.2929687500000000000000000000 78.1835937500000000000000000000 L 164.2187500000000000000000000000 100.0000000000000000000000000000 Z M 190.6250000000000000000000000000 89.6289062500000000000000000000 Q 190.6250000000000000000000000000 83.8671875000000000000000000000 193.8281250000000000000000000000 81.0937500000000000000000000000 Q 196.5039062500000000000000000000 78.7890625000000000000000000000 200.3515625000000000000000000000 78.7890625000000000000000000000 Q 204.6289062500000000000000000000 78.7890625000000000000000000000 207.3437500000000000000000000000 81.5917968750000000000000000000 Q 210.0585937500000000000000000000 84.3945312500000000000000000000 210.0585937500000000000000000000 89.3359375000000000000000000000 Q 210.0585937500000000000000000000 93.3398437500000000000000000000 208.8574218750000000000000000000 95.6347656250000000000000000000 Q 207.6562500000000000000000000000 97.9296875000000000000000000000 205.3613281250000000000000000000 99.1992187500000000000000000000 Q 203.0664062500000000000000000000 100.4687500000000000000000000000 200.3515625000000000000000000000 100.4687500000000000000000000000 Q 195.9960937500000000000000000000 100.4687500000000000000000000000 193.3105468750000000000000000000 97.6757812500000000000000000000 Q 190.6250000000000000000000000000 94.8828125000000000000000000000 190.6250000000000000000000000000 89.6289062500000000000000000000 Z M 194.2382812500000000000000000000 89.6289062500000000000000000000 Q 194.2382812500000000000000000000 93.6132812500000000000000000000 195.9765625000000000000000000000 95.5957031250000000000000000000 Q 197.7148437500000000000000000000 97.5781250000000000000000000000 200.3515625000000000000000000000 97.5781250000000000000000000000 Q 202.9687500000000000000000000000 97.5781250000000000000000000000 204.7070312500000000000000000000 95.5859375000000000000000000000 Q 206.4453125000000000000000000000 93.5937500000000000000000000000 206.4453125000000000000000000000 89.5117187500000000000000000000 Q 206.4453125000000000000000000000 85.6640625000000000000000000000 204.6972656250000000000000000000 83.6816406250000000000000000000 Q 202.9492187500000000000000000000 81.6992187500000000000000000000 200.3515625000000000000000000000 81.6992187500000000000000000000 Q 197.7148437500000000000000000000 81.6992187500000000000000000000 195.9765625000000000000000000000 83.6718750000000000000000000000 Q 194.2382812500000000000000000000 85.6445312500000000000000000000 194.2382812500000000000000000000 89.6289062500000000000000000000 Z M 214.1406250000000000000000000000 100.0000000000000000000000000000 L 214.1406250000000000000000000000 79.2578125000000000000000000000 L 217.3046875000000000000000000000 79.2578125000000000000000000000 L 217.3046875000000000000000000000 82.4023437500000000000000000000 Q 218.5156250000000000000000000000 80.1953125000000000000000000000 219.5410156250000000000000000000 79.4921875000000000000000000000 Q 220.5664062500000000000000000000 78.7890625000000000000000000000 221.7968750000000000000000000000 78.7890625000000000000000000000 Q 223.5742187500000000000000000000 78.7890625000000000000000000000 225.4101562500000000000000000000 79.9218750000000000000000000000 L 224.1992187500000000000000000000 83.1835937500000000000000000000 Q 222.9101562500000000000000000000 82.4218750000000000000000000000 221.6210937500000000000000000000 82.4218750000000000000000000000 Q 220.4687500000000000000000000000 82.4218750000000000000000000000 219.5507812500000000000000000000 83.1152343750000000000000000000 Q 218.6328125000000000000000000000 83.8085937500000000000000000000 218.2421875000000000000000000000 85.0390625000000000000000000000 Q 217.6562500000000000000000000000 86.9140625000000000000000000000 217.6562500000000000000000000000 89.1406250000000000000000000000 L 217.6562500000000000000000000000 100.0000000000000000000000000000 Z M 227.4218750000000000000000000000 100.0000000000000000000000000000 L 227.4218750000000000000000000000 71.3671875000000000000000000000 L 230.9375000000000000000000000000 71.3671875000000000000000000000 L 230.9375000000000000000000000000 100.0000000000000000000000000000 Z M 249.8437500000000000000000000000 100.0000000000000000000000000000 L 249.8437500000000000000000000000 97.3828125000000000000000000000 Q 247.8710937500000000000000000000 100.4687500000000000000000000000 244.0429687500000000000000000000 100.4687500000000000000000000000 Q 241.5625000000000000000000000000 100.4687500000000000000000000000 239.4824218750000000000000000000 99.1015625000000000000000000000 Q 237.4023437500000000000000000000 97.7343750000000000000000000000 236.2597656250000000000000000000 95.2832031250000000000000000000 Q 235.1171875000000000000000000000 92.8320312500000000000000000000 235.1171875000000000000000000000 89.6484375000000000000000000000 Q 235.1171875000000000000000000000 86.5429687500000000000000000000 236.1523437500000000000000000000 84.0136718750000000000000000000 Q 237.1875000000000000000000000000 81.4843750000000000000000000000 239.2578125000000000000000000000 80.1367187500000000000000000000 Q 241.3281250000000000000000000000 78.7890625000000000000000000000 243.8867187500000000000000000000 78.7890625000000000000000000000 Q 245.7617187500000000000000000000 78.7890625000000000000000000000 247.2265625000000000000000000000 79.5800781250000000000000000000 Q 248.6914062500000000000000000000 80.3710937500000000000000000000 249.6093750000000000000000000000 81.6406250000000000000000000000 L 249.6093750000000000000000000000 71.3671875000000000000000000000 L 253.1054687500000000000000000000 71.3671875000000000000000000000 L 253.1054687500000000000000000000 100.0000000000000000000000000000 Z M 238.7304687500000000000000000000 89.6484375000000000000000000000 Q 238.7304687500000000000000000000 93.6328125000000000000000000000 240.4101562500000000000000000000 95.6054687500000000000000000000 Q 242.0898437500000000000000000000 97.5781250000000000000000000000 244.3750000000000000000000000000 97.5781250000000000000000000000 Q 246.6796875000000000000000000000 97.5781250000000000000000000000 248.2910156250000000000000000000 95.6933593750000000000000000000 Q 249.9023437500000000000000000000 93.8085937500000000000000000000 249.9023437500000000000000000000 89.9414062500000000000000000000 Q 249.9023437500000000000000000000 85.6835937500000000000000000000 248.2617187500000000000000000000 83.6914062500000000000000000000 Q 246.6210937500000000000000000000 81.6992187500000000000000000000 244.2187500000000000000000000000 81.6992187500000000000000000000 Q 241.8750000000000000000000000000 81.6992187500000000000000000000 240.3027343750000000000000000000 83.6132812500000000000000000000 Q 238.7304687500000000000000000000 85.5273437500000000000000000000 238.7304687500000000000000000000 89.6484375000000000000000000000 Z" /></svg>