<?xml version='1.0' encoding='utf-8'?>
<svg xmlns="http://www.w3.org/2000/svg" width="400" height="200">
  <path d="M 53.20 100.00 L 53.20 71.37 L 56.99 71.37 L 56.99 83.12 L 71.88 83.12 L 71.88 71.37 L 75.66 71.37 L 75.66 100.00 L 71.88 100.00 L 71.88 86.50 L 56.99 86.50 L 56.99 100.00 Z M 95.72 93.32 L 99.36 93.77 Q 98.50 96.95 93.85 100.47 Q 93.85 100.47 90.23 100.47 Q 85.68 100.47 80.35 94.86 Q 80.35 94.86 80.35 89.80 Q 80.35 84.57 85.74 78.79 Q 85.74 78.79 90.04 78.79 Q 94.20 78.79 99.47 84.45 Q 99.47 84.45 99.47 89.59 Q 99.47 89.90 99.45 90.53 L 83.98 90.53 Q 84.18 93.95 87.66 97.58 Q 87.66 97.58 90.25 97.58 Q 92.19 97.58 94.92 95.55 Q 94.92 95.55 95.72 93.32 Z M 84.18 87.64 L 95.76 87.64 Q 95.53 85.02 94.43 83.71 Q 92.75 81.68 90.08 81.68 Q 87.66 81.68 84.36 84.92 Q 84.36 84.92 84.18 87.64 Z M 103.69 100.00 L 103.69 71.37 L 107.21 71.37 L 107.21 100.00 Z M 112.58 100.00 L 112.58 71.37 L 116.09 71.37 L 116.09 100.00 Z M 120.23 89.63 Q 120.23 83.87 123.44 81.09 Q 126.11 78.79 129.96 78.79 Q 134.24 78.79 139.67 84.39 Q 139.67 84.39 139.67 89.34 Q 139.67 93.34 137.27 97.93 Q 137.27 97.93 132.68 100.47 Q 132.68 100.47 129.96 100.47 Q 125.61 100.47 120.23 94.88 Q 120.23 94.88 120.23 89.63 Z M 123.85 89.63 Q 123.85 93.61 127.32 97.58 Q 127.32 97.58 129.96 97.58 Q 132.58 97.58 136.05 93.59 Q 136.05 93.59 136.05 89.51 Q 136.05 85.66 132.56 81.70 Q 132.56 81.70 129.96 81.70 Q 127.32 81.70 123.85 85.64 Q 123.85 85.64 123.85 89.63 Z M 160.35 100.00 L 152.75 71.37 L 156.64 71.37 L 161.00 90.14 Q 161.70 93.09 162.21 96.00 Q 163.30 91.41 163.50 90.70 L 168.95 71.37 L 173.52 71.37 L 177.62 85.86 Q 179.16 91.25 179.84 96.00 Q 180.39 93.28 181.27 89.77 L 185.76 71.37 L 189.57 71.37 L 181.72 100.00 L 178.07 100.00 L 172.03 78.18 Q 171.27 75.45 171.13 74.82 Q 170.68 76.80 170.29 78.18 L 164.22 100.00 Z M 190.62 89.63 Q 190.62 83.87 193.83 81.09 Q 196.50 78.79 200.35 78.79 Q 204.63 78.79 210.06 84.39 Q 210.06 84.39 210.06 89.34 Q 210.06 93.34 207.66 97.93 Q 207.66 97.93 203.07 100.47 Q 203.07 100.47 200.35 100.47 Q 196.00 100.47 190.62 94.88 Q 190.62 94.88 190.62 89.63 Z M 194.24 89.63 Q 194.24 93.61 197.71 97.58 Q 197.71 97.58 200.35 97.58 Q 202.97 97.58 206.45 93.59 Q 206.45 93.59 206.45 89.51 Q 206.45 85.66 202.95 81.70 Q 202.95 81.70 200.35 81.70 Q 197.71 81.70 194.24 85.64 Q 194.24 85.64 194.24 89.63 Z M 214.14 100.00 L 214.14 79.26 L 217.30 79.26 L 217.30 82.40 Q 218.52 80.20 220.57 78.79 Q 220.57 78.79 221.80 78.79 Q 223.57 78.79 225.41 79.92 L 224.20 83.18 Q 222.91 82.42 221.62 82.42 Q 220.47 82.42 218.63 83.81 Q 218.63 83.81 218.24 85.04 Q 217.66 86.91 217.66 89.14 L 217.66 100.00 Z M 227.42 100.00 L 227.42 71.37 L 230.94 71.37 L 230.94 100.00 Z M 249.84 100.00 L 249.84 97.38 Q 247.87 100.47 244.04 100.47 Q 241.56 100.47 237.40 97.73 Q 237.40 97.73 235.12 92.83 Q 235.12 92.83 235.12 89.65 Q 235.12 86.54 237.19 81.48 Q 237.19 81.48 241.33 78.79 Q 241.33 78.79 243.89 78.79 Q 245.76 78.79 248.69 80.37 Q 248.69 80.37 249.61 81.64 L 249.61 71.37 L 253.11 71.37 L 253.11 100.00 Z M 238.73 89.65 Q 238.73 93.63 242.09 97.58 Q 242.09 97.58 244.38 97.58 Q 246.68 97.58 249.90 93.81 Q 249.90 93.81 249.90 89.94 Q 249.90 85.68 246.62 81.70 Q 246.62 81.70 244.22 81.70 Q 241.88 81.70 238.73 85.53 Q 238.73 85.53 238.73 89.65 Z" /></svg>