<?xml version='1.0' encoding='utf-8'?>
<svg xmlns="http://www.w3.org/2000/svg" width="400" height="200" viewBox="0 0 400 200">
  <rect width="400" height="200" fill="#f8f9fa" />

  
  <path d="M 200.65 25.81 L 203.18 25.56 Q 203.41 26.84 204.11 27.43 Q 204.81 28.03 205.99 28.03 Q 207.25 28.03 207.89 27.50 Q 208.53 26.97 208.53 26.26 Q 208.53 25.80 208.26 25.48 Q 207.99 25.16 207.32 24.92 Q 206.86 24.76 205.24 24.36 Q 203.15 23.84 202.30 23.08 Q 201.12 22.02 201.12 20.49 Q 201.12 19.51 201.67 18.65 Q 202.23 17.79 203.28 17.34 Q 204.33 16.90 205.82 16.90 Q 208.24 16.90 209.47 17.96 Q 210.70 19.02 210.76 20.80 L 208.16 20.91 Q 207.99 19.92 207.44 19.48 Q 206.89 19.05 205.79 19.05 Q 204.66 19.05 204.02 19.51 Q 203.60 19.81 203.60 20.31 Q 203.60 20.77 203.99 21.10 Q 204.48 21.51 206.38 21.96 Q 208.28 22.41 209.19 22.89 Q 210.10 23.36 210.61 24.19 Q 211.13 25.03 211.13 26.25 Q 211.13 27.35 210.51 28.32 Q 209.90 29.29 208.77 29.76 Q 207.65 30.23 205.97 30.23 Q 203.52 30.23 202.21 29.10 Q 200.91 27.97 200.65 25.81 Z M 204.70 30.00 L 200.10 17.12 L 202.92 17.12 L 206.18 26.65 L 209.33 17.12 L 212.09 17.12 L 207.48 30.00 Z M 207.51 25.26 L 207.51 23.09 L 213.12 23.09 L 213.12 28.22 Q 212.30 29.02 210.75 29.62 Q 209.20 30.22 207.61 30.22 Q 205.59 30.22 204.09 29.37 Q 202.58 28.52 201.83 26.95 Q 201.07 25.37 201.07 23.51 Q 201.07 21.50 201.92 19.94 Q 202.76 18.37 204.39 17.54 Q 205.62 16.90 207.47 16.90 Q 209.87 16.90 211.22 17.90 Q 212.57 18.91 212.96 20.68 L 210.37 21.17 Q 210.10 20.22 209.35 19.67 Q 208.60 19.12 207.47 19.12 Q 205.77 19.12 204.76 20.20 Q 203.75 21.28 203.75 23.41 Q 203.75 25.70 204.77 26.85 Q 205.79 28.00 207.44 28.00 Q 208.26 28.00 209.08 27.68 Q 209.91 27.35 210.49 26.90 L 210.49 25.26 Z M 204.59 30.00 L 204.59 19.29 L 200.76 19.29 L 200.76 17.12 L 211.00 17.12 L 211.00 19.29 L 207.19 19.29 L 207.19 30.00 Z M 207.16 27.03 L 209.62 27.44 Q 209.15 28.80 208.12 29.50 Q 207.10 30.21 205.56 30.21 Q 203.13 30.21 201.96 28.62 Q 201.03 27.35 201.03 25.40 Q 201.03 23.08 202.25 21.77 Q 203.46 20.46 205.31 20.46 Q 207.40 20.46 208.60 21.83 Q 209.81 23.21 209.75 26.04 L 203.57 26.04 Q 203.59 27.14 204.16 27.75 Q 204.73 28.37 205.59 28.37 Q 206.17 28.37 206.56 28.05 Q 206.96 27.73 207.16 27.03 Z M 207.30 24.53 Q 207.27 23.46 206.75 22.90 Q 206.22 22.34 205.46 22.34 Q 204.66 22.34 204.13 22.93 Q 203.60 23.52 203.61 24.53 Z M 200.66 30.00 L 204.02 25.19 L 200.80 20.67 L 203.81 20.67 L 205.46 23.23 L 207.20 20.67 L 210.10 20.67 L 206.94 25.09 L 210.39 30.00 L 207.36 30.00 L 205.46 27.11 L 203.55 30.00 Z M 206.21 20.67 L 206.21 22.63 L 204.52 22.63 L 204.52 26.40 Q 204.52 27.54 204.57 27.73 Q 204.62 27.92 204.79 28.04 Q 204.96 28.16 205.21 28.16 Q 205.55 28.16 206.20 27.93 L 206.41 29.84 Q 205.55 30.21 204.46 30.21 Q 203.79 30.21 203.26 29.99 Q 202.72 29.76 202.47 29.41 Q 202.22 29.05 202.12 28.44 Q 202.05 28.01 202.05 26.70 L 202.05 22.63 L 200.91 22.63 L 200.91 20.67 L 202.05 20.67 L 202.05 18.81 L 204.52 17.37 L 204.52 20.67 Z M 202.05 30.00 L 202.05 17.12 L 211.60 17.12 L 211.60 19.29 L 204.65 19.29 L 204.65 22.15 L 211.12 22.15 L 211.12 24.32 L 204.65 24.32 L 204.65 27.83 L 211.85 27.83 L 211.85 30.00 Z M 202.13 30.00 L 202.13 17.12 L 204.60 17.12 L 204.60 30.00 Z M 207.58 27.03 L 210.04 27.44 Q 209.57 28.80 208.54 29.50 Q 207.52 30.21 205.98 30.21 Q 203.55 30.21 202.38 28.62 Q 201.46 27.35 201.46 25.40 Q 201.46 23.08 202.67 21.77 Q 203.88 20.46 205.74 20.46 Q 207.82 20.46 209.02 21.83 Q 210.23 23.21 210.18 26.04 L 203.99 26.04 Q 204.01 27.14 204.59 27.75 Q 205.16 28.37 206.01 28.37 Q 206.59 28.37 206.98 28.05 Q 207.38 27.73 207.58 27.03 Z M 207.72 24.53 Q 207.70 23.46 207.17 22.90 Q 206.64 22.34 205.89 22.34 Q 205.08 22.34 204.55 22.93 Q 204.02 23.52 204.03 24.53 Z M 202.08 20.67 L 204.36 20.67 L 204.36 21.94 Q 205.58 20.46 207.27 20.46 Q 208.16 20.46 208.82 20.82 Q 209.48 21.19 209.90 21.94 Q 210.52 21.19 211.23 20.82 Q 211.94 20.46 212.75 20.46 Q 213.78 20.46 214.49 20.87 Q 215.20 21.29 215.55 22.10 Q 215.81 22.70 215.81 24.03 L 215.81 30.00 L 213.34 30.00 L 213.34 24.67 Q 213.34 23.28 213.08 22.87 Q 212.74 22.34 212.03 22.34 Q 211.51 22.34 211.05 22.66 Q 210.60 22.98 210.39 23.59 Q 210.19 24.20 210.19 25.52 L 210.19 30.00 L 207.72 30.00 L 207.72 24.88 Q 207.72 23.52 207.59 23.13 Q 207.46 22.73 207.18 22.54 Q 206.91 22.34 206.43 22.34 Q 205.86 22.34 205.40 22.65 Q 204.95 22.96 204.75 23.54 Q 204.55 24.12 204.55 25.46 L 204.55 30.00 L 202.08 30.00 Z M 207.81 27.03 L 210.27 27.44 Q 209.80 28.80 208.77 29.50 Q 207.75 30.21 206.21 30.21 Q 203.78 30.21 202.61 28.62 Q 201.69 27.35 201.69 25.40 Q 201.69 23.08 202.90 21.77 Q 204.11 20.46 205.97 20.46 Q 208.05 20.46 209.25 21.83 Q 210.46 23.21 210.40 26.04 L 204.22 26.04 Q 204.24 27.14 204.81 27.75 Q 205.39 28.37 206.24 28.37 Q 206.82 28.37 207.21 28.05 Q 207.61 27.73 207.81 27.03 Z M 207.95 24.53 Q 207.93 23.46 207.40 22.90 Q 206.87 22.34 206.11 22.34 Q 205.31 22.34 204.78 22.93 Q 204.25 23.52 204.26 24.53 Z M 210.98 30.00 L 208.51 30.00 L 208.51 25.24 Q 208.51 23.72 208.36 23.28 Q 208.20 22.84 207.84 22.59 Q 207.49 22.34 206.98 22.34 Q 206.34 22.34 205.83 22.70 Q 205.32 23.05 205.13 23.63 Q 204.95 24.21 204.95 25.77 L 204.95 30.00 L 202.48 30.00 L 202.48 20.67 L 204.77 20.67 L 204.77 22.04 Q 205.99 20.46 207.85 20.46 Q 208.66 20.46 209.34 20.75 Q 210.02 21.04 210.36 21.50 Q 210.71 21.96 210.85 22.54 Q 210.98 23.12 210.98 24.20 Z M 206.87 20.67 L 206.87 22.63 L 205.18 22.63 L 205.18 26.40 Q 205.18 27.54 205.23 27.73 Q 205.28 27.92 205.45 28.04 Q 205.62 28.16 205.87 28.16 Q 206.21 28.16 206.86 27.93 L 207.07 29.84 Q 206.21 30.21 205.12 30.21 Q 204.45 30.21 203.92 29.99 Q 203.38 29.76 203.13 29.41 Q 202.88 29.05 202.78 28.44 Q 202.70 28.01 202.70 26.70 L 202.70 22.63 L 201.57 22.63 L 201.57 20.67 L 202.70 20.67 L 202.70 18.81 L 205.18 17.37 L 205.18 20.67 Z M 201.77 27.34 L 204.25 26.96 Q 204.41 27.68 204.89 28.05 Q 205.38 28.43 206.25 28.43 Q 207.20 28.43 207.69 28.08 Q 208.01 27.83 208.01 27.42 Q 208.01 27.13 207.84 26.95 Q 207.65 26.77 207.01 26.62 Q 204.02 25.97 203.22 25.42 Q 202.12 24.67 202.12 23.32 Q 202.12 22.11 203.07 21.28 Q 204.03 20.46 206.04 20.46 Q 207.96 20.46 208.89 21.08 Q 209.82 21.70 210.18 22.92 L 207.85 23.36 Q 207.70 22.81 207.28 22.52 Q 206.86 22.23 206.09 22.23 Q 205.11 22.23 204.69 22.50 Q 204.41 22.70 204.41 23.00 Q 204.41 23.27 204.66 23.45 Q 204.99 23.70 206.96 24.15 Q 208.94 24.59 209.72 25.25 Q 210.49 25.90 210.49 27.08 Q 210.49 28.37 209.42 29.29 Q 208.35 30.21 206.25 30.21 Q 204.34 30.21 203.23 29.44 Q 202.12 28.66 201.77 27.34 Z" transform="translate(-0.7196044921875, 0)" fill="#333" /><path d="M 19.98 70.00 L 24.38 58.55 L 26.01 58.55 L 30.70 70.00 L 28.97 70.00 L 27.63 66.53 L 22.84 66.53 L 21.59 70.00 Z M 23.28 65.30 L 27.16 65.30 L 25.97 62.12 Q 25.42 60.68 25.16 59.75 Q 24.94 60.85 24.54 61.94 Z M 21.12 70.00 L 21.12 61.70 L 22.39 61.70 L 22.39 62.96 Q 22.87 62.08 23.28 61.80 Q 23.69 61.52 24.18 61.52 Q 24.90 61.52 25.63 61.97 L 25.15 63.27 Q 24.63 62.97 24.11 62.97 Q 23.65 62.97 23.29 63.25 Q 22.92 63.52 22.76 64.02 Q 22.53 64.77 22.53 65.66 L 22.53 70.00 Z M 21.19 60.16 L 21.19 58.55 L 22.59 58.55 L 22.59 60.16 Z M 21.19 70.00 L 21.19 61.70 L 22.59 61.70 L 22.59 70.00 Z M 26.62 68.98 Q 25.84 69.64 25.12 69.91 Q 24.40 70.19 23.57 70.19 Q 22.20 70.19 21.47 69.52 Q 20.73 68.85 20.73 67.81 Q 20.73 67.20 21.01 66.70 Q 21.29 66.20 21.73 65.89 Q 22.18 65.59 22.75 65.43 Q 23.16 65.32 24.00 65.22 Q 25.70 65.02 26.50 64.73 Q 26.51 64.45 26.51 64.37 Q 26.51 63.51 26.11 63.16 Q 25.57 62.68 24.51 62.68 Q 23.52 62.68 23.05 63.03 Q 22.57 63.38 22.35 64.26 L 20.97 64.07 Q 21.16 63.19 21.59 62.64 Q 22.02 62.10 22.83 61.81 Q 23.65 61.52 24.72 61.52 Q 25.78 61.52 26.44 61.77 Q 27.11 62.02 27.42 62.39 Q 27.73 62.77 27.86 63.35 Q 27.93 63.71 27.93 64.65 L 27.93 66.52 Q 27.93 68.48 28.02 69.00 Q 28.11 69.52 28.37 70.00 L 26.90 70.00 Q 26.68 69.56 26.62 68.98 Z M 26.50 65.84 Q 25.74 66.15 24.21 66.37 Q 23.34 66.49 22.98 66.65 Q 22.62 66.80 22.43 67.11 Q 22.23 67.41 22.23 67.77 Q 22.23 68.34 22.66 68.71 Q 23.08 69.09 23.90 69.09 Q 24.72 69.09 25.35 68.73 Q 25.98 68.38 26.28 67.76 Q 26.50 67.28 26.50 66.35 Z M 21.25 70.00 L 21.25 58.55 L 22.65 58.55 L 22.65 70.00 Z M 21.70 63.30 L 21.70 61.70 L 23.30 61.70 L 23.30 63.30 Z M 21.70 70.00 L 21.70 68.40 L 23.30 68.40 L 23.30 70.00 Z M 24.47 70.00 L 24.47 59.90 L 20.69 59.90 L 20.69 58.55 L 29.77 58.55 L 29.77 59.90 L 25.98 59.90 L 25.98 70.00 Z M 21.45 70.00 L 21.45 58.55 L 22.85 58.55 L 22.85 62.66 Q 23.84 61.52 25.34 61.52 Q 26.26 61.52 26.94 61.88 Q 27.62 62.24 27.91 62.88 Q 28.21 63.52 28.21 64.74 L 28.21 70.00 L 26.80 70.00 L 26.80 64.74 Q 26.80 63.69 26.34 63.21 Q 25.89 62.73 25.05 62.73 Q 24.43 62.73 23.87 63.05 Q 23.32 63.38 23.09 63.93 Q 22.85 64.48 22.85 65.46 L 22.85 70.00 Z M 27.20 67.33 L 28.65 67.51 Q 28.31 68.78 27.38 69.48 Q 26.45 70.19 25.00 70.19 Q 23.18 70.19 22.12 69.07 Q 21.05 67.95 21.05 65.92 Q 21.05 63.83 22.13 62.67 Q 23.21 61.52 24.92 61.52 Q 26.59 61.52 27.64 62.65 Q 28.70 63.78 28.70 65.84 Q 28.70 65.96 28.69 66.21 L 22.50 66.21 Q 22.58 67.58 23.28 68.30 Q 23.97 69.03 25.01 69.03 Q 25.78 69.03 26.33 68.62 Q 26.88 68.22 27.20 67.33 Z M 22.58 65.05 L 27.21 65.05 Q 27.12 64.01 26.68 63.48 Q 26.01 62.67 24.94 62.67 Q 23.97 62.67 23.31 63.32 Q 22.65 63.97 22.58 65.05 Z M 26.91 73.18 L 26.91 69.12 Q 26.58 69.58 25.99 69.88 Q 25.40 70.19 24.74 70.19 Q 23.26 70.19 22.20 69.01 Q 21.13 67.83 21.13 65.77 Q 21.13 64.52 21.56 63.53 Q 22.00 62.54 22.82 62.03 Q 23.65 61.52 24.63 61.52 Q 26.17 61.52 27.05 62.81 L 27.05 61.70 L 28.32 61.70 L 28.32 73.18 Z M 22.58 65.83 Q 22.58 67.43 23.25 68.23 Q 23.92 69.03 24.86 69.03 Q 25.76 69.03 26.40 68.27 Q 27.05 67.51 27.05 65.95 Q 27.05 64.30 26.37 63.46 Q 25.69 62.62 24.76 62.62 Q 23.85 62.62 23.21 63.40 Q 22.58 64.18 22.58 65.83 Z M 27.13 70.00 L 27.13 68.78 Q 26.16 70.19 24.50 70.19 Q 23.76 70.19 23.13 69.91 Q 22.49 69.62 22.18 69.20 Q 21.87 68.77 21.75 68.16 Q 21.66 67.74 21.66 66.84 L 21.66 61.70 L 23.07 61.70 L 23.07 66.30 Q 23.07 67.41 23.15 67.79 Q 23.29 68.34 23.72 68.66 Q 24.15 68.98 24.78 68.98 Q 25.41 68.98 25.97 68.65 Q 26.52 68.33 26.75 67.77 Q 26.98 67.21 26.98 66.15 L 26.98 61.70 L 28.39 61.70 L 28.39 70.00 Z M 21.77 60.16 L 21.77 58.55 L 23.18 58.55 L 23.18 60.16 Z M 21.77 70.00 L 21.77 61.70 L 23.18 61.70 L 23.18 70.00 Z M 27.20 66.96 L 28.59 67.14 Q 28.36 68.57 27.43 69.38 Q 26.49 70.19 25.13 70.19 Q 23.43 70.19 22.40 69.07 Q 21.36 67.96 21.36 65.88 Q 21.36 64.54 21.81 63.53 Q 22.25 62.52 23.16 62.02 Q 24.07 61.52 25.14 61.52 Q 26.49 61.52 27.35 62.20 Q 28.21 62.88 28.45 64.14 L 27.09 64.35 Q 26.89 63.52 26.40 63.09 Q 25.90 62.67 25.20 62.67 Q 24.13 62.67 23.47 63.43 Q 22.81 64.20 22.81 65.84 Q 22.81 67.52 23.45 68.27 Q 24.09 69.03 25.12 69.03 Q 25.95 69.03 26.50 68.52 Q 27.06 68.02 27.20 66.96 Z M 21.86 70.00 L 21.86 58.55 L 23.27 58.55 L 23.27 65.08 L 26.59 61.70 L 28.41 61.70 L 25.24 64.78 L 28.73 70.00 L 27.00 70.00 L 24.26 65.76 L 23.27 66.71 L 23.27 70.00 Z M 23.25 70.00 L 21.94 70.00 L 21.94 58.55 L 23.35 58.55 L 23.35 62.63 Q 24.24 61.52 25.62 61.52 Q 26.39 61.52 27.07 61.82 Q 27.75 62.13 28.20 62.69 Q 28.64 63.25 28.89 64.04 Q 29.14 64.83 29.14 65.73 Q 29.14 67.86 28.08 69.02 Q 27.03 70.19 25.55 70.19 Q 24.08 70.19 23.25 68.96 Z M 23.23 65.79 Q 23.23 67.28 23.64 67.95 Q 24.30 69.03 25.43 69.03 Q 26.36 69.03 27.03 68.23 Q 27.70 67.43 27.70 65.84 Q 27.70 64.22 27.05 63.45 Q 26.41 62.67 25.50 62.67 Q 24.57 62.67 23.90 63.47 Q 23.23 64.27 23.23 65.79 Z M 22.00 70.00 L 22.00 61.70 L 23.27 61.70 L 23.27 62.96 Q 23.75 62.08 24.16 61.80 Q 24.57 61.52 25.07 61.52 Q 25.78 61.52 26.51 61.97 L 26.03 63.27 Q 25.51 62.97 25.00 62.97 Q 24.53 62.97 24.17 63.25 Q 23.80 63.52 23.64 64.02 Q 23.41 64.77 23.41 65.66 L 23.41 70.00 Z M 21.54 65.85 Q 21.54 63.55 22.82 62.44 Q 23.89 61.52 25.43 61.52 Q 27.14 61.52 28.22 62.64 Q 29.31 63.76 29.31 65.73 Q 29.31 67.34 28.83 68.25 Q 28.35 69.17 27.43 69.68 Q 26.51 70.19 25.43 70.19 Q 23.69 70.19 22.61 69.07 Q 21.54 67.95 21.54 65.85 Z M 22.98 65.85 Q 22.98 67.45 23.68 68.24 Q 24.37 69.03 25.43 69.03 Q 26.47 69.03 27.17 68.23 Q 27.87 67.44 27.87 65.80 Q 27.87 64.27 27.17 63.47 Q 26.47 62.68 25.43 62.68 Q 24.37 62.68 23.68 63.47 Q 22.98 64.26 22.98 65.85 Z M 23.66 70.00 L 21.12 61.70 L 22.58 61.70 L 23.90 66.49 L 24.39 68.27 Q 24.42 68.14 24.82 66.56 L 26.14 61.70 L 27.58 61.70 L 28.83 66.52 L 29.24 68.10 L 29.72 66.50 L 31.14 61.70 L 32.51 61.70 L 29.91 70.00 L 28.45 70.00 L 27.13 65.03 L 26.81 63.62 L 25.13 70.00 Z M 22.22 70.00 L 22.22 61.70 L 23.49 61.70 L 23.49 62.88 Q 24.40 61.52 26.13 61.52 Q 26.88 61.52 27.51 61.79 Q 28.13 62.05 28.45 62.49 Q 28.76 62.93 28.88 63.53 Q 28.96 63.92 28.96 64.90 L 28.96 70.00 L 27.56 70.00 L 27.56 64.95 Q 27.56 64.09 27.39 63.67 Q 27.23 63.24 26.81 62.99 Q 26.39 62.73 25.83 62.73 Q 24.93 62.73 24.28 63.30 Q 23.63 63.88 23.63 65.47 L 23.63 70.00 Z M 22.66 70.00 L 22.66 62.80 L 21.42 62.80 L 21.42 61.70 L 22.66 61.70 L 22.66 60.82 Q 22.66 59.98 22.81 59.58 Q 23.01 59.03 23.52 58.69 Q 24.04 58.35 24.96 58.35 Q 25.55 58.35 26.27 58.49 L 26.06 59.72 Q 25.62 59.64 25.23 59.64 Q 24.59 59.64 24.32 59.91 Q 24.06 60.19 24.06 60.94 L 24.06 61.70 L 25.68 61.70 L 25.68 62.80 L 24.06 62.80 L 24.06 70.00 Z M 21.84 65.85 Q 21.84 63.55 23.12 62.44 Q 24.19 61.52 25.73 61.52 Q 27.44 61.52 28.52 62.64 Q 29.61 63.76 29.61 65.73 Q 29.61 67.34 29.13 68.25 Q 28.65 69.17 27.73 69.68 Q 26.81 70.19 25.73 70.19 Q 23.98 70.19 22.91 69.07 Q 21.84 67.95 21.84 65.85 Z M 23.28 65.85 Q 23.28 67.45 23.98 68.24 Q 24.67 69.03 25.73 69.03 Q 26.77 69.03 27.47 68.23 Q 28.16 67.44 28.16 65.80 Q 28.16 64.27 27.47 63.47 Q 26.77 62.68 25.73 62.68 Q 24.67 62.68 23.98 63.47 Q 23.28 64.26 23.28 65.85 Z M 21.49 70.00 L 24.52 65.69 L 21.72 61.70 L 23.48 61.70 L 24.75 63.65 Q 25.11 64.20 25.33 64.58 Q 25.67 64.06 25.96 63.66 L 27.36 61.70 L 29.04 61.70 L 26.17 65.61 L 29.26 70.00 L 27.53 70.00 L 25.83 67.42 L 25.37 66.73 L 23.19 70.00 Z" fill="#2563eb" /><path d="M 29.26 89.41 L 29.38 91.89 L 29.08 91.89 Q 28.99 91.23 28.84 90.95 Q 28.60 90.50 28.20 90.29 Q 27.80 90.07 27.14 90.07 L 25.65 90.07 L 25.65 98.16 Q 25.65 99.14 25.86 99.38 Q 26.16 99.71 26.77 99.71 L 27.14 99.71 L 27.14 100.00 L 22.65 100.00 L 22.65 99.71 L 23.02 99.71 Q 23.70 99.71 23.98 99.30 Q 24.15 99.05 24.15 98.16 L 24.15 90.07 L 22.88 90.07 Q 22.13 90.07 21.82 90.18 Q 21.41 90.33 21.12 90.75 Q 20.84 91.17 20.78 91.89 L 20.48 91.89 L 20.61 89.41 Z M 22.39 88.89 Q 22.72 88.89 22.95 89.12 Q 23.18 89.35 23.18 89.68 Q 23.18 90.01 22.95 90.24 Q 22.72 90.48 22.39 90.48 Q 22.06 90.48 21.83 90.24 Q 21.60 90.01 21.60 89.68 Q 21.60 89.35 21.83 89.12 Q 22.06 88.89 22.39 88.89 Z M 23.04 92.63 L 23.04 98.38 Q 23.04 99.05 23.14 99.28 Q 23.24 99.50 23.43 99.61 Q 23.62 99.72 24.13 99.72 L 24.13 100.00 L 20.65 100.00 L 20.65 99.72 Q 21.17 99.72 21.35 99.62 Q 21.53 99.52 21.64 99.28 Q 21.74 99.05 21.74 98.38 L 21.74 95.62 Q 21.74 94.46 21.67 94.12 Q 21.62 93.87 21.50 93.77 Q 21.38 93.67 21.18 93.67 Q 20.96 93.67 20.65 93.79 L 20.54 93.51 L 22.70 92.63 Z M 22.73 94.16 Q 23.51 93.38 23.65 93.26 Q 24.01 92.96 24.41 92.80 Q 24.82 92.63 25.22 92.63 Q 25.89 92.63 26.37 93.02 Q 26.86 93.41 27.02 94.16 Q 27.83 93.22 28.38 92.93 Q 28.93 92.63 29.52 92.63 Q 30.09 92.63 30.53 92.93 Q 30.97 93.22 31.23 93.88 Q 31.40 94.34 31.40 95.30 L 31.40 98.38 Q 31.40 99.05 31.51 99.30 Q 31.58 99.48 31.79 99.60 Q 32.01 99.72 32.48 99.72 L 32.48 100.00 L 28.95 100.00 L 28.95 99.72 L 29.10 99.72 Q 29.56 99.72 29.82 99.54 Q 30.00 99.41 30.08 99.14 Q 30.11 99.01 30.11 98.38 L 30.11 95.30 Q 30.11 94.43 29.90 94.07 Q 29.59 93.57 28.92 93.57 Q 28.51 93.57 28.09 93.78 Q 27.67 93.98 27.08 94.55 L 27.06 94.63 L 27.08 94.97 L 27.08 98.38 Q 27.08 99.12 27.16 99.30 Q 27.24 99.48 27.47 99.60 Q 27.69 99.72 28.24 99.72 L 28.24 100.00 L 24.62 100.00 L 24.62 99.72 Q 25.22 99.72 25.44 99.58 Q 25.66 99.44 25.75 99.16 Q 25.79 99.02 25.79 98.38 L 25.79 95.30 Q 25.79 94.43 25.53 94.05 Q 25.18 93.55 24.57 93.55 Q 24.15 93.55 23.73 93.77 Q 23.08 94.12 22.73 94.55 L 22.73 98.38 Q 22.73 99.09 22.83 99.30 Q 22.93 99.51 23.12 99.61 Q 23.31 99.72 23.90 99.72 L 23.90 100.00 L 20.36 100.00 L 20.36 99.72 Q 20.85 99.72 21.04 99.61 Q 21.24 99.51 21.34 99.28 Q 21.44 99.05 21.44 98.38 L 21.44 95.65 Q 21.44 94.47 21.37 94.12 Q 21.32 93.87 21.20 93.77 Q 21.08 93.67 20.88 93.67 Q 20.66 93.67 20.36 93.79 L 20.24 93.51 L 22.40 92.63 L 22.73 92.63 Z M 21.91 95.54 Q 21.90 97.13 22.68 98.04 Q 23.46 98.95 24.52 98.95 Q 25.22 98.95 25.74 98.56 Q 26.26 98.17 26.61 97.23 L 26.85 97.39 Q 26.69 98.46 25.90 99.34 Q 25.11 100.22 23.92 100.22 Q 22.63 100.22 21.72 99.21 Q 20.80 98.21 20.80 96.52 Q 20.80 94.68 21.74 93.65 Q 22.68 92.62 24.10 92.62 Q 25.31 92.62 26.08 93.42 Q 26.85 94.21 26.85 95.54 Z M 21.91 95.09 L 25.22 95.09 Q 25.18 94.40 25.06 94.12 Q 24.86 93.68 24.47 93.43 Q 24.09 93.18 23.67 93.18 Q 23.02 93.18 22.50 93.68 Q 21.99 94.19 21.91 95.09 Z M 25.38 92.63 L 25.38 95.07 L 25.13 95.07 Q 24.83 93.92 24.37 93.51 Q 23.90 93.09 23.18 93.09 Q 22.63 93.09 22.30 93.38 Q 21.96 93.67 21.96 94.02 Q 21.96 94.46 22.21 94.77 Q 22.45 95.09 23.20 95.45 L 24.34 96.01 Q 25.92 96.78 25.92 98.05 Q 25.92 99.02 25.19 99.62 Q 24.45 100.22 23.53 100.22 Q 22.88 100.22 22.03 99.98 Q 21.78 99.91 21.61 99.91 Q 21.43 99.91 21.33 100.11 L 21.07 100.11 L 21.07 97.55 L 21.33 97.55 Q 21.55 98.65 22.17 99.20 Q 22.78 99.76 23.55 99.76 Q 24.09 99.76 24.43 99.44 Q 24.77 99.12 24.77 98.68 Q 24.77 98.14 24.39 97.77 Q 24.01 97.41 22.88 96.84 Q 21.74 96.28 21.39 95.83 Q 21.04 95.38 21.04 94.70 Q 21.04 93.82 21.65 93.23 Q 22.25 92.63 23.21 92.63 Q 23.63 92.63 24.24 92.81 Q 24.63 92.93 24.77 92.93 Q 24.89 92.93 24.96 92.88 Q 25.03 92.82 25.13 92.63 Z M 22.57 92.62 Q 22.93 92.62 23.18 92.88 Q 23.43 93.13 23.43 93.49 Q 23.43 93.85 23.18 94.11 Q 22.93 94.36 22.57 94.36 Q 22.21 94.36 21.95 94.11 Q 21.70 93.85 21.70 93.49 Q 21.70 93.13 21.95 92.88 Q 22.21 92.62 22.57 92.62 Z M 22.55 98.48 Q 22.92 98.48 23.17 98.73 Q 23.43 98.99 23.43 99.35 Q 23.43 99.71 23.17 99.96 Q 22.91 100.22 22.55 100.22 Q 22.19 100.22 21.94 99.96 Q 21.68 99.71 21.68 99.35 Q 21.68 98.99 21.94 98.73 Q 22.19 98.48 22.55 98.48 Z M 29.63 89.41 L 29.75 91.89 L 29.45 91.89 Q 29.36 91.23 29.22 90.95 Q 28.97 90.50 28.57 90.29 Q 28.17 90.07 27.51 90.07 L 26.02 90.07 L 26.02 98.16 Q 26.02 99.14 26.23 99.38 Q 26.53 99.71 27.15 99.71 L 27.51 99.71 L 27.51 100.00 L 23.02 100.00 L 23.02 99.71 L 23.40 99.71 Q 24.07 99.71 24.35 99.30 Q 24.52 99.05 24.52 98.16 L 24.52 90.07 L 23.25 90.07 Q 22.51 90.07 22.19 90.18 Q 21.79 90.33 21.50 90.75 Q 21.21 91.17 21.15 91.89 L 20.86 91.89 L 20.98 89.41 Z M 23.05 88.89 L 23.05 94.12 Q 23.92 93.17 24.43 92.90 Q 24.93 92.63 25.44 92.63 Q 26.05 92.63 26.49 92.97 Q 26.93 93.30 27.14 94.02 Q 27.28 94.52 27.28 95.85 L 27.28 98.38 Q 27.28 99.06 27.39 99.31 Q 27.47 99.50 27.66 99.61 Q 27.85 99.72 28.35 99.72 L 28.35 100.00 L 24.83 100.00 L 24.83 99.72 L 25.00 99.72 Q 25.50 99.72 25.69 99.57 Q 25.89 99.41 25.96 99.12 Q 25.99 98.99 25.99 98.38 L 25.99 95.85 Q 25.99 94.68 25.87 94.31 Q 25.75 93.95 25.48 93.76 Q 25.21 93.58 24.84 93.58 Q 24.46 93.58 24.04 93.78 Q 23.63 93.98 23.05 94.60 L 23.05 98.38 Q 23.05 99.12 23.13 99.30 Q 23.21 99.48 23.44 99.60 Q 23.66 99.72 24.21 99.72 L 24.21 100.00 L 20.66 100.00 L 20.66 99.72 Q 21.14 99.72 21.41 99.57 Q 21.57 99.49 21.66 99.27 Q 21.75 99.05 21.75 98.38 L 21.75 91.91 Q 21.75 90.68 21.69 90.40 Q 21.64 90.12 21.52 90.02 Q 21.39 89.91 21.19 89.91 Q 21.03 89.91 20.66 90.04 L 20.55 89.77 L 22.69 88.89 Z M 22.21 95.54 Q 22.21 97.13 22.99 98.04 Q 23.77 98.95 24.82 98.95 Q 25.53 98.95 26.05 98.56 Q 26.57 98.17 26.92 97.23 L 27.16 97.39 Q 27.00 98.46 26.21 99.34 Q 25.42 100.22 24.23 100.22 Q 22.94 100.22 22.02 99.21 Q 21.10 98.21 21.10 96.52 Q 21.10 94.68 22.05 93.65 Q 22.99 92.62 24.41 92.62 Q 25.61 92.62 26.39 93.42 Q 27.16 94.21 27.16 95.54 Z M 22.21 95.09 L 25.53 95.09 Q 25.49 94.40 25.36 94.12 Q 25.17 93.68 24.78 93.43 Q 24.39 93.18 23.97 93.18 Q 23.32 93.18 22.81 93.68 Q 22.30 94.19 22.21 95.09 Z M 27.43 92.63 L 27.43 101.84 Q 27.43 102.52 27.53 102.72 Q 27.62 102.91 27.82 103.02 Q 28.02 103.13 28.60 103.13 L 28.60 103.42 L 24.99 103.42 L 24.99 103.13 L 25.14 103.13 Q 25.57 103.13 25.80 103.01 Q 25.96 102.92 26.05 102.70 Q 26.14 102.48 26.14 101.84 L 26.14 98.76 Q 25.43 99.60 24.90 99.91 Q 24.37 100.22 23.80 100.22 Q 22.76 100.22 21.95 99.27 Q 21.13 98.33 21.13 96.74 Q 21.13 94.92 22.21 93.78 Q 23.29 92.63 24.81 92.63 Q 25.25 92.63 25.63 92.76 Q 26.00 92.88 26.30 93.13 Q 26.75 92.91 27.17 92.63 Z M 26.14 98.27 L 26.14 94.91 Q 26.14 94.32 25.99 93.98 Q 25.84 93.65 25.45 93.41 Q 25.06 93.18 24.57 93.18 Q 23.69 93.18 23.07 93.92 Q 22.44 94.66 22.44 96.17 Q 22.44 97.62 23.08 98.37 Q 23.72 99.12 24.61 99.12 Q 25.07 99.12 25.43 98.92 Q 25.79 98.72 26.14 98.27 Z M 27.43 92.84 L 27.43 97.18 Q 27.43 98.42 27.49 98.70 Q 27.55 98.98 27.68 99.09 Q 27.81 99.20 27.98 99.20 Q 28.22 99.20 28.53 99.06 L 28.64 99.34 L 26.50 100.22 L 26.14 100.22 L 26.14 98.70 Q 25.22 99.70 24.74 99.96 Q 24.25 100.22 23.72 100.22 Q 23.11 100.22 22.67 99.87 Q 22.23 99.52 22.06 98.98 Q 21.89 98.43 21.89 97.43 L 21.89 94.23 Q 21.89 93.73 21.78 93.53 Q 21.67 93.34 21.45 93.23 Q 21.24 93.12 20.68 93.13 L 20.68 92.84 L 23.18 92.84 L 23.18 97.63 Q 23.18 98.63 23.53 98.95 Q 23.88 99.26 24.37 99.26 Q 24.71 99.26 25.13 99.05 Q 25.56 98.84 26.14 98.24 L 26.14 94.19 Q 26.14 93.58 25.92 93.36 Q 25.70 93.15 25.00 93.13 L 25.00 92.84 Z M 23.04 88.89 Q 23.37 88.89 23.60 89.12 Q 23.83 89.35 23.83 89.68 Q 23.83 90.01 23.60 90.24 Q 23.37 90.48 23.04 90.48 Q 22.72 90.48 22.48 90.24 Q 22.25 90.01 22.25 89.68 Q 22.25 89.35 22.48 89.12 Q 22.71 88.89 23.04 88.89 Z M 23.69 92.63 L 23.69 98.38 Q 23.69 99.05 23.79 99.28 Q 23.89 99.50 24.08 99.61 Q 24.27 99.72 24.78 99.72 L 24.78 100.00 L 21.30 100.00 L 21.30 99.72 Q 21.82 99.72 22.00 99.62 Q 22.18 99.52 22.29 99.28 Q 22.39 99.05 22.39 98.38 L 22.39 95.62 Q 22.39 94.46 22.32 94.12 Q 22.27 93.87 22.15 93.77 Q 22.04 93.67 21.83 93.67 Q 21.61 93.67 21.30 93.79 L 21.19 93.51 L 23.35 92.63 Z M 27.34 97.28 Q 27.05 98.70 26.20 99.46 Q 25.36 100.22 24.34 100.22 Q 23.12 100.22 22.21 99.20 Q 21.30 98.17 21.30 96.43 Q 21.30 94.74 22.31 93.69 Q 23.31 92.63 24.72 92.63 Q 25.77 92.63 26.45 93.19 Q 27.13 93.75 27.13 94.35 Q 27.13 94.65 26.94 94.83 Q 26.75 95.02 26.41 95.02 Q 25.95 95.02 25.71 94.72 Q 25.58 94.55 25.54 94.09 Q 25.49 93.63 25.22 93.39 Q 24.95 93.16 24.46 93.16 Q 23.68 93.16 23.20 93.73 Q 22.57 94.50 22.57 95.76 Q 22.57 97.04 23.20 98.02 Q 23.83 99.00 24.90 99.00 Q 25.66 99.00 26.27 98.48 Q 26.70 98.12 27.11 97.17 Z M 23.43 88.89 L 23.43 96.02 L 25.25 94.35 Q 25.83 93.82 25.92 93.68 Q 25.99 93.59 25.99 93.49 Q 25.99 93.34 25.86 93.22 Q 25.73 93.11 25.43 93.09 L 25.43 92.84 L 28.54 92.84 L 28.54 93.09 Q 27.90 93.11 27.47 93.29 Q 27.05 93.47 26.54 93.93 L 24.70 95.62 L 26.54 97.95 Q 27.31 98.91 27.57 99.16 Q 27.95 99.53 28.23 99.64 Q 28.42 99.72 28.91 99.72 L 28.91 100.00 L 25.43 100.00 L 25.43 99.72 Q 25.73 99.71 25.83 99.63 Q 25.94 99.55 25.94 99.40 Q 25.94 99.22 25.63 98.82 L 23.43 96.02 L 23.43 98.39 Q 23.43 99.09 23.53 99.30 Q 23.63 99.52 23.81 99.62 Q 23.99 99.71 24.59 99.72 L 24.59 100.00 L 20.95 100.00 L 20.95 99.72 Q 21.49 99.72 21.77 99.59 Q 21.93 99.50 22.02 99.32 Q 22.13 99.06 22.13 98.43 L 22.13 91.91 Q 22.13 90.67 22.08 90.39 Q 22.02 90.12 21.90 90.01 Q 21.77 89.91 21.57 89.91 Q 21.41 89.91 21.08 90.04 L 20.95 89.77 L 23.07 88.89 Z M 23.37 94.08 Q 24.41 92.63 25.61 92.63 Q 26.71 92.63 27.53 93.57 Q 28.35 94.52 28.35 96.15 Q 28.35 98.05 27.09 99.22 Q 26.00 100.22 24.66 100.22 Q 24.04 100.22 23.40 99.99 Q 22.75 99.77 22.08 99.31 L 22.08 91.90 Q 22.08 90.68 22.02 90.40 Q 21.96 90.12 21.84 90.02 Q 21.71 89.91 21.52 89.91 Q 21.31 89.91 20.98 90.04 L 20.87 89.77 L 23.02 88.89 L 23.37 88.89 Z M 23.37 94.58 L 23.37 98.86 Q 23.77 99.25 24.19 99.45 Q 24.62 99.65 25.06 99.65 Q 25.77 99.65 26.39 98.87 Q 27.00 98.09 27.00 96.59 Q 27.00 95.22 26.39 94.48 Q 25.77 93.74 24.99 93.74 Q 24.58 93.74 24.16 93.95 Q 23.85 94.11 23.37 94.58 Z M 23.56 92.63 L 23.56 94.24 Q 24.46 92.63 25.41 92.63 Q 25.84 92.63 26.12 92.89 Q 26.40 93.16 26.40 93.50 Q 26.40 93.80 26.20 94.02 Q 25.99 94.23 25.71 94.23 Q 25.44 94.23 25.10 93.96 Q 24.76 93.69 24.59 93.69 Q 24.45 93.69 24.29 93.84 Q 23.94 94.16 23.56 94.90 L 23.56 98.33 Q 23.56 98.92 23.71 99.23 Q 23.81 99.44 24.07 99.58 Q 24.33 99.72 24.81 99.72 L 24.81 100.00 L 21.15 100.00 L 21.15 99.72 Q 21.70 99.72 21.96 99.55 Q 22.16 99.42 22.24 99.15 Q 22.27 99.02 22.27 98.39 L 22.27 95.62 Q 22.27 94.37 22.22 94.13 Q 22.17 93.89 22.04 93.78 Q 21.90 93.67 21.70 93.67 Q 21.45 93.67 21.15 93.79 L 21.07 93.51 L 23.24 92.63 Z M 25.01 92.63 Q 26.64 92.63 27.62 93.87 Q 28.46 94.92 28.46 96.29 Q 28.46 97.25 28.00 98.23 Q 27.53 99.22 26.73 99.72 Q 25.92 100.22 24.93 100.22 Q 23.31 100.22 22.35 98.93 Q 21.55 97.84 21.55 96.49 Q 21.55 95.51 22.04 94.54 Q 22.53 93.56 23.32 93.10 Q 24.12 92.63 25.01 92.63 Z M 24.77 93.14 Q 24.35 93.14 23.94 93.39 Q 23.52 93.63 23.26 94.25 Q 23.00 94.87 23.00 95.84 Q 23.00 97.40 23.62 98.53 Q 24.25 99.66 25.26 99.66 Q 26.02 99.66 26.51 99.04 Q 27.00 98.41 27.00 96.89 Q 27.00 94.98 26.18 93.89 Q 25.63 93.14 24.77 93.14 Z M 21.18 92.84 L 24.18 92.84 L 24.18 93.13 Q 23.76 93.16 23.63 93.28 Q 23.50 93.40 23.50 93.62 Q 23.50 93.86 23.64 94.20 L 25.17 98.32 L 26.71 94.97 L 26.30 93.91 Q 26.11 93.45 25.81 93.27 Q 25.64 93.16 25.17 93.13 L 25.17 92.84 L 28.57 92.84 L 28.57 93.13 Q 28.01 93.16 27.78 93.34 Q 27.62 93.46 27.62 93.73 Q 27.62 93.89 27.68 94.05 L 29.31 98.16 L 30.82 94.20 Q 30.97 93.78 30.97 93.53 Q 30.97 93.38 30.82 93.27 Q 30.67 93.15 30.22 93.13 L 30.22 92.84 L 32.48 92.84 L 32.48 93.13 Q 31.80 93.23 31.48 94.05 L 29.09 100.22 L 28.77 100.22 L 26.98 95.65 L 24.89 100.22 L 24.60 100.22 L 22.31 94.20 Q 22.08 93.63 21.86 93.43 Q 21.64 93.23 21.18 93.13 Z M 23.75 94.15 Q 25.01 92.63 26.15 92.63 Q 26.73 92.63 27.16 92.93 Q 27.58 93.22 27.83 93.89 Q 28.00 94.36 28.00 95.33 L 28.00 98.38 Q 28.00 99.06 28.11 99.30 Q 28.20 99.50 28.39 99.61 Q 28.58 99.72 29.09 99.72 L 29.09 100.00 L 25.55 100.00 L 25.55 99.72 L 25.70 99.72 Q 26.20 99.72 26.40 99.57 Q 26.60 99.41 26.68 99.12 Q 26.71 99.00 26.71 98.38 L 26.71 95.45 Q 26.71 94.48 26.46 94.04 Q 26.20 93.59 25.60 93.59 Q 24.67 93.59 23.75 94.61 L 23.75 98.38 Q 23.75 99.11 23.84 99.28 Q 23.95 99.51 24.14 99.61 Q 24.33 99.72 24.91 99.72 L 24.91 100.00 L 21.37 100.00 L 21.37 99.72 L 21.53 99.72 Q 22.08 99.72 22.27 99.44 Q 22.46 99.16 22.46 98.38 L 22.46 95.73 Q 22.46 94.44 22.40 94.16 Q 22.34 93.88 22.22 93.77 Q 22.10 93.67 21.90 93.67 Q 21.68 93.67 21.37 93.79 L 21.26 93.51 L 23.41 92.63 L 23.75 92.63 Z M 24.55 93.41 L 24.55 98.11 Q 24.55 99.11 24.77 99.38 Q 25.06 99.72 25.55 99.72 L 26.20 99.72 L 26.20 100.00 L 21.92 100.00 L 21.92 99.72 L 22.24 99.72 Q 22.55 99.72 22.81 99.56 Q 23.07 99.41 23.17 99.14 Q 23.27 98.88 23.27 98.11 L 23.27 93.41 L 21.87 93.41 L 21.87 92.84 L 23.27 92.84 L 23.27 92.38 Q 23.27 91.30 23.61 90.56 Q 23.95 89.82 24.66 89.36 Q 25.37 88.91 26.25 88.91 Q 27.07 88.91 27.76 89.44 Q 28.21 89.79 28.21 90.23 Q 28.21 90.46 28.01 90.67 Q 27.80 90.88 27.57 90.88 Q 27.39 90.88 27.19 90.75 Q 26.99 90.62 26.70 90.19 Q 26.41 89.77 26.17 89.62 Q 25.93 89.47 25.63 89.47 Q 25.27 89.47 25.02 89.66 Q 24.77 89.85 24.66 90.25 Q 24.55 90.66 24.55 92.33 L 24.55 92.84 L 26.40 92.84 L 26.40 93.41 Z M 25.30 92.63 Q 26.92 92.63 27.91 93.87 Q 28.74 94.92 28.74 96.29 Q 28.74 97.25 28.28 98.23 Q 27.82 99.22 27.01 99.72 Q 26.21 100.22 25.21 100.22 Q 23.60 100.22 22.64 98.93 Q 21.84 97.84 21.84 96.49 Q 21.84 95.51 22.33 94.54 Q 22.81 93.56 23.61 93.10 Q 24.41 92.63 25.30 92.63 Z M 25.06 93.14 Q 24.64 93.14 24.23 93.39 Q 23.81 93.63 23.55 94.25 Q 23.29 94.87 23.29 95.84 Q 23.29 97.40 23.91 98.53 Q 24.53 99.66 25.55 99.66 Q 26.31 99.66 26.80 99.04 Q 27.29 98.41 27.29 96.89 Q 27.29 94.98 26.47 93.89 Q 25.92 93.14 25.06 93.14 Z M 21.57 92.84 L 24.94 92.84 L 24.94 93.13 Q 24.62 93.13 24.49 93.24 Q 24.36 93.35 24.36 93.53 Q 24.36 93.72 24.64 94.11 Q 24.72 94.23 24.89 94.50 L 25.40 95.31 L 25.99 94.50 Q 26.55 93.73 26.55 93.52 Q 26.55 93.36 26.42 93.25 Q 26.28 93.13 25.99 93.13 L 25.99 92.84 L 28.41 92.84 L 28.41 93.13 Q 28.03 93.16 27.74 93.34 Q 27.36 93.61 26.70 94.50 L 25.72 95.80 L 27.50 98.37 Q 28.16 99.31 28.44 99.50 Q 28.72 99.70 29.17 99.72 L 29.17 100.00 L 25.79 100.00 L 25.79 99.72 Q 26.14 99.72 26.34 99.56 Q 26.49 99.45 26.49 99.27 Q 26.49 99.09 25.99 98.37 L 24.94 96.84 L 23.79 98.37 Q 23.26 99.08 23.26 99.21 Q 23.26 99.40 23.44 99.55 Q 23.61 99.70 23.96 99.72 L 23.96 100.00 L 21.63 100.00 L 21.63 99.72 Q 21.91 99.68 22.12 99.52 Q 22.42 99.30 23.12 98.37 L 24.62 96.38 L 23.26 94.41 Q 22.68 93.56 22.37 93.35 Q 22.05 93.13 21.57 93.13 Z" fill="#dc2626" /><path d="M 26.73 122.79 L 26.73 122.38 Q 26.73 122.18 26.81 122.09 Q 26.88 122.00 27.01 122.00 Q 27.14 122.00 27.22 122.09 Q 27.30 122.18 27.30 122.38 L 27.30 123.98 Q 27.30 124.19 27.22 124.28 Q 27.14 124.37 27.01 124.37 Q 26.90 124.37 26.82 124.29 Q 26.74 124.20 26.73 124.02 Q 26.69 123.44 26.10 123.00 Q 25.31 122.39 24.30 122.39 Q 23.64 122.39 23.05 122.69 Q 22.61 122.90 22.35 123.21 Q 21.90 123.74 21.63 124.39 Q 21.44 124.87 21.44 125.47 L 21.44 126.47 Q 21.44 127.76 22.37 128.70 Q 23.30 129.65 24.53 129.65 Q 25.27 129.65 25.85 129.33 Q 26.44 129.01 26.99 128.36 Q 27.10 128.22 27.25 128.22 Q 27.37 128.22 27.44 128.29 Q 27.52 128.37 27.52 128.48 Q 27.52 128.64 27.23 128.96 Q 26.67 129.59 25.96 129.91 Q 25.26 130.23 24.55 130.23 Q 23.92 130.23 23.28 129.99 Q 22.79 129.80 22.47 129.56 Q 22.15 129.31 21.68 128.73 Q 21.21 128.14 21.04 127.65 Q 20.87 127.15 20.87 126.55 L 20.87 125.39 Q 20.87 124.54 21.32 123.65 Q 21.78 122.77 22.57 122.29 Q 23.36 121.82 24.28 121.82 Q 25.70 121.82 26.73 122.79 Z M 27.47 127.05 Q 27.47 128.37 26.53 129.30 Q 25.59 130.23 24.26 130.23 Q 22.92 130.23 21.99 129.29 Q 21.05 128.36 21.05 127.05 Q 21.05 125.74 21.99 124.81 Q 22.92 123.88 24.26 123.88 Q 25.59 123.88 26.53 124.80 Q 27.47 125.73 27.47 127.05 Z M 26.89 127.05 Q 26.89 125.97 26.12 125.21 Q 25.35 124.46 24.25 124.46 Q 23.16 124.46 22.39 125.22 Q 21.62 125.98 21.62 127.05 Q 21.62 128.12 22.39 128.89 Q 23.16 129.65 24.25 129.65 Q 25.35 129.65 26.12 128.89 Q 26.89 128.13 26.89 127.05 Z M 26.28 130.00 L 26.28 129.16 Q 25.11 130.23 23.74 130.23 Q 22.90 130.23 22.46 129.77 Q 21.89 129.17 21.89 128.37 L 21.89 124.66 L 21.12 124.66 Q 20.91 124.66 20.83 124.58 Q 20.74 124.50 20.74 124.37 Q 20.74 124.24 20.83 124.16 Q 20.91 124.08 21.12 124.08 L 22.47 124.08 L 22.47 128.37 Q 22.47 128.93 22.82 129.29 Q 23.18 129.65 23.71 129.65 Q 25.11 129.65 26.28 128.37 L 26.28 124.66 L 25.22 124.66 Q 25.02 124.66 24.93 124.58 Q 24.84 124.50 24.84 124.37 Q 24.84 124.24 24.93 124.16 Q 25.02 124.08 25.22 124.08 L 26.86 124.08 L 26.86 129.43 L 27.34 129.43 Q 27.55 129.43 27.63 129.50 Q 27.72 129.58 27.72 129.71 Q 27.72 129.84 27.63 129.92 Q 27.55 130.00 27.34 130.00 Z M 23.69 124.08 L 23.69 125.53 Q 24.81 124.52 25.36 124.23 Q 25.92 123.94 26.39 123.94 Q 26.91 123.94 27.35 124.28 Q 27.79 124.63 27.79 124.80 Q 27.79 124.93 27.70 125.02 Q 27.62 125.11 27.49 125.11 Q 27.42 125.11 27.37 125.08 Q 27.32 125.06 27.19 124.93 Q 26.95 124.69 26.78 124.60 Q 26.60 124.51 26.43 124.51 Q 26.05 124.51 25.52 124.81 Q 24.99 125.11 23.69 126.28 L 23.69 129.43 L 26.23 129.43 Q 26.44 129.43 26.53 129.50 Q 26.62 129.58 26.62 129.71 Q 26.62 129.84 26.53 129.92 Q 26.44 130.00 26.23 130.00 L 21.72 130.00 Q 21.52 130.00 21.43 129.92 Q 21.34 129.84 21.34 129.72 Q 21.34 129.60 21.43 129.52 Q 21.51 129.45 21.72 129.45 L 23.11 129.45 L 23.11 124.66 L 22.05 124.66 Q 21.85 124.66 21.76 124.58 Q 21.67 124.50 21.67 124.37 Q 21.67 124.24 21.75 124.16 Q 21.84 124.08 22.05 124.08 Z M 24.71 121.13 L 24.71 122.62 L 23.87 122.62 L 23.87 121.13 Z M 24.73 124.08 L 24.73 129.43 L 26.99 129.43 Q 27.20 129.43 27.29 129.50 Q 27.38 129.58 27.38 129.71 Q 27.38 129.84 27.29 129.92 Q 27.20 130.00 26.99 130.00 L 21.90 130.00 Q 21.70 130.00 21.61 129.92 Q 21.52 129.84 21.52 129.71 Q 21.52 129.58 21.61 129.50 Q 21.70 129.43 21.90 129.43 L 24.16 129.43 L 24.16 124.66 L 22.49 124.66 Q 22.28 124.66 22.19 124.58 Q 22.10 124.50 22.10 124.37 Q 22.10 124.24 22.18 124.16 Q 22.27 124.08 22.49 124.08 Z M 27.59 127.18 L 21.74 127.18 Q 21.89 128.29 22.68 128.97 Q 23.46 129.65 24.61 129.65 Q 25.26 129.65 25.96 129.44 Q 26.67 129.23 27.11 128.88 Q 27.24 128.78 27.34 128.78 Q 27.44 128.78 27.53 128.86 Q 27.61 128.95 27.61 129.06 Q 27.61 129.18 27.50 129.29 Q 27.17 129.63 26.33 129.93 Q 25.50 130.23 24.61 130.23 Q 23.14 130.23 22.15 129.26 Q 21.16 128.29 21.16 126.92 Q 21.16 125.67 22.09 124.77 Q 23.01 123.88 24.38 123.88 Q 25.79 123.88 26.70 124.79 Q 27.61 125.71 27.59 127.18 Z M 27.01 126.60 Q 26.84 125.65 26.11 125.05 Q 25.39 124.46 24.38 124.46 Q 23.38 124.46 22.65 125.04 Q 21.93 125.63 21.75 126.60 Z M 23.86 124.08 L 23.86 125.53 Q 24.98 124.52 25.54 124.23 Q 26.09 123.94 26.57 123.94 Q 27.08 123.94 27.52 124.28 Q 27.96 124.63 27.96 124.80 Q 27.96 124.93 27.87 125.02 Q 27.79 125.11 27.66 125.11 Q 27.59 125.11 27.54 125.08 Q 27.50 125.06 27.37 124.93 Q 27.13 124.69 26.95 124.60 Q 26.77 124.51 26.60 124.51 Q 26.22 124.51 25.69 124.81 Q 25.16 125.11 23.86 126.28 L 23.86 129.43 L 26.40 129.43 Q 26.61 129.43 26.70 129.50 Q 26.79 129.58 26.79 129.71 Q 26.79 129.84 26.70 129.92 Q 26.61 130.00 26.40 130.00 L 21.90 130.00 Q 21.69 130.00 21.60 129.92 Q 21.51 129.84 21.51 129.72 Q 21.51 129.60 21.60 129.52 Q 21.68 129.45 21.90 129.45 L 23.28 129.45 L 23.28 124.66 L 22.22 124.66 Q 22.02 124.66 21.93 124.58 Q 21.84 124.50 21.84 124.37 Q 21.84 124.24 21.93 124.16 Q 22.01 124.08 22.22 124.08 Z M 24.48 124.08 L 24.73 124.08 Q 25.11 124.08 25.39 124.35 Q 25.66 124.63 25.66 125.00 Q 25.66 125.41 25.38 125.67 Q 25.11 125.94 24.73 125.94 L 24.48 125.94 Q 24.10 125.94 23.83 125.67 Q 23.55 125.39 23.55 125.02 Q 23.55 124.61 23.83 124.35 Q 24.11 124.08 24.48 124.08 Z M 24.48 128.35 L 24.73 128.35 Q 25.11 128.35 25.39 128.62 Q 25.66 128.89 25.66 129.28 Q 25.66 129.67 25.38 129.94 Q 25.11 130.21 24.73 130.21 L 24.48 130.21 Q 24.10 130.21 23.83 129.94 Q 23.55 129.67 23.55 129.28 Q 23.55 128.89 23.83 128.62 Q 24.11 128.35 24.48 128.35 Z M 25.00 122.58 L 25.00 129.43 L 26.49 129.43 Q 26.70 129.43 26.79 129.50 Q 26.87 129.58 26.87 129.71 Q 26.87 129.84 26.79 129.92 Q 26.70 130.00 26.49 130.00 L 22.93 130.00 Q 22.73 130.00 22.64 129.92 Q 22.55 129.84 22.55 129.71 Q 22.55 129.58 22.64 129.50 Q 22.73 129.43 22.93 129.43 L 24.42 129.43 L 24.42 122.58 L 22.07 122.58 L 22.07 124.57 Q 22.07 124.78 21.99 124.87 Q 21.91 124.96 21.78 124.96 Q 21.66 124.96 21.58 124.87 Q 21.49 124.78 21.49 124.57 L 21.49 122.00 L 27.93 122.00 L 27.93 124.57 Q 27.93 124.78 27.85 124.87 Q 27.77 124.96 27.64 124.96 Q 27.51 124.96 27.43 124.87 Q 27.35 124.78 27.35 124.57 L 27.35 122.58 Z M 22.89 121.42 L 22.89 124.96 Q 23.43 124.36 23.93 124.12 Q 24.44 123.88 25.06 123.88 Q 25.73 123.88 26.20 124.11 Q 26.67 124.35 26.98 124.84 Q 27.29 125.32 27.29 125.86 L 27.29 129.43 L 27.94 129.43 Q 28.15 129.43 28.23 129.50 Q 28.32 129.58 28.32 129.71 Q 28.32 129.84 28.23 129.92 Q 28.15 130.00 27.94 130.00 L 26.07 130.00 Q 25.86 130.00 25.77 129.92 Q 25.68 129.84 25.68 129.71 Q 25.68 129.58 25.77 129.50 Q 25.86 129.43 26.07 129.43 L 26.71 129.43 L 26.71 125.91 Q 26.71 125.28 26.27 124.87 Q 25.82 124.45 25.02 124.45 Q 24.39 124.45 23.94 124.76 Q 23.62 124.98 22.89 125.79 L 22.89 129.43 L 23.53 129.43 Q 23.74 129.43 23.83 129.50 Q 23.92 129.58 23.92 129.71 Q 23.92 129.84 23.83 129.92 Q 23.74 130.00 23.53 130.00 L 21.66 130.00 Q 21.46 130.00 21.37 129.92 Q 21.28 129.84 21.28 129.71 Q 21.28 129.58 21.37 129.50 Q 21.46 129.43 21.66 129.43 L 22.31 129.43 L 22.31 122.00 L 21.54 122.00 Q 21.33 122.00 21.24 121.92 Q 21.16 121.84 21.16 121.71 Q 21.16 121.58 21.24 121.50 Q 21.33 121.42 21.54 121.42 Z M 27.94 127.18 L 22.09 127.18 Q 22.24 128.29 23.02 128.97 Q 23.80 129.65 24.96 129.65 Q 25.60 129.65 26.31 129.44 Q 27.01 129.23 27.45 128.88 Q 27.58 128.78 27.68 128.78 Q 27.79 128.78 27.87 128.86 Q 27.95 128.95 27.95 129.06 Q 27.95 129.18 27.84 129.29 Q 27.52 129.63 26.68 129.93 Q 25.84 130.23 24.96 130.23 Q 23.48 130.23 22.49 129.26 Q 21.51 128.29 21.51 126.92 Q 21.51 125.67 22.43 124.77 Q 23.36 123.88 24.73 123.88 Q 26.14 123.88 27.04 124.79 Q 27.95 125.71 27.94 127.18 Z M 27.36 126.60 Q 27.19 125.65 26.46 125.05 Q 25.73 124.46 24.73 124.46 Q 23.72 124.46 23.00 125.04 Q 22.27 125.63 22.10 126.60 Z M 27.17 125.13 L 27.17 124.08 L 28.52 124.08 Q 28.73 124.08 28.82 124.16 Q 28.91 124.24 28.91 124.37 Q 28.91 124.50 28.82 124.58 Q 28.73 124.66 28.52 124.66 L 27.75 124.66 L 27.75 132.06 L 28.52 132.06 Q 28.73 132.06 28.82 132.14 Q 28.91 132.22 28.91 132.35 Q 28.91 132.47 28.82 132.56 Q 28.73 132.64 28.52 132.64 L 25.79 132.64 Q 25.58 132.64 25.49 132.56 Q 25.40 132.48 25.40 132.35 Q 25.40 132.22 25.49 132.14 Q 25.58 132.06 25.79 132.06 L 27.17 132.06 L 27.17 128.61 Q 26.22 129.86 24.68 129.86 Q 23.39 129.86 22.51 128.98 Q 21.62 128.10 21.62 126.86 Q 21.62 125.62 22.51 124.75 Q 23.39 123.88 24.69 123.88 Q 26.22 123.88 27.17 125.13 Z M 27.17 126.86 Q 27.17 125.87 26.45 125.16 Q 25.72 124.46 24.68 124.46 Q 23.65 124.46 22.92 125.16 Q 22.20 125.87 22.20 126.86 Q 22.20 127.85 22.92 128.56 Q 23.65 129.28 24.68 129.28 Q 25.72 129.28 26.45 128.56 Q 27.17 127.85 27.17 126.86 Z M 26.97 130.00 L 26.97 129.16 Q 25.79 130.23 24.43 130.23 Q 23.59 130.23 23.15 129.77 Q 22.58 129.17 22.58 128.37 L 22.58 124.66 L 21.81 124.66 Q 21.60 124.66 21.52 124.58 Q 21.43 124.50 21.43 124.37 Q 21.43 124.24 21.52 124.16 Q 21.60 124.08 21.81 124.08 L 23.16 124.08 L 23.16 128.37 Q 23.16 128.93 23.51 129.29 Q 23.87 129.65 24.40 129.65 Q 25.80 129.65 26.97 128.37 L 26.97 124.66 L 25.91 124.66 Q 25.71 124.66 25.62 124.58 Q 25.53 124.50 25.53 124.37 Q 25.53 124.24 25.62 124.16 Q 25.71 124.08 25.91 124.08 L 27.54 124.08 L 27.54 129.43 L 28.03 129.43 Q 28.24 129.43 28.32 129.50 Q 28.41 129.58 28.41 129.71 Q 28.41 129.84 28.32 129.92 Q 28.24 130.00 28.03 130.00 Z M 25.35 121.13 L 25.35 122.62 L 24.50 122.62 L 24.50 121.13 Z M 25.37 124.08 L 25.37 129.43 L 27.62 129.43 Q 27.83 129.43 27.92 129.50 Q 28.01 129.58 28.01 129.71 Q 28.01 129.84 27.92 129.92 Q 27.83 130.00 27.62 130.00 L 22.54 130.00 Q 22.33 130.00 22.24 129.92 Q 22.15 129.84 22.15 129.71 Q 22.15 129.58 22.24 129.50 Q 22.33 129.43 22.54 129.43 L 24.79 129.43 L 24.79 124.66 L 23.12 124.66 Q 22.91 124.66 22.82 124.58 Q 22.73 124.50 22.73 124.37 Q 22.73 124.24 22.82 124.16 Q 22.91 124.08 23.12 124.08 Z M 27.52 124.66 L 27.52 124.47 Q 27.52 124.26 27.60 124.17 Q 27.68 124.08 27.80 124.08 Q 27.93 124.08 28.02 124.17 Q 28.10 124.26 28.10 124.47 L 28.10 125.77 Q 28.09 125.98 28.01 126.07 Q 27.93 126.16 27.80 126.16 Q 27.69 126.16 27.61 126.08 Q 27.53 126.00 27.52 125.82 Q 27.48 125.33 26.88 124.89 Q 26.28 124.46 25.27 124.46 Q 23.99 124.46 23.33 125.26 Q 22.66 126.06 22.66 127.09 Q 22.66 128.20 23.39 128.93 Q 24.13 129.65 25.29 129.65 Q 25.96 129.65 26.65 129.41 Q 27.35 129.16 27.91 128.61 Q 28.05 128.48 28.16 128.48 Q 28.27 128.48 28.35 128.55 Q 28.43 128.63 28.43 128.75 Q 28.43 129.04 27.74 129.49 Q 26.63 130.23 25.26 130.23 Q 23.87 130.23 22.98 129.34 Q 22.09 128.46 22.09 127.09 Q 22.09 125.71 23.00 124.79 Q 23.91 123.88 25.30 123.88 Q 26.62 123.88 27.52 124.66 Z M 24.01 127.44 L 24.01 130.00 L 22.67 130.00 Q 22.46 130.00 22.37 129.92 Q 22.28 129.84 22.28 129.71 Q 22.28 129.58 22.37 129.50 Q 22.46 129.43 22.67 129.43 L 23.44 129.43 L 23.44 122.00 L 22.67 122.00 Q 22.46 122.00 22.37 121.92 Q 22.28 121.84 22.28 121.71 Q 22.28 121.58 22.37 121.50 Q 22.46 121.42 22.67 121.42 L 24.01 121.42 L 24.01 126.71 L 26.45 124.66 L 26.16 124.66 Q 25.95 124.66 25.86 124.58 Q 25.78 124.50 25.78 124.37 Q 25.78 124.24 25.86 124.16 Q 25.95 124.08 26.16 124.08 L 28.00 124.08 Q 28.21 124.08 28.30 124.16 Q 28.39 124.24 28.39 124.37 Q 28.39 124.50 28.30 124.58 Q 28.21 124.66 28.00 124.66 L 27.33 124.66 L 25.09 126.53 L 27.93 129.43 L 28.59 129.43 Q 28.80 129.43 28.89 129.50 Q 28.98 129.58 28.98 129.71 Q 28.98 129.84 28.89 129.92 Q 28.80 130.00 28.59 130.00 L 26.73 130.00 Q 26.53 130.00 26.44 129.92 Q 26.35 129.84 26.35 129.71 Q 26.35 129.58 26.44 129.50 Q 26.53 129.43 26.73 129.43 L 27.14 129.43 L 24.67 126.89 Z M 23.13 121.42 L 23.13 125.23 Q 24.17 123.88 25.64 123.88 Q 26.90 123.88 27.79 124.79 Q 28.69 125.70 28.69 127.03 Q 28.69 128.37 27.78 129.30 Q 26.88 130.23 25.64 130.23 Q 24.13 130.23 23.13 128.87 L 23.13 130.00 L 21.78 130.00 Q 21.58 130.00 21.49 129.92 Q 21.40 129.84 21.40 129.71 Q 21.40 129.58 21.49 129.50 Q 21.58 129.43 21.78 129.43 L 22.55 129.43 L 22.55 122.00 L 21.78 122.00 Q 21.58 122.00 21.49 121.92 Q 21.40 121.84 21.40 121.71 Q 21.40 121.58 21.49 121.50 Q 21.58 121.42 21.78 121.42 Z M 28.11 127.05 Q 28.11 125.97 27.37 125.21 Q 26.62 124.46 25.62 124.46 Q 24.63 124.46 23.88 125.21 Q 23.14 125.97 23.14 127.05 Q 23.14 128.14 23.88 128.90 Q 24.63 129.65 25.62 129.65 Q 26.62 129.65 27.37 128.90 Q 28.11 128.14 28.11 127.05 Z M 24.66 124.08 L 24.66 125.53 Q 25.78 124.52 26.34 124.23 Q 26.90 123.94 27.37 123.94 Q 27.88 123.94 28.32 124.28 Q 28.76 124.63 28.76 124.80 Q 28.76 124.93 28.68 125.02 Q 28.59 125.11 28.46 125.11 Q 28.40 125.11 28.35 125.08 Q 28.30 125.06 28.17 124.93 Q 27.93 124.69 27.75 124.60 Q 27.58 124.51 27.40 124.51 Q 27.03 124.51 26.50 124.81 Q 25.97 125.11 24.66 126.28 L 24.66 129.43 L 27.21 129.43 Q 27.42 129.43 27.51 129.50 Q 27.60 129.58 27.60 129.71 Q 27.60 129.84 27.51 129.92 Q 27.42 130.00 27.21 130.00 L 22.70 130.00 Q 22.50 130.00 22.41 129.92 Q 22.32 129.84 22.32 129.72 Q 22.32 129.60 22.40 129.52 Q 22.49 129.45 22.70 129.45 L 24.09 129.45 L 24.09 124.66 L 23.03 124.66 Q 22.82 124.66 22.74 124.58 Q 22.65 124.50 22.65 124.37 Q 22.65 124.24 22.73 124.16 Q 22.82 124.08 23.03 124.08 Z M 28.62 127.05 Q 28.62 128.37 27.68 129.30 Q 26.74 130.23 25.41 130.23 Q 24.07 130.23 23.13 129.29 Q 22.20 128.36 22.20 127.05 Q 22.20 125.74 23.13 124.81 Q 24.07 123.88 25.41 123.88 Q 26.74 123.88 27.68 124.80 Q 28.62 125.73 28.62 127.05 Z M 28.04 127.05 Q 28.04 125.97 27.27 125.21 Q 26.50 124.46 25.40 124.46 Q 24.31 124.46 23.54 125.22 Q 22.77 125.98 22.77 127.05 Q 22.77 128.12 23.54 128.89 Q 24.31 129.65 25.40 129.65 Q 26.50 129.65 27.27 128.89 Q 28.04 128.13 28.04 127.05 Z M 27.44 130.00 L 26.73 130.01 L 25.47 126.32 L 24.21 130.01 L 23.50 130.00 L 22.31 124.66 L 22.03 124.66 Q 21.82 124.66 21.74 124.58 Q 21.65 124.50 21.65 124.37 Q 21.65 124.24 21.74 124.16 Q 21.82 124.08 22.03 124.08 L 23.61 124.08 Q 23.81 124.08 23.90 124.16 Q 23.99 124.24 23.99 124.37 Q 23.99 124.50 23.90 124.58 Q 23.81 124.66 23.61 124.66 L 22.88 124.66 L 23.90 129.21 L 25.12 125.58 L 25.80 125.58 L 27.06 129.21 L 28.04 124.66 L 27.31 124.66 Q 27.11 124.66 27.02 124.58 Q 26.92 124.50 26.92 124.37 Q 26.92 124.24 27.01 124.16 Q 27.10 124.08 27.31 124.08 L 28.89 124.08 Q 29.10 124.08 29.19 124.16 Q 29.28 124.24 29.28 124.37 Q 29.28 124.50 29.19 124.58 Q 29.10 124.66 28.89 124.66 L 28.61 124.66 Z M 23.67 124.08 L 23.67 124.95 Q 24.27 124.34 24.75 124.11 Q 25.24 123.88 25.85 123.88 Q 26.50 123.88 27.04 124.16 Q 27.43 124.36 27.74 124.84 Q 28.05 125.31 28.05 125.81 L 28.05 129.43 L 28.53 129.43 Q 28.74 129.43 28.83 129.50 Q 28.92 129.58 28.92 129.71 Q 28.92 129.84 28.83 129.92 Q 28.74 130.00 28.53 130.00 L 27.00 130.00 Q 26.78 130.00 26.69 129.92 Q 26.61 129.84 26.61 129.71 Q 26.61 129.58 26.69 129.50 Q 26.78 129.43 27.00 129.43 L 27.47 129.43 L 27.47 125.91 Q 27.47 125.30 27.03 124.88 Q 26.59 124.46 25.84 124.46 Q 25.27 124.46 24.86 124.69 Q 24.44 124.91 23.67 125.82 L 23.67 129.43 L 24.32 129.43 Q 24.52 129.43 24.61 129.50 Q 24.70 129.58 24.70 129.71 Q 24.70 129.84 24.61 129.92 Q 24.52 130.00 24.32 130.00 L 22.44 130.00 Q 22.24 130.00 22.15 129.92 Q 22.06 129.84 22.06 129.71 Q 22.06 129.58 22.15 129.50 Q 22.24 129.43 22.44 129.43 L 23.09 129.43 L 23.09 124.66 L 22.61 124.66 Q 22.40 124.66 22.31 124.58 Q 22.22 124.50 22.22 124.37 Q 22.22 124.24 22.31 124.16 Q 22.40 124.08 22.61 124.08 Z M 25.26 124.66 L 25.26 129.43 L 27.78 129.43 Q 27.99 129.43 28.07 129.50 Q 28.16 129.58 28.16 129.71 Q 28.16 129.84 28.07 129.92 Q 27.99 130.00 27.78 130.00 L 23.29 130.00 Q 23.08 130.00 23.00 129.92 Q 22.91 129.84 22.91 129.71 Q 22.91 129.58 23.00 129.50 Q 23.08 129.43 23.29 129.43 L 24.68 129.43 L 24.68 124.66 L 23.43 124.66 Q 23.23 124.66 23.14 124.58 Q 23.05 124.50 23.05 124.37 Q 23.05 124.24 23.14 124.16 Q 23.23 124.08 23.43 124.08 L 24.68 124.08 L 24.68 123.21 Q 24.68 122.49 25.26 121.95 Q 25.85 121.42 26.82 121.42 Q 27.64 121.42 28.56 121.57 Q 28.91 121.63 28.98 121.70 Q 29.05 121.78 29.05 121.90 Q 29.05 122.02 28.97 122.10 Q 28.89 122.18 28.75 122.18 Q 28.70 122.18 28.57 122.16 Q 27.53 122.00 26.82 122.00 Q 26.07 122.00 25.66 122.37 Q 25.26 122.74 25.26 123.21 L 25.26 124.08 L 27.94 124.08 Q 28.15 124.08 28.24 124.16 Q 28.33 124.24 28.33 124.37 Q 28.33 124.50 28.24 124.58 Q 28.15 124.66 27.94 124.66 Z M 28.90 127.05 Q 28.90 128.37 27.96 129.30 Q 27.02 130.23 25.70 130.23 Q 24.36 130.23 23.42 129.29 Q 22.49 128.36 22.49 127.05 Q 22.49 125.74 23.42 124.81 Q 24.36 123.88 25.70 123.88 Q 27.02 123.88 27.96 124.80 Q 28.90 125.73 28.90 127.05 Z M 28.32 127.05 Q 28.32 125.97 27.55 125.21 Q 26.79 124.46 25.69 124.46 Q 24.60 124.46 23.83 125.22 Q 23.06 125.98 23.06 127.05 Q 23.06 128.12 23.83 128.89 Q 24.60 129.65 25.69 129.65 Q 26.79 129.65 27.55 128.89 Q 28.32 128.13 28.32 127.05 Z M 26.15 126.90 L 28.78 129.43 Q 29.04 129.43 29.11 129.45 Q 29.17 129.47 29.22 129.55 Q 29.28 129.62 29.28 129.71 Q 29.28 129.84 29.19 129.92 Q 29.10 130.00 28.89 130.00 L 27.04 130.00 Q 26.83 130.00 26.74 129.92 Q 26.65 129.84 26.65 129.71 Q 26.65 129.58 26.74 129.50 Q 26.83 129.43 27.04 129.43 L 27.99 129.43 L 25.76 127.29 L 23.53 129.43 L 24.49 129.43 Q 24.70 129.43 24.78 129.50 Q 24.87 129.58 24.87 129.71 Q 24.87 129.84 24.78 129.92 Q 24.70 130.00 24.49 130.00 L 22.62 130.00 Q 22.42 130.00 22.33 129.92 Q 22.24 129.84 22.24 129.71 Q 22.24 129.62 22.29 129.55 Q 22.34 129.47 22.41 129.45 Q 22.47 129.43 22.73 129.43 L 25.37 126.90 L 23.03 124.66 Q 22.78 124.66 22.72 124.63 Q 22.65 124.61 22.60 124.53 Q 22.55 124.46 22.55 124.37 Q 22.55 124.24 22.64 124.16 Q 22.73 124.08 22.94 124.08 L 24.50 124.08 Q 24.72 124.08 24.80 124.16 Q 24.89 124.24 24.89 124.37 Q 24.89 124.50 24.80 124.58 Q 24.72 124.66 24.50 124.66 L 23.82 124.66 L 25.76 126.53 L 27.70 124.66 L 27.02 124.66 Q 26.82 124.66 26.72 124.58 Q 26.63 124.50 26.63 124.37 Q 26.63 124.24 26.72 124.16 Q 26.81 124.08 27.02 124.08 L 28.59 124.08 Q 28.79 124.08 28.88 124.16 Q 28.97 124.24 28.97 124.37 Q 28.97 124.46 28.92 124.53 Q 28.87 124.61 28.80 124.63 Q 28.74 124.66 28.49 124.66 Z" fill="#059669" /><path d="M 25.21 160.26 Q 24.27 160.26 23.47 159.96 Q 22.66 159.66 22.06 159.09 Q 21.46 158.51 21.12 157.68 Q 20.78 156.85 20.78 155.78 Q 20.78 154.27 21.31 152.98 Q 21.84 151.69 22.75 150.72 Q 23.65 149.76 24.88 149.21 Q 26.10 148.66 27.46 148.66 Q 28.54 148.66 29.31 148.90 Q 30.08 149.15 30.52 149.45 L 30.95 148.91 L 31.58 148.91 L 30.76 152.79 L 30.12 152.79 Q 30.10 152.14 30.01 151.52 Q 29.91 150.89 29.62 150.39 Q 29.31 149.88 28.78 149.59 Q 28.25 149.29 27.30 149.29 Q 26.34 149.29 25.48 149.79 Q 24.62 150.28 23.98 151.18 Q 23.34 152.05 22.98 153.27 Q 22.62 154.48 22.62 155.88 Q 22.62 157.61 23.44 158.61 Q 24.26 159.61 25.70 159.61 Q 26.39 159.61 26.90 159.41 Q 27.41 159.20 27.70 158.95 Q 27.81 158.63 27.91 158.28 Q 28.01 157.92 28.12 157.41 L 28.27 156.73 Q 28.29 156.65 28.31 156.53 Q 28.33 156.41 28.33 156.31 Q 28.33 156.12 28.28 155.99 Q 28.23 155.87 28.03 155.78 Q 27.80 155.66 27.37 155.61 Q 26.94 155.55 26.70 155.53 L 26.82 155.00 L 31.69 155.00 L 31.57 155.53 Q 31.37 155.55 31.04 155.61 Q 30.72 155.66 30.50 155.75 Q 30.22 155.88 30.08 156.09 Q 29.95 156.30 29.88 156.59 L 29.67 157.48 Q 29.49 158.23 29.42 158.59 Q 29.35 158.96 29.30 159.29 Q 28.78 159.50 28.38 159.66 Q 27.98 159.81 27.38 159.96 Q 26.83 160.10 26.32 160.18 Q 25.82 160.26 25.21 160.26 Z M 27.33 153.74 Q 27.33 154.57 26.81 155.16 Q 26.29 155.76 25.29 156.11 Q 24.57 156.38 23.83 156.54 Q 23.08 156.70 22.18 156.81 Q 22.18 158.05 22.64 158.70 Q 23.10 159.35 23.98 159.35 Q 24.76 159.35 25.36 158.96 Q 25.96 158.57 26.54 157.80 L 26.98 158.12 Q 26.36 159.08 25.42 159.65 Q 24.48 160.22 23.47 160.22 Q 22.09 160.22 21.36 159.45 Q 20.63 158.67 20.63 157.25 Q 20.63 156.27 20.94 155.37 Q 21.25 154.48 21.84 153.73 Q 22.42 153.01 23.26 152.56 Q 24.10 152.12 25.11 152.12 Q 26.24 152.12 26.78 152.57 Q 27.33 153.03 27.33 153.74 Z M 25.89 153.55 Q 25.89 153.24 25.80 153.07 Q 25.72 152.89 25.58 152.80 Q 25.44 152.71 25.29 152.69 Q 25.13 152.66 24.97 152.66 Q 24.03 152.66 23.24 153.70 Q 22.44 154.73 22.23 156.27 Q 22.78 156.19 23.47 156.04 Q 24.15 155.90 24.61 155.66 Q 25.25 155.33 25.57 154.80 Q 25.89 154.27 25.89 153.55 Z M 28.22 155.19 Q 28.22 156.11 27.91 157.03 Q 27.59 157.95 27.00 158.65 Q 26.40 159.37 25.55 159.80 Q 24.70 160.23 23.59 160.23 Q 22.29 160.23 21.48 159.40 Q 20.67 158.56 20.67 157.15 Q 20.67 156.11 21.02 155.21 Q 21.36 154.31 21.94 153.63 Q 22.52 152.95 23.39 152.54 Q 24.25 152.12 25.26 152.12 Q 26.65 152.12 27.43 152.96 Q 28.22 153.81 28.22 155.19 Z M 26.63 154.89 Q 26.63 153.78 26.23 153.23 Q 25.84 152.67 25.09 152.67 Q 24.45 152.67 23.87 153.07 Q 23.30 153.47 22.88 154.37 Q 22.56 155.05 22.42 155.88 Q 22.27 156.71 22.27 157.41 Q 22.27 158.53 22.65 159.11 Q 23.04 159.68 23.82 159.68 Q 24.52 159.68 25.06 159.24 Q 25.59 158.80 25.93 158.13 Q 26.27 157.48 26.45 156.63 Q 26.63 155.78 26.63 154.89 Z M 27.67 153.39 Q 27.67 153.61 27.61 153.87 Q 27.54 154.13 27.43 154.30 Q 27.29 154.52 27.12 154.63 Q 26.95 154.74 26.64 154.74 Q 26.22 154.74 26.01 154.53 Q 25.79 154.32 25.79 154.06 Q 25.79 153.82 25.91 153.52 Q 26.03 153.22 26.15 152.92 Q 26.06 152.92 25.85 152.97 Q 25.63 153.02 25.33 153.17 Q 25.02 153.32 24.63 153.62 Q 24.25 153.91 23.81 154.41 L 22.55 160.00 L 21.10 160.00 L 22.24 154.94 Q 22.28 154.75 22.35 154.38 Q 22.43 154.00 22.43 153.82 Q 22.43 153.38 22.28 153.23 Q 22.13 153.09 21.69 153.09 Q 21.51 153.09 21.25 153.14 Q 20.98 153.20 20.83 153.24 L 20.95 152.74 Q 21.56 152.47 22.03 152.34 Q 22.50 152.20 22.83 152.20 Q 23.46 152.20 23.72 152.54 Q 23.99 152.88 23.99 153.56 L 24.04 153.56 Q 24.97 152.76 25.45 152.44 Q 25.93 152.12 26.45 152.12 Q 26.70 152.12 26.94 152.18 Q 27.17 152.24 27.33 152.39 Q 27.51 152.55 27.59 152.77 Q 27.67 152.98 27.67 153.39 Z M 25.81 158.95 L 25.76 158.93 Q 25.60 159.05 25.32 159.28 Q 25.03 159.51 24.72 159.68 Q 24.36 159.89 23.99 160.02 Q 23.63 160.16 23.18 160.16 Q 22.05 160.16 21.43 159.36 Q 20.82 158.55 20.82 157.15 Q 20.82 156.18 21.18 155.27 Q 21.53 154.35 22.15 153.64 Q 22.74 152.95 23.57 152.54 Q 24.40 152.12 25.31 152.12 Q 25.87 152.12 26.37 152.26 Q 26.87 152.41 27.17 152.60 L 28.60 152.23 L 28.70 152.35 L 27.38 158.51 Q 27.09 159.91 26.62 160.87 Q 26.16 161.84 25.55 162.40 Q 24.92 162.98 24.17 163.22 Q 23.42 163.47 22.46 163.47 Q 21.81 163.47 21.40 163.37 Q 20.99 163.27 20.76 163.10 Q 20.52 162.94 20.44 162.73 Q 20.36 162.52 20.36 162.34 Q 20.36 161.98 20.57 161.75 Q 20.78 161.51 21.15 161.51 Q 21.44 161.51 21.64 161.68 Q 21.84 161.84 21.97 162.04 Q 22.10 162.24 22.23 162.52 Q 22.35 162.80 22.42 162.95 L 22.65 162.95 Q 23.08 162.95 23.57 162.75 Q 24.06 162.55 24.47 162.12 Q 24.88 161.66 25.24 160.90 Q 25.60 160.14 25.81 158.95 Z M 26.86 153.95 Q 26.86 153.73 26.79 153.50 Q 26.73 153.27 26.55 153.08 Q 26.38 152.89 26.11 152.78 Q 25.84 152.67 25.43 152.67 Q 24.83 152.67 24.29 153.04 Q 23.76 153.40 23.33 154.03 Q 22.93 154.62 22.68 155.47 Q 22.43 156.31 22.43 157.16 Q 22.43 157.62 22.50 158.01 Q 22.56 158.40 22.73 158.69 Q 22.89 158.98 23.16 159.14 Q 23.43 159.30 23.86 159.30 Q 24.41 159.30 24.95 158.98 Q 25.49 158.66 25.97 158.17 Z M 24.65 159.15 L 24.53 159.65 Q 23.81 159.94 23.39 160.05 Q 22.96 160.16 22.65 160.16 Q 22.03 160.16 21.71 159.84 Q 21.40 159.52 21.40 159.04 Q 21.40 158.86 21.43 158.66 Q 21.46 158.47 21.53 158.17 L 22.36 154.85 Q 22.42 154.58 22.48 154.27 Q 22.54 153.95 22.54 153.73 Q 22.54 153.30 22.40 153.15 Q 22.25 153.01 21.81 153.01 Q 21.64 153.01 21.35 153.06 Q 21.06 153.12 20.92 153.16 L 21.03 152.66 Q 21.64 152.38 22.13 152.25 Q 22.61 152.12 22.89 152.12 Q 23.53 152.12 23.82 152.42 Q 24.11 152.73 24.11 153.24 Q 24.11 153.38 24.08 153.62 Q 24.05 153.87 23.99 154.11 L 23.15 157.43 Q 23.07 157.73 23.01 158.03 Q 22.96 158.32 22.96 158.51 Q 22.96 158.95 23.15 159.12 Q 23.35 159.28 23.80 159.28 Q 23.95 159.28 24.23 159.24 Q 24.50 159.20 24.65 159.15 Z M 25.21 149.16 Q 25.21 149.61 24.92 149.94 Q 24.63 150.27 24.20 150.27 Q 23.80 150.27 23.51 149.96 Q 23.22 149.64 23.22 149.23 Q 23.22 148.80 23.51 148.48 Q 23.80 148.16 24.20 148.16 Q 24.64 148.16 24.92 148.46 Q 25.21 148.77 25.21 149.16 Z M 25.82 158.97 L 25.77 158.97 Q 25.59 159.11 25.36 159.32 Q 25.12 159.54 24.80 159.73 Q 24.49 159.93 24.13 160.07 Q 23.77 160.22 23.35 160.22 Q 22.22 160.22 21.57 159.41 Q 20.93 158.59 20.93 157.19 Q 20.93 156.22 21.29 155.30 Q 21.65 154.39 22.28 153.66 Q 22.88 152.97 23.71 152.54 Q 24.54 152.12 25.41 152.12 Q 25.97 152.12 26.47 152.27 Q 26.98 152.41 27.27 152.60 L 28.70 152.23 L 28.79 152.35 L 27.60 157.39 Q 27.54 157.63 27.47 157.98 Q 27.41 158.33 27.41 158.49 Q 27.41 158.94 27.59 159.09 Q 27.78 159.25 28.23 159.25 Q 28.38 159.25 28.65 159.20 Q 28.92 159.16 29.07 159.10 L 28.95 159.60 Q 28.25 159.88 27.91 160.01 Q 27.56 160.13 27.07 160.13 Q 26.51 160.13 26.18 159.80 Q 25.85 159.48 25.82 158.97 Z M 26.94 154.03 Q 26.94 153.77 26.88 153.54 Q 26.83 153.30 26.66 153.10 Q 26.50 152.91 26.23 152.79 Q 25.95 152.67 25.54 152.67 Q 24.97 152.67 24.43 153.05 Q 23.89 153.42 23.46 154.05 Q 23.06 154.65 22.80 155.49 Q 22.54 156.34 22.54 157.20 Q 22.54 157.68 22.59 158.05 Q 22.65 158.41 22.81 158.72 Q 22.95 159.02 23.23 159.18 Q 23.52 159.34 23.95 159.34 Q 24.38 159.34 24.86 159.10 Q 25.34 158.85 25.95 158.23 Z M 25.24 153.34 Q 25.24 153.77 24.92 154.09 Q 24.60 154.40 24.17 154.40 Q 23.73 154.40 23.41 154.09 Q 23.10 153.77 23.10 153.34 Q 23.10 152.90 23.41 152.58 Q 23.72 152.27 24.17 152.27 Q 24.61 152.27 24.92 152.58 Q 25.24 152.90 25.24 153.34 Z M 23.95 159.10 Q 23.95 159.54 23.63 159.85 Q 23.31 160.16 22.88 160.16 Q 22.44 160.16 22.12 159.85 Q 21.81 159.54 21.81 159.10 Q 21.81 158.66 22.12 158.35 Q 22.44 158.03 22.88 158.03 Q 23.31 158.03 23.63 158.35 Q 23.95 158.66 23.95 159.10 Z M 31.90 148.91 L 31.21 151.92 L 30.67 151.92 Q 30.66 151.65 30.59 151.23 Q 30.53 150.80 30.40 150.47 Q 30.27 150.11 30.05 149.85 Q 29.84 149.59 29.54 149.55 Q 29.31 149.52 28.94 149.50 Q 28.58 149.48 28.27 149.48 L 27.78 149.48 L 25.71 158.43 Q 25.70 158.49 25.69 158.57 Q 25.68 158.64 25.68 158.71 Q 25.68 158.90 25.75 159.02 Q 25.82 159.14 26.02 159.23 Q 26.17 159.30 26.58 159.39 Q 26.99 159.48 27.25 159.48 L 27.13 160.00 L 21.89 160.00 L 22.02 159.48 Q 22.25 159.47 22.70 159.42 Q 23.14 159.38 23.35 159.30 Q 23.66 159.19 23.81 158.98 Q 23.97 158.78 24.03 158.50 L 26.11 149.48 L 25.70 149.48 Q 25.46 149.48 25.11 149.50 Q 24.76 149.51 24.39 149.55 Q 24.13 149.58 23.79 149.86 Q 23.45 150.13 23.10 150.51 Q 22.78 150.88 22.51 151.25 Q 22.24 151.63 22.10 151.92 L 21.55 151.92 L 22.24 148.91 Z M 29.16 159.09 L 29.04 159.59 Q 28.34 159.88 27.95 160.00 Q 27.56 160.13 27.16 160.13 Q 26.53 160.13 26.22 159.81 Q 25.91 159.48 25.91 159.01 Q 25.91 158.84 25.94 158.63 Q 25.97 158.42 26.04 158.14 L 26.81 155.23 Q 26.89 154.89 26.94 154.62 Q 26.99 154.34 26.99 154.18 Q 26.99 153.66 26.74 153.35 Q 26.49 153.05 26.00 153.05 Q 25.50 153.05 24.92 153.37 Q 24.34 153.69 23.81 154.27 L 22.49 160.00 L 21.04 160.00 L 23.36 149.95 Q 23.40 149.77 23.43 149.64 Q 23.45 149.52 23.45 149.38 Q 23.45 149.09 23.36 148.94 Q 23.27 148.79 23.09 148.71 Q 22.95 148.64 22.69 148.62 Q 22.43 148.59 22.17 148.56 L 22.28 148.09 L 25.18 147.91 L 25.26 148.02 L 24.01 153.43 L 24.04 153.43 Q 24.84 152.78 25.48 152.45 Q 26.11 152.12 26.92 152.12 Q 27.67 152.12 28.09 152.55 Q 28.51 152.98 28.51 153.69 Q 28.51 153.83 28.47 154.19 Q 28.42 154.55 28.33 154.90 L 27.67 157.41 Q 27.61 157.66 27.54 157.98 Q 27.47 158.30 27.47 158.48 Q 27.47 158.93 27.67 159.09 Q 27.86 159.25 28.31 159.25 Q 28.45 159.25 28.73 159.20 Q 29.01 159.15 29.16 159.09 Z M 27.92 153.74 Q 27.92 154.57 27.40 155.16 Q 26.88 155.76 25.88 156.11 Q 25.16 156.38 24.42 156.54 Q 23.67 156.70 22.77 156.81 Q 22.77 158.05 23.23 158.70 Q 23.69 159.35 24.57 159.35 Q 25.35 159.35 25.95 158.96 Q 26.55 158.57 27.13 157.80 L 27.57 158.12 Q 26.95 159.08 26.01 159.65 Q 25.07 160.22 24.06 160.22 Q 22.68 160.22 21.95 159.45 Q 21.22 158.67 21.22 157.25 Q 21.22 156.27 21.53 155.37 Q 21.84 154.48 22.43 153.73 Q 23.01 153.01 23.85 152.56 Q 24.69 152.12 25.70 152.12 Q 26.83 152.12 27.37 152.57 Q 27.92 153.03 27.92 153.74 Z M 26.48 153.55 Q 26.48 153.24 26.39 153.07 Q 26.31 152.89 26.17 152.80 Q 26.03 152.71 25.88 152.69 Q 25.72 152.66 25.56 152.66 Q 24.62 152.66 23.83 153.70 Q 23.03 154.73 22.82 156.27 Q 23.37 156.19 24.06 156.04 Q 24.74 155.90 25.20 155.66 Q 25.84 155.33 26.16 154.80 Q 26.48 154.27 26.48 153.55 Z M 26.27 158.91 L 26.22 158.91 Q 26.02 159.08 25.81 159.28 Q 25.61 159.48 25.23 159.71 Q 24.92 159.92 24.54 160.07 Q 24.17 160.22 23.75 160.22 Q 22.61 160.22 21.97 159.41 Q 21.32 158.59 21.32 157.19 Q 21.32 156.22 21.68 155.30 Q 22.04 154.39 22.68 153.66 Q 23.29 152.97 24.12 152.54 Q 24.95 152.12 25.82 152.12 Q 26.38 152.12 26.90 152.27 Q 27.42 152.41 27.71 152.60 L 29.11 152.23 L 29.20 152.35 L 27.08 161.67 Q 27.04 161.87 27.01 162.04 Q 26.98 162.21 26.98 162.32 Q 26.98 162.53 27.13 162.66 Q 27.27 162.78 27.46 162.84 Q 27.64 162.90 27.87 162.93 Q 28.10 162.96 28.28 162.98 L 28.17 163.47 L 23.86 163.47 L 23.97 162.98 Q 24.22 162.96 24.48 162.94 Q 24.74 162.91 24.93 162.86 Q 25.18 162.79 25.32 162.60 Q 25.47 162.41 25.53 162.12 Z M 27.38 154.03 Q 27.38 153.78 27.32 153.54 Q 27.25 153.30 27.08 153.10 Q 26.92 152.91 26.64 152.79 Q 26.36 152.67 25.95 152.67 Q 25.38 152.67 24.84 153.05 Q 24.29 153.42 23.86 154.05 Q 23.44 154.68 23.18 155.50 Q 22.93 156.33 22.93 157.20 Q 22.93 157.66 22.98 158.05 Q 23.04 158.44 23.20 158.73 Q 23.35 159.02 23.62 159.18 Q 23.89 159.35 24.33 159.35 Q 24.86 159.35 25.37 159.03 Q 25.88 158.70 26.43 158.16 Z M 26.36 158.91 L 26.32 158.91 Q 25.96 159.20 25.63 159.44 Q 25.30 159.68 24.98 159.84 Q 24.61 160.03 24.30 160.11 Q 24.00 160.20 23.50 160.20 Q 22.75 160.20 22.34 159.76 Q 21.93 159.33 21.93 158.62 Q 21.93 158.44 21.96 158.18 Q 21.99 157.92 22.11 157.41 L 22.71 154.94 Q 22.79 154.59 22.84 154.33 Q 22.89 154.06 22.89 153.82 Q 22.89 153.38 22.75 153.24 Q 22.61 153.09 22.16 153.09 Q 21.99 153.09 21.72 153.16 Q 21.46 153.22 21.31 153.26 L 21.43 152.76 Q 22.03 152.48 22.50 152.34 Q 22.96 152.20 23.25 152.20 Q 23.87 152.20 24.16 152.50 Q 24.46 152.79 24.46 153.33 Q 24.46 153.47 24.43 153.71 Q 24.39 153.95 24.33 154.20 L 23.64 157.09 Q 23.56 157.41 23.51 157.70 Q 23.46 157.98 23.46 158.13 Q 23.46 158.66 23.68 158.96 Q 23.91 159.27 24.40 159.27 Q 24.90 159.27 25.43 159.00 Q 25.96 158.74 26.49 158.21 L 27.86 152.33 L 29.21 152.23 L 29.31 152.35 L 28.14 157.38 Q 28.07 157.70 28.00 158.03 Q 27.94 158.35 27.94 158.48 Q 27.94 158.93 28.13 159.09 Q 28.32 159.25 28.77 159.25 Q 28.92 159.25 29.19 159.20 Q 29.46 159.16 29.61 159.10 L 29.50 159.60 Q 28.85 159.87 28.41 160.00 Q 27.98 160.13 27.61 160.13 Q 26.98 160.13 26.67 159.77 Q 26.36 159.40 26.36 158.91 Z M 25.22 159.15 L 25.10 159.65 Q 24.38 159.94 23.95 160.05 Q 23.52 160.16 23.22 160.16 Q 22.59 160.16 22.28 159.84 Q 21.97 159.52 21.97 159.04 Q 21.97 158.86 22.00 158.66 Q 22.03 158.47 22.10 158.17 L 22.93 154.85 Q 22.99 154.58 23.05 154.27 Q 23.11 153.95 23.11 153.73 Q 23.11 153.30 22.96 153.15 Q 22.82 153.01 22.37 153.01 Q 22.20 153.01 21.92 153.06 Q 21.63 153.12 21.48 153.16 L 21.60 152.66 Q 22.21 152.38 22.69 152.25 Q 23.18 152.12 23.46 152.12 Q 24.10 152.12 24.39 152.42 Q 24.68 152.73 24.68 153.24 Q 24.68 153.38 24.65 153.62 Q 24.61 153.87 24.55 154.11 L 23.72 157.43 Q 23.64 157.73 23.58 158.03 Q 23.52 158.32 23.52 158.51 Q 23.52 158.95 23.72 159.12 Q 23.92 159.28 24.36 159.28 Q 24.51 159.28 24.79 159.24 Q 25.07 159.20 25.22 159.15 Z M 25.77 149.16 Q 25.77 149.61 25.48 149.94 Q 25.19 150.27 24.76 150.27 Q 24.36 150.27 24.08 149.96 Q 23.79 149.64 23.79 149.23 Q 23.79 148.80 24.08 148.48 Q 24.36 148.16 24.76 148.16 Q 25.21 148.16 25.49 148.46 Q 25.77 148.77 25.77 149.16 Z M 24.43 160.22 Q 23.06 160.22 22.27 159.42 Q 21.47 158.62 21.47 157.16 Q 21.47 156.18 21.77 155.29 Q 22.07 154.39 22.61 153.70 Q 23.15 153.00 23.98 152.56 Q 24.80 152.12 25.81 152.12 Q 26.93 152.12 27.51 152.59 Q 28.09 153.06 28.09 153.78 Q 28.09 154.32 27.84 154.73 Q 27.58 155.13 27.07 155.13 Q 26.65 155.13 26.44 154.92 Q 26.23 154.71 26.23 154.45 Q 26.23 154.20 26.40 153.77 Q 26.57 153.34 26.68 153.07 Q 26.59 152.86 26.29 152.76 Q 26.00 152.66 25.68 152.66 Q 24.61 152.66 23.84 153.90 Q 23.07 155.14 23.07 156.94 Q 23.07 158.05 23.57 158.70 Q 24.07 159.35 24.91 159.35 Q 25.67 159.35 26.26 158.95 Q 26.85 158.54 27.39 157.80 L 27.83 158.12 Q 27.29 158.98 26.37 159.60 Q 25.44 160.22 24.43 160.22 Z M 29.37 153.01 Q 29.37 153.35 29.10 153.64 Q 28.83 153.94 28.44 153.94 Q 28.18 153.94 27.93 153.87 Q 27.68 153.80 27.38 153.66 Q 26.95 153.90 26.49 154.25 Q 26.04 154.61 25.50 155.12 Q 25.94 156.27 26.25 157.01 Q 26.56 157.75 26.78 158.22 Q 27.06 158.80 27.40 159.05 Q 27.74 159.30 28.15 159.30 Q 28.33 159.30 28.66 159.24 Q 28.99 159.18 29.17 159.12 L 29.05 159.63 Q 28.33 159.93 27.91 160.03 Q 27.50 160.13 27.08 160.13 Q 26.58 160.13 26.22 159.86 Q 25.86 159.58 25.54 158.85 Q 25.22 158.16 24.97 157.48 Q 24.72 156.80 24.47 156.20 L 23.56 156.98 L 22.89 160.00 L 21.44 160.00 L 23.76 149.95 Q 23.81 149.70 23.83 149.61 Q 23.85 149.52 23.85 149.38 Q 23.85 149.09 23.76 148.94 Q 23.66 148.79 23.49 148.71 Q 23.33 148.64 23.08 148.62 Q 22.83 148.59 22.57 148.56 L 22.68 148.09 L 25.58 147.91 L 25.65 148.02 L 23.75 156.16 L 23.78 156.16 Q 24.66 155.20 25.38 154.50 Q 26.11 153.80 26.90 153.08 Q 27.46 152.56 27.79 152.37 Q 28.11 152.18 28.49 152.18 Q 28.89 152.18 29.13 152.40 Q 29.37 152.62 29.37 153.01 Z M 29.41 155.10 Q 29.41 156.14 29.04 157.09 Q 28.66 158.04 28.05 158.73 Q 27.41 159.43 26.62 159.83 Q 25.82 160.23 24.93 160.23 Q 24.26 160.23 23.75 160.12 Q 23.23 160.01 22.88 159.81 Q 22.51 159.61 22.27 159.36 Q 22.02 159.10 21.83 158.79 L 23.84 149.95 Q 23.88 149.77 23.91 149.64 Q 23.94 149.51 23.94 149.38 Q 23.94 149.09 23.84 148.94 Q 23.75 148.79 23.58 148.71 Q 23.41 148.64 23.16 148.62 Q 22.91 148.59 22.66 148.56 L 22.77 148.09 L 25.66 147.91 L 25.74 148.02 L 24.55 153.22 L 24.59 153.22 Q 25.29 152.59 25.82 152.36 Q 26.36 152.12 26.87 152.12 Q 28.05 152.12 28.73 152.93 Q 29.41 153.73 29.41 155.10 Z M 27.80 155.14 Q 27.80 154.73 27.73 154.31 Q 27.66 153.89 27.48 153.61 Q 27.30 153.31 26.99 153.14 Q 26.68 152.97 26.22 152.97 Q 25.95 152.97 25.70 153.06 Q 25.46 153.16 25.20 153.31 Q 24.98 153.45 24.76 153.65 Q 24.55 153.85 24.37 154.01 L 23.33 158.64 Q 23.35 158.80 23.47 158.98 Q 23.59 159.17 23.77 159.31 Q 23.98 159.49 24.26 159.59 Q 24.53 159.68 24.86 159.68 Q 25.48 159.68 26.02 159.32 Q 26.56 158.95 26.95 158.34 Q 27.38 157.66 27.59 156.84 Q 27.80 156.01 27.80 155.14 Z M 28.62 153.39 Q 28.62 153.61 28.56 153.87 Q 28.50 154.13 28.38 154.30 Q 28.24 154.52 28.07 154.63 Q 27.91 154.74 27.59 154.74 Q 27.17 154.74 26.96 154.53 Q 26.75 154.32 26.75 154.06 Q 26.75 153.82 26.87 153.52 Q 26.98 153.22 27.11 152.92 Q 27.01 152.92 26.80 152.97 Q 26.58 153.02 26.28 153.17 Q 25.98 153.32 25.59 153.62 Q 25.20 153.91 24.76 154.41 L 23.51 160.00 L 22.05 160.00 L 23.19 154.94 Q 23.23 154.75 23.31 154.38 Q 23.38 154.00 23.38 153.82 Q 23.38 153.38 23.23 153.23 Q 23.08 153.09 22.64 153.09 Q 22.47 153.09 22.20 153.14 Q 21.94 153.20 21.79 153.24 L 21.91 152.74 Q 22.51 152.47 22.98 152.34 Q 23.45 152.20 23.79 152.20 Q 24.41 152.20 24.68 152.54 Q 24.94 152.88 24.94 153.56 L 24.99 153.56 Q 25.92 152.76 26.40 152.44 Q 26.88 152.12 27.41 152.12 Q 27.66 152.12 27.89 152.18 Q 28.12 152.24 28.29 152.39 Q 28.46 152.55 28.54 152.77 Q 28.62 152.98 28.62 153.39 Z M 29.30 155.19 Q 29.30 156.11 28.99 157.03 Q 28.67 157.95 28.08 158.65 Q 27.48 159.37 26.63 159.80 Q 25.78 160.23 24.67 160.23 Q 23.37 160.23 22.56 159.40 Q 21.75 158.56 21.75 157.15 Q 21.75 156.11 22.10 155.21 Q 22.44 154.31 23.02 153.63 Q 23.60 152.95 24.47 152.54 Q 25.33 152.12 26.34 152.12 Q 27.73 152.12 28.51 152.96 Q 29.30 153.81 29.30 155.19 Z M 27.71 154.89 Q 27.71 153.78 27.31 153.23 Q 26.92 152.67 26.17 152.67 Q 25.53 152.67 24.95 153.07 Q 24.38 153.47 23.96 154.37 Q 23.64 155.05 23.49 155.88 Q 23.35 156.71 23.35 157.41 Q 23.35 158.53 23.73 159.11 Q 24.12 159.68 24.90 159.68 Q 25.60 159.68 26.13 159.24 Q 26.67 158.80 27.01 158.13 Q 27.35 157.48 27.53 156.63 Q 27.71 155.78 27.71 154.89 Z M 33.96 153.56 Q 33.96 154.79 33.61 155.99 Q 33.26 157.20 32.65 158.11 Q 31.97 159.12 31.11 159.68 Q 30.25 160.23 29.24 160.23 Q 28.51 160.23 27.89 159.83 Q 27.26 159.42 27.05 158.71 Q 26.77 158.98 26.53 159.22 Q 26.30 159.45 25.91 159.70 Q 25.53 159.95 25.21 160.09 Q 24.90 160.22 24.41 160.22 Q 23.81 160.22 23.42 160.04 Q 23.04 159.85 22.80 159.55 Q 22.58 159.27 22.49 158.92 Q 22.40 158.56 22.40 158.17 Q 22.40 158.02 22.43 157.80 Q 22.47 157.57 22.51 157.41 L 23.17 154.94 Q 23.26 154.59 23.31 154.30 Q 23.35 154.01 23.35 153.82 Q 23.35 153.38 23.21 153.24 Q 23.06 153.09 22.62 153.09 Q 22.44 153.09 22.18 153.16 Q 21.91 153.22 21.76 153.26 L 21.88 152.76 Q 22.49 152.48 22.96 152.34 Q 23.42 152.20 23.70 152.20 Q 24.33 152.20 24.62 152.50 Q 24.91 152.79 24.91 153.33 Q 24.91 153.47 24.88 153.71 Q 24.85 153.95 24.79 154.20 L 24.06 157.08 Q 23.99 157.37 23.94 157.67 Q 23.90 157.98 23.90 158.12 Q 23.90 158.71 24.13 159.01 Q 24.37 159.31 24.92 159.31 Q 25.41 159.31 25.95 159.04 Q 26.49 158.77 26.94 158.26 L 28.32 152.33 L 29.68 152.23 L 29.77 152.35 L 28.67 157.11 Q 28.62 157.34 28.56 157.68 Q 28.50 158.02 28.50 158.11 Q 28.50 158.54 28.64 158.79 Q 28.77 159.04 28.98 159.16 Q 29.19 159.27 29.41 159.30 Q 29.62 159.33 29.83 159.33 Q 30.36 159.33 30.92 158.99 Q 31.48 158.66 31.89 158.12 Q 32.35 157.52 32.62 156.79 Q 32.88 156.05 32.88 155.21 Q 32.88 154.74 32.75 154.49 Q 32.62 154.23 32.47 154.05 Q 32.31 153.85 32.18 153.64 Q 32.05 153.42 32.05 153.03 Q 32.05 152.59 32.35 152.35 Q 32.65 152.12 32.98 152.12 Q 33.44 152.12 33.70 152.49 Q 33.96 152.86 33.96 153.56 Z M 30.38 159.09 L 30.26 159.59 Q 29.55 159.88 29.16 160.00 Q 28.77 160.13 28.38 160.13 Q 27.75 160.13 27.44 159.81 Q 27.12 159.48 27.12 159.01 Q 27.12 158.84 27.16 158.63 Q 27.19 158.42 27.26 158.14 L 28.02 155.23 Q 28.11 154.89 28.16 154.62 Q 28.21 154.34 28.21 154.18 Q 28.21 153.66 27.96 153.35 Q 27.71 153.05 27.22 153.05 Q 26.74 153.05 26.15 153.36 Q 25.55 153.67 25.03 154.27 L 23.71 160.00 L 22.26 160.00 L 23.42 154.94 Q 23.46 154.75 23.54 154.39 Q 23.61 154.04 23.61 153.82 Q 23.61 153.38 23.46 153.23 Q 23.31 153.09 22.87 153.09 Q 22.70 153.09 22.43 153.14 Q 22.16 153.20 22.02 153.24 L 22.13 152.74 Q 22.74 152.47 23.21 152.34 Q 23.68 152.20 24.02 152.20 Q 24.63 152.20 24.90 152.54 Q 25.16 152.88 25.18 153.47 L 25.23 153.47 Q 26.09 152.78 26.71 152.45 Q 27.34 152.12 28.13 152.12 Q 28.88 152.12 29.30 152.55 Q 29.73 152.98 29.73 153.69 Q 29.73 153.83 29.68 154.19 Q 29.64 154.55 29.55 154.90 L 28.89 157.41 Q 28.82 157.66 28.75 157.98 Q 28.69 158.30 28.69 158.48 Q 28.69 158.93 28.88 159.09 Q 29.08 159.25 29.52 159.25 Q 29.67 159.25 29.95 159.20 Q 30.23 159.15 30.38 159.09 Z M 25.37 153.08 L 23.99 159.53 Q 23.63 161.27 22.45 162.37 Q 21.27 163.47 20.02 163.47 Q 19.33 163.47 19.01 163.21 Q 18.68 162.95 18.68 162.55 Q 18.68 162.21 18.89 161.95 Q 19.09 161.70 19.47 161.70 Q 19.71 161.70 19.90 161.80 Q 20.08 161.91 20.22 162.08 Q 20.33 162.21 20.47 162.44 Q 20.60 162.66 20.71 162.83 Q 21.31 162.78 21.73 162.02 Q 22.16 161.25 22.47 159.83 L 23.91 153.08 L 22.39 153.08 L 22.55 152.37 L 24.06 152.37 L 24.17 151.84 Q 24.35 150.93 24.76 150.20 Q 25.17 149.48 25.68 148.97 Q 26.19 148.47 26.83 148.18 Q 27.48 147.90 28.07 147.90 Q 28.76 147.90 29.08 148.16 Q 29.41 148.42 29.41 148.82 Q 29.41 149.16 29.22 149.41 Q 29.03 149.67 28.62 149.67 Q 28.38 149.67 28.20 149.57 Q 28.02 149.46 27.88 149.29 Q 27.72 149.09 27.63 148.92 Q 27.53 148.75 27.39 148.54 Q 26.85 148.56 26.44 149.25 Q 26.03 149.94 25.69 151.54 L 25.52 152.37 L 27.48 152.37 L 27.31 153.08 Z M 29.61 155.19 Q 29.61 156.11 29.30 157.03 Q 28.99 157.95 28.40 158.65 Q 27.79 159.37 26.95 159.80 Q 26.10 160.23 24.98 160.23 Q 23.68 160.23 22.88 159.40 Q 22.07 158.56 22.07 157.15 Q 22.07 156.11 22.41 155.21 Q 22.75 154.31 23.33 153.63 Q 23.92 152.95 24.78 152.54 Q 25.65 152.12 26.65 152.12 Q 28.04 152.12 28.83 152.96 Q 29.61 153.81 29.61 155.19 Z M 28.02 154.89 Q 28.02 153.78 27.63 153.23 Q 27.23 152.67 26.49 152.67 Q 25.84 152.67 25.27 153.07 Q 24.69 153.47 24.28 154.37 Q 23.96 155.05 23.81 155.88 Q 23.66 156.71 23.66 157.41 Q 23.66 158.53 24.05 159.11 Q 24.43 159.68 25.22 159.68 Q 25.91 159.68 26.45 159.24 Q 26.99 158.80 27.32 158.13 Q 27.66 157.48 27.84 156.63 Q 28.02 155.78 28.02 154.89 Z M 29.96 152.98 Q 29.95 153.43 29.63 153.64 Q 29.31 153.86 28.92 153.86 Q 28.69 153.86 28.39 153.78 Q 28.09 153.70 27.92 153.64 Q 27.57 153.95 27.11 154.56 Q 26.64 155.17 26.23 155.91 Q 26.42 156.65 26.56 157.18 Q 26.71 157.70 26.88 158.23 Q 27.03 158.71 27.35 159.00 Q 27.67 159.28 28.18 159.28 Q 28.37 159.28 28.70 159.23 Q 29.02 159.18 29.20 159.12 L 29.06 159.63 Q 28.31 159.95 27.93 160.04 Q 27.56 160.13 27.12 160.13 Q 26.57 160.13 26.22 159.88 Q 25.86 159.63 25.64 158.85 Q 25.49 158.28 25.39 157.89 Q 25.29 157.51 25.20 157.12 Q 24.84 157.66 24.60 158.04 Q 24.37 158.42 23.82 159.09 Q 23.34 159.66 22.95 159.91 Q 22.55 160.15 22.13 160.15 Q 21.77 160.15 21.53 159.93 Q 21.29 159.72 21.29 159.34 Q 21.29 158.97 21.57 158.71 Q 21.85 158.45 22.34 158.45 Q 22.59 158.45 22.83 158.54 Q 23.07 158.62 23.33 158.70 Q 23.63 158.42 24.11 157.83 Q 24.60 157.23 25.02 156.48 Q 24.88 155.92 24.70 155.26 Q 24.52 154.59 24.37 154.09 Q 24.17 153.46 23.90 153.28 Q 23.63 153.10 23.22 153.10 Q 22.99 153.10 22.74 153.16 Q 22.49 153.23 22.27 153.29 L 22.42 152.77 Q 23.02 152.52 23.50 152.36 Q 23.98 152.20 24.15 152.20 Q 24.69 152.20 25.04 152.46 Q 25.40 152.73 25.61 153.48 Q 25.85 154.34 25.90 154.54 Q 25.94 154.73 26.06 155.29 Q 26.44 154.71 26.67 154.31 Q 26.91 153.91 27.44 153.26 Q 27.93 152.64 28.35 152.41 Q 28.77 152.18 29.15 152.18 Q 29.49 152.18 29.73 152.40 Q 29.97 152.62 29.96 152.98 Z" fill="#7c3aed" /><path d="M 200.79 185.00 L 200.79 177.84 L 203.96 177.84 Q 204.92 177.84 205.42 178.03 Q 205.91 178.23 206.21 178.72 Q 206.51 179.20 206.51 179.79 Q 206.51 180.56 206.02 181.08 Q 205.52 181.60 204.49 181.74 Q 204.87 181.92 205.06 182.10 Q 205.48 182.48 205.85 183.05 L 207.09 185.00 L 205.90 185.00 L 204.96 183.51 Q 204.54 182.87 204.27 182.52 Q 204.00 182.18 203.79 182.05 Q 203.58 181.91 203.36 181.86 Q 203.20 181.82 202.83 181.82 L 201.73 181.82 L 201.73 185.00 Z M 201.73 181.00 L 203.77 181.00 Q 204.42 181.00 204.79 180.87 Q 205.15 180.73 205.34 180.44 Q 205.53 180.14 205.53 179.79 Q 205.53 179.29 205.16 178.96 Q 204.79 178.63 204.00 178.63 L 201.73 178.63 Z M 204.24 183.33 L 205.15 183.44 Q 204.94 184.24 204.36 184.68 Q 203.78 185.12 202.87 185.12 Q 201.73 185.12 201.07 184.42 Q 200.40 183.72 200.40 182.45 Q 200.40 181.14 201.08 180.42 Q 201.75 179.70 202.82 179.70 Q 203.86 179.70 204.52 180.41 Q 205.18 181.11 205.18 182.40 Q 205.18 182.48 205.18 182.63 L 201.31 182.63 Q 201.36 183.49 201.79 183.94 Q 202.23 184.39 202.88 184.39 Q 203.36 184.39 203.70 184.14 Q 204.04 183.89 204.24 183.33 Z M 201.36 181.91 L 204.25 181.91 Q 204.20 181.25 203.92 180.93 Q 203.50 180.42 202.83 180.42 Q 202.23 180.42 201.82 180.83 Q 201.40 181.23 201.36 181.91 Z M 204.03 186.99 L 204.03 184.45 Q 203.82 184.74 203.45 184.93 Q 203.08 185.12 202.67 185.12 Q 201.75 185.12 201.08 184.38 Q 200.41 183.64 200.41 182.36 Q 200.41 181.58 200.68 180.96 Q 200.96 180.34 201.47 180.02 Q 201.99 179.70 202.60 179.70 Q 203.56 179.70 204.12 180.51 L 204.12 179.81 L 204.91 179.81 L 204.91 186.99 Z M 201.32 182.39 Q 201.32 183.39 201.74 183.89 Q 202.16 184.39 202.74 184.39 Q 203.30 184.39 203.71 183.92 Q 204.12 183.44 204.12 182.47 Q 204.12 181.44 203.69 180.91 Q 203.26 180.39 202.68 180.39 Q 202.11 180.39 201.72 180.88 Q 201.32 181.36 201.32 182.39 Z M 204.15 185.00 L 204.15 184.24 Q 203.54 185.12 202.50 185.12 Q 202.04 185.12 201.64 184.94 Q 201.25 184.77 201.05 184.50 Q 200.86 184.23 200.78 183.85 Q 200.73 183.59 200.73 183.03 L 200.73 179.81 L 201.61 179.81 L 201.61 182.69 Q 201.61 183.38 201.66 183.62 Q 201.74 183.96 202.01 184.16 Q 202.28 184.36 202.68 184.36 Q 203.07 184.36 203.42 184.16 Q 203.77 183.96 203.91 183.61 Q 204.05 183.26 204.05 182.59 L 204.05 179.81 L 204.93 179.81 L 204.93 185.00 Z M 200.78 178.85 L 200.78 177.84 L 201.66 177.84 L 201.66 178.85 Z M 200.78 185.00 L 200.78 179.81 L 201.66 179.81 L 201.66 185.00 Z M 200.78 185.00 L 200.78 179.81 L 201.57 179.81 L 201.57 180.60 Q 201.87 180.05 202.13 179.87 Q 202.38 179.70 202.69 179.70 Q 203.14 179.70 203.59 179.98 L 203.29 180.80 Q 202.97 180.61 202.65 180.61 Q 202.36 180.61 202.13 180.78 Q 201.90 180.95 201.80 181.26 Q 201.66 181.73 201.66 182.29 L 201.66 185.00 Z M 204.35 183.33 L 205.26 183.44 Q 205.05 184.24 204.47 184.68 Q 203.88 185.12 202.98 185.12 Q 201.84 185.12 201.18 184.42 Q 200.51 183.72 200.51 182.45 Q 200.51 181.14 201.18 180.42 Q 201.86 179.70 202.93 179.70 Q 203.97 179.70 204.63 180.41 Q 205.29 181.11 205.29 182.40 Q 205.29 182.48 205.29 182.63 L 201.42 182.63 Q 201.47 183.49 201.90 183.94 Q 202.34 184.39 202.99 184.39 Q 203.47 184.39 203.81 184.14 Q 204.15 183.89 204.35 183.33 Z M 201.47 181.91 L 204.36 181.91 Q 204.30 181.25 204.03 180.93 Q 203.61 180.42 202.94 180.42 Q 202.34 180.42 201.92 180.83 Q 201.51 181.23 201.47 181.91 Z M 200.48 183.45 L 201.35 183.32 Q 201.42 183.84 201.76 184.12 Q 202.09 184.39 202.69 184.39 Q 203.30 184.39 203.59 184.15 Q 203.88 183.90 203.88 183.57 Q 203.88 183.27 203.62 183.10 Q 203.44 182.98 202.72 182.80 Q 201.76 182.56 201.38 182.38 Q 201.01 182.20 200.82 181.89 Q 200.63 181.57 200.63 181.19 Q 200.63 180.84 200.78 180.55 Q 200.94 180.25 201.22 180.06 Q 201.42 179.91 201.77 179.80 Q 202.13 179.70 202.53 179.70 Q 203.14 179.70 203.61 179.87 Q 204.07 180.05 204.29 180.35 Q 204.51 180.65 204.59 181.15 L 203.73 181.27 Q 203.67 180.87 203.39 180.64 Q 203.11 180.42 202.60 180.42 Q 201.99 180.42 201.73 180.62 Q 201.47 180.82 201.47 181.09 Q 201.47 181.26 201.58 181.40 Q 201.69 181.54 201.92 181.63 Q 202.05 181.68 202.70 181.86 Q 203.63 182.10 204.00 182.26 Q 204.37 182.42 204.58 182.72 Q 204.79 183.03 204.79 183.48 Q 204.79 183.92 204.53 184.30 Q 204.27 184.69 203.79 184.90 Q 203.31 185.12 202.70 185.12 Q 201.68 185.12 201.15 184.70 Q 200.63 184.28 200.48 183.45 Z M 201.08 185.00 L 201.08 180.50 L 200.30 180.50 L 200.30 179.81 L 201.08 179.81 L 201.08 179.26 Q 201.08 178.74 201.17 178.49 Q 201.30 178.14 201.62 177.93 Q 201.94 177.72 202.51 177.72 Q 202.88 177.72 203.33 177.81 L 203.20 178.57 Q 202.93 178.53 202.68 178.53 Q 202.28 178.53 202.12 178.70 Q 201.95 178.87 201.95 179.34 L 201.95 179.81 L 202.96 179.81 L 202.96 180.50 L 201.95 180.50 L 201.95 185.00 Z M 200.55 182.41 Q 200.55 180.97 201.36 180.27 Q 202.02 179.70 202.99 179.70 Q 204.06 179.70 204.73 180.40 Q 205.41 181.10 205.41 182.33 Q 205.41 183.33 205.11 183.91 Q 204.81 184.48 204.24 184.80 Q 203.66 185.12 202.99 185.12 Q 201.90 185.12 201.23 184.42 Q 200.55 183.72 200.55 182.41 Z M 201.46 182.41 Q 201.46 183.40 201.89 183.90 Q 202.33 184.39 202.99 184.39 Q 203.64 184.39 204.08 183.90 Q 204.51 183.40 204.51 182.38 Q 204.51 181.42 204.07 180.92 Q 203.64 180.42 202.99 180.42 Q 202.33 180.42 201.89 180.92 Q 201.46 181.41 201.46 182.41 Z M 200.91 185.00 L 200.91 179.81 L 201.70 179.81 L 201.70 180.55 Q 202.27 179.70 203.35 179.70 Q 203.82 179.70 204.21 179.87 Q 204.61 180.03 204.80 180.31 Q 205.00 180.58 205.07 180.96 Q 205.12 181.20 205.12 181.81 L 205.12 185.00 L 204.24 185.00 L 204.24 181.85 Q 204.24 181.31 204.14 181.04 Q 204.04 180.78 203.78 180.62 Q 203.52 180.46 203.16 180.46 Q 202.60 180.46 202.20 180.82 Q 201.79 181.17 201.79 182.17 L 201.79 185.00 Z M 202.85 184.21 L 202.98 184.99 Q 202.61 185.07 202.32 185.07 Q 201.84 185.07 201.58 184.92 Q 201.31 184.77 201.20 184.52 Q 201.10 184.27 201.10 183.48 L 201.10 180.50 L 200.45 180.50 L 200.45 179.81 L 201.10 179.81 L 201.10 178.53 L 201.97 178.00 L 201.97 179.81 L 202.85 179.81 L 202.85 180.50 L 201.97 180.50 L 201.97 183.53 Q 201.97 183.91 202.02 184.01 Q 202.06 184.12 202.17 184.18 Q 202.27 184.25 202.47 184.25 Q 202.62 184.25 202.85 184.21 Z M 200.60 183.45 L 201.47 183.32 Q 201.54 183.84 201.87 184.12 Q 202.21 184.39 202.81 184.39 Q 203.42 184.39 203.71 184.15 Q 204.00 183.90 204.00 183.57 Q 204.00 183.27 203.74 183.10 Q 203.56 182.98 202.84 182.80 Q 201.88 182.56 201.50 182.38 Q 201.13 182.20 200.94 181.89 Q 200.74 181.57 200.74 181.19 Q 200.74 180.84 200.90 180.55 Q 201.06 180.25 201.34 180.06 Q 201.54 179.91 201.89 179.80 Q 202.25 179.70 202.65 179.70 Q 203.26 179.70 203.73 179.87 Q 204.19 180.05 204.41 180.35 Q 204.63 180.65 204.71 181.15 L 203.85 181.27 Q 203.79 180.87 203.51 180.64 Q 203.23 180.42 202.72 180.42 Q 202.11 180.42 201.85 180.62 Q 201.59 180.82 201.59 181.09 Q 201.59 181.26 201.70 181.40 Q 201.81 181.54 202.04 181.63 Q 202.17 181.68 202.81 181.86 Q 203.75 182.10 204.12 182.26 Q 204.48 182.42 204.69 182.72 Q 204.90 183.03 204.90 183.48 Q 204.90 183.92 204.65 184.30 Q 204.39 184.69 203.91 184.90 Q 203.43 185.12 202.81 185.12 Q 201.80 185.12 201.27 184.70 Q 200.74 184.28 200.60 183.45 Z M 200.99 178.85 L 200.99 177.84 L 201.87 177.84 L 201.87 178.85 Z M 200.99 185.00 L 200.99 179.81 L 201.87 179.81 L 201.87 185.00 Z M 201.00 185.00 L 201.00 179.81 L 201.79 179.81 L 201.79 180.55 Q 202.36 179.70 203.44 179.70 Q 203.91 179.70 204.30 179.87 Q 204.69 180.03 204.89 180.31 Q 205.09 180.58 205.16 180.96 Q 205.21 181.20 205.21 181.81 L 205.21 185.00 L 204.33 185.00 L 204.33 181.85 Q 204.33 181.31 204.23 181.04 Q 204.13 180.78 203.87 180.62 Q 203.61 180.46 203.25 180.46 Q 202.69 180.46 202.29 180.82 Q 201.88 181.17 201.88 182.17 L 201.88 185.00 Z M 200.67 183.45 L 201.54 183.32 Q 201.62 183.84 201.95 184.12 Q 202.29 184.39 202.89 184.39 Q 203.49 184.39 203.78 184.15 Q 204.08 183.90 204.08 183.57 Q 204.08 183.27 203.82 183.10 Q 203.64 182.98 202.92 182.80 Q 201.95 182.56 201.58 182.38 Q 201.21 182.20 201.01 181.89 Q 200.82 181.57 200.82 181.19 Q 200.82 180.84 200.98 180.55 Q 201.14 180.25 201.41 180.06 Q 201.62 179.91 201.97 179.80 Q 202.32 179.70 202.73 179.70 Q 203.34 179.70 203.80 179.87 Q 204.26 180.05 204.48 180.35 Q 204.70 180.65 204.79 181.15 L 203.93 181.27 Q 203.87 180.87 203.59 180.64 Q 203.31 180.42 202.79 180.42 Q 202.19 180.42 201.93 180.62 Q 201.67 180.82 201.67 181.09 Q 201.67 181.26 201.78 181.40 Q 201.88 181.54 202.11 181.63 Q 202.25 181.68 202.89 181.86 Q 203.82 182.10 204.19 182.26 Q 204.56 182.42 204.77 182.72 Q 204.98 183.03 204.98 183.48 Q 204.98 183.92 204.72 184.30 Q 204.47 184.69 203.98 184.90 Q 203.50 185.12 202.89 185.12 Q 201.88 185.12 201.35 184.70 Q 200.82 184.28 200.67 183.45 Z M 202.97 184.21 L 203.10 184.99 Q 202.72 185.07 202.43 185.07 Q 201.95 185.07 201.69 184.92 Q 201.43 184.77 201.32 184.52 Q 201.21 184.27 201.21 183.48 L 201.21 180.50 L 200.57 180.50 L 200.57 179.81 L 201.21 179.81 L 201.21 178.53 L 202.09 178.00 L 202.09 179.81 L 202.97 179.81 L 202.97 180.50 L 202.09 180.50 L 202.09 183.53 Q 202.09 183.91 202.13 184.01 Q 202.18 184.12 202.28 184.18 Q 202.39 184.25 202.58 184.25 Q 202.73 184.25 202.97 184.21 Z M 204.45 184.36 Q 203.96 184.78 203.51 184.95 Q 203.06 185.12 202.54 185.12 Q 201.68 185.12 201.22 184.70 Q 200.77 184.28 200.77 183.63 Q 200.77 183.25 200.94 182.94 Q 201.11 182.62 201.39 182.43 Q 201.67 182.24 202.03 182.14 Q 202.28 182.08 202.81 182.01 Q 203.87 181.88 204.37 181.71 Q 204.38 181.53 204.38 181.48 Q 204.38 180.94 204.13 180.72 Q 203.79 180.42 203.13 180.42 Q 202.51 180.42 202.21 180.64 Q 201.92 180.86 201.78 181.41 L 200.92 181.29 Q 201.03 180.74 201.30 180.40 Q 201.57 180.06 202.08 179.88 Q 202.59 179.70 203.26 179.70 Q 203.92 179.70 204.34 179.85 Q 204.75 180.01 204.95 180.25 Q 205.14 180.48 205.22 180.84 Q 205.26 181.07 205.26 181.66 L 205.26 182.83 Q 205.26 184.05 205.32 184.38 Q 205.38 184.70 205.54 185.00 L 204.62 185.00 Q 204.49 184.73 204.45 184.36 Z M 204.37 182.40 Q 203.90 182.59 202.94 182.73 Q 202.40 182.81 202.17 182.91 Q 201.95 183.00 201.83 183.19 Q 201.70 183.38 201.70 183.61 Q 201.70 183.96 201.97 184.19 Q 202.24 184.43 202.75 184.43 Q 203.26 184.43 203.65 184.21 Q 204.05 183.98 204.23 183.60 Q 204.37 183.30 204.37 182.72 Z M 201.07 185.00 L 201.07 177.84 L 201.95 177.84 L 201.95 185.00 Z M 201.08 185.00 L 201.08 177.84 L 201.96 177.84 L 201.96 185.00 Z M 204.66 183.33 L 205.57 183.44 Q 205.36 184.24 204.77 184.68 Q 204.19 185.12 203.29 185.12 Q 202.15 185.12 201.49 184.42 Q 200.82 183.72 200.82 182.45 Q 200.82 181.14 201.49 180.42 Q 202.17 179.70 203.24 179.70 Q 204.28 179.70 204.94 180.41 Q 205.60 181.11 205.60 182.40 Q 205.60 182.48 205.59 182.63 L 201.73 182.63 Q 201.78 183.49 202.21 183.94 Q 202.65 184.39 203.30 184.39 Q 203.78 184.39 204.12 184.14 Q 204.46 183.89 204.66 183.33 Z M 201.78 181.91 L 204.67 181.91 Q 204.61 181.25 204.34 180.93 Q 203.92 180.42 203.25 180.42 Q 202.65 180.42 202.23 180.83 Q 201.82 181.23 201.78 181.91 Z M 204.50 185.00 L 204.50 184.35 Q 204.01 185.12 203.05 185.12 Q 202.43 185.12 201.91 184.78 Q 201.39 184.43 201.11 183.82 Q 200.82 183.21 200.82 182.41 Q 200.82 181.64 201.08 181.00 Q 201.34 180.37 201.86 180.03 Q 202.37 179.70 203.01 179.70 Q 203.48 179.70 203.85 179.90 Q 204.22 180.09 204.45 180.41 L 204.45 177.84 L 205.32 177.84 L 205.32 185.00 Z M 201.73 182.41 Q 201.73 183.41 202.15 183.90 Q 202.57 184.39 203.14 184.39 Q 203.71 184.39 204.12 183.92 Q 204.52 183.45 204.52 182.49 Q 204.52 181.42 204.11 180.92 Q 203.70 180.42 203.10 180.42 Q 202.51 180.42 202.12 180.90 Q 201.73 181.38 201.73 182.41 Z M 200.85 182.41 Q 200.85 180.97 201.65 180.27 Q 202.32 179.70 203.28 179.70 Q 204.35 179.70 205.03 180.40 Q 205.71 181.10 205.71 182.33 Q 205.71 183.33 205.41 183.91 Q 205.11 184.48 204.54 184.80 Q 203.96 185.12 203.28 185.12 Q 202.20 185.12 201.52 184.42 Q 200.85 183.72 200.85 182.41 Z M 201.76 182.41 Q 201.76 183.40 202.19 183.90 Q 202.63 184.39 203.28 184.39 Q 203.94 184.39 204.37 183.90 Q 204.81 183.40 204.81 182.38 Q 204.81 181.42 204.37 180.92 Q 203.93 180.42 203.28 180.42 Q 202.63 180.42 202.19 180.92 Q 201.76 181.41 201.76 182.41 Z M 201.21 185.00 L 201.21 179.81 L 202.00 179.81 L 202.00 180.55 Q 202.57 179.70 203.65 179.70 Q 204.12 179.70 204.51 179.87 Q 204.90 180.03 205.10 180.31 Q 205.29 180.58 205.37 180.96 Q 205.42 181.20 205.42 181.81 L 205.42 185.00 L 204.54 185.00 L 204.54 181.85 Q 204.54 181.31 204.44 181.04 Q 204.34 180.78 204.08 180.62 Q 203.81 180.46 203.46 180.46 Q 202.90 180.46 202.49 180.82 Q 202.09 181.17 202.09 182.17 L 202.09 185.00 Z M 202.69 185.00 L 200.72 179.81 L 201.64 179.81 L 202.76 182.92 Q 202.94 183.42 203.09 183.96 Q 203.21 183.55 203.42 182.98 L 204.57 179.81 L 205.47 179.81 L 203.51 185.00 Z M 201.28 178.85 L 201.28 177.84 L 202.16 177.84 L 202.16 178.85 Z M 201.28 185.00 L 201.28 179.81 L 202.16 179.81 L 202.16 185.00 Z M 204.83 183.33 L 205.74 183.44 Q 205.53 184.24 204.95 184.68 Q 204.36 185.12 203.46 185.12 Q 202.32 185.12 201.66 184.42 Q 200.99 183.72 200.99 182.45 Q 200.99 181.14 201.66 180.42 Q 202.34 179.70 203.41 179.70 Q 204.45 179.70 205.11 180.41 Q 205.77 181.11 205.77 182.40 Q 205.77 182.48 205.77 182.63 L 201.90 182.63 Q 201.95 183.49 202.38 183.94 Q 202.82 184.39 203.47 184.39 Q 203.95 184.39 204.29 184.14 Q 204.63 183.89 204.83 183.33 Z M 201.95 181.91 L 204.84 181.91 Q 204.78 181.25 204.51 180.93 Q 204.09 180.42 203.42 180.42 Q 202.82 180.42 202.40 180.83 Q 201.99 181.23 201.95 181.91 Z M 202.27 185.00 L 200.68 179.81 L 201.59 179.81 L 202.41 182.81 L 202.72 183.92 Q 202.74 183.84 202.99 182.85 L 203.82 179.81 L 204.72 179.81 L 205.50 182.82 L 205.75 183.81 L 206.05 182.81 L 206.94 179.81 L 207.80 179.81 L 206.17 185.00 L 205.26 185.00 L 204.44 181.89 L 204.24 181.01 L 203.19 185.00 Z M 204.90 183.33 L 205.80 183.44 Q 205.59 184.24 205.01 184.68 Q 204.43 185.12 203.52 185.12 Q 202.39 185.12 201.72 184.42 Q 201.05 183.72 201.05 182.45 Q 201.05 181.14 201.73 180.42 Q 202.40 179.70 203.47 179.70 Q 204.51 179.70 205.17 180.41 Q 205.83 181.11 205.83 182.40 Q 205.83 182.48 205.83 182.63 L 201.96 182.63 Q 202.01 183.49 202.44 183.94 Q 202.88 184.39 203.53 184.39 Q 204.01 184.39 204.35 184.14 Q 204.70 183.89 204.90 183.33 Z M 202.01 181.91 L 204.91 181.91 Q 204.85 181.25 204.57 180.93 Q 204.15 180.42 203.48 180.42 Q 202.88 180.42 202.47 180.83 Q 202.05 181.23 202.01 181.91 Z M 201.36 185.00 L 201.36 179.81 L 202.15 179.81 L 202.15 180.60 Q 202.46 180.05 202.71 179.87 Q 202.97 179.70 203.28 179.70 Q 203.72 179.70 204.18 179.98 L 203.88 180.80 Q 203.56 180.61 203.23 180.61 Q 202.95 180.61 202.72 180.78 Q 202.49 180.95 202.39 181.26 Q 202.24 181.73 202.24 182.29 L 202.24 185.00 Z M 201.39 180.38 L 201.17 179.04 L 201.17 177.84 L 202.17 177.84 L 202.17 179.04 L 201.94 180.38 Z M 201.05 183.45 L 201.92 183.32 Q 201.99 183.84 202.32 184.12 Q 202.66 184.39 203.26 184.39 Q 203.86 184.39 204.16 184.15 Q 204.45 183.90 204.45 183.57 Q 204.45 183.27 204.19 183.10 Q 204.01 182.98 203.29 182.80 Q 202.33 182.56 201.95 182.38 Q 201.58 182.20 201.39 181.89 Q 201.19 181.57 201.19 181.19 Q 201.19 180.84 201.35 180.55 Q 201.51 180.25 201.78 180.06 Q 201.99 179.91 202.34 179.80 Q 202.70 179.70 203.10 179.70 Q 203.71 179.70 204.17 179.87 Q 204.64 180.05 204.86 180.35 Q 205.08 180.65 205.16 181.15 L 204.30 181.27 Q 204.24 180.87 203.96 180.64 Q 203.68 180.42 203.17 180.42 Q 202.56 180.42 202.30 180.62 Q 202.04 180.82 202.04 181.09 Q 202.04 181.26 202.15 181.40 Q 202.26 181.54 202.49 181.63 Q 202.62 181.68 203.26 181.86 Q 204.20 182.10 204.57 182.26 Q 204.93 182.42 205.14 182.72 Q 205.35 183.03 205.35 183.48 Q 205.35 183.92 205.10 184.30 Q 204.84 184.69 204.36 184.90 Q 203.87 185.12 203.26 185.12 Q 202.25 185.12 201.72 184.70 Q 201.19 184.28 201.05 183.45 Z M 201.09 183.45 L 201.95 183.32 Q 202.03 183.84 202.36 184.12 Q 202.70 184.39 203.30 184.39 Q 203.90 184.39 204.20 184.15 Q 204.49 183.90 204.49 183.57 Q 204.49 183.27 204.23 183.10 Q 204.05 182.98 203.33 182.80 Q 202.36 182.56 201.99 182.38 Q 201.62 182.20 201.42 181.89 Q 201.23 181.57 201.23 181.19 Q 201.23 180.84 201.39 180.55 Q 201.55 180.25 201.82 180.06 Q 202.03 179.91 202.38 179.80 Q 202.74 179.70 203.14 179.70 Q 203.75 179.70 204.21 179.87 Q 204.67 180.05 204.89 180.35 Q 205.11 180.65 205.20 181.15 L 204.34 181.27 Q 204.28 180.87 204.00 180.64 Q 203.72 180.42 203.20 180.42 Q 202.60 180.42 202.34 180.62 Q 202.08 180.82 202.08 181.09 Q 202.08 181.26 202.19 181.40 Q 202.30 181.54 202.53 181.63 Q 202.66 181.68 203.30 181.86 Q 204.23 182.10 204.60 182.26 Q 204.97 182.42 205.18 182.72 Q 205.39 183.03 205.39 183.48 Q 205.39 183.92 205.14 184.30 Q 204.88 184.69 204.40 184.90 Q 203.91 185.12 203.30 185.12 Q 202.29 185.12 201.76 184.70 Q 201.23 184.28 201.09 183.45 Z M 201.42 187.00 L 201.32 186.17 Q 201.61 186.25 201.83 186.25 Q 202.12 186.25 202.30 186.15 Q 202.47 186.05 202.58 185.88 Q 202.67 185.75 202.85 185.22 Q 202.88 185.15 202.93 185.01 L 200.96 179.81 L 201.91 179.81 L 202.99 182.82 Q 203.20 183.39 203.37 184.02 Q 203.52 183.41 203.73 182.84 L 204.84 179.81 L 205.71 179.81 L 203.74 185.09 Q 203.42 185.94 203.25 186.26 Q 203.01 186.70 202.71 186.90 Q 202.41 187.10 201.99 187.10 Q 201.73 187.10 201.42 187.00 Z M 201.13 183.45 L 202.00 183.32 Q 202.08 183.84 202.41 184.12 Q 202.75 184.39 203.35 184.39 Q 203.95 184.39 204.24 184.15 Q 204.54 183.90 204.54 183.57 Q 204.54 183.27 204.28 183.10 Q 204.10 182.98 203.38 182.80 Q 202.41 182.56 202.04 182.38 Q 201.67 182.20 201.47 181.89 Q 201.28 181.57 201.28 181.19 Q 201.28 180.84 201.44 180.55 Q 201.60 180.25 201.87 180.06 Q 202.08 179.91 202.43 179.80 Q 202.78 179.70 203.19 179.70 Q 203.80 179.70 204.26 179.87 Q 204.72 180.05 204.94 180.35 Q 205.16 180.65 205.25 181.15 L 204.39 181.27 Q 204.33 180.87 204.05 180.64 Q 203.77 180.42 203.25 180.42 Q 202.65 180.42 202.39 180.62 Q 202.13 180.82 202.13 181.09 Q 202.13 181.26 202.24 181.40 Q 202.34 181.54 202.57 181.63 Q 202.71 181.68 203.35 181.86 Q 204.28 182.10 204.65 182.26 Q 205.02 182.42 205.23 182.72 Q 205.44 183.03 205.44 183.48 Q 205.44 183.92 205.18 184.30 Q 204.93 184.69 204.44 184.90 Q 203.96 185.12 203.35 185.12 Q 202.34 185.12 201.81 184.70 Q 201.28 184.28 201.13 183.45 Z M 203.43 184.21 L 203.56 184.99 Q 203.18 185.07 202.89 185.07 Q 202.41 185.07 202.15 184.92 Q 201.89 184.77 201.78 184.52 Q 201.67 184.27 201.67 183.48 L 201.67 180.50 L 201.03 180.50 L 201.03 179.81 L 201.67 179.81 L 201.67 178.53 L 202.55 178.00 L 202.55 179.81 L 203.43 179.81 L 203.43 180.50 L 202.55 180.50 L 202.55 183.53 Q 202.55 183.91 202.59 184.01 Q 202.64 184.12 202.74 184.18 Q 202.85 184.25 203.04 184.25 Q 203.19 184.25 203.43 184.21 Z M 205.07 183.33 L 205.98 183.44 Q 205.77 184.24 205.19 184.68 Q 204.60 185.12 203.70 185.12 Q 202.56 185.12 201.90 184.42 Q 201.23 183.72 201.23 182.45 Q 201.23 181.14 201.90 180.42 Q 202.58 179.70 203.65 179.70 Q 204.69 179.70 205.35 180.41 Q 206.01 181.11 206.01 182.40 Q 206.01 182.48 206.01 182.63 L 202.14 182.63 Q 202.19 183.49 202.62 183.94 Q 203.06 184.39 203.71 184.39 Q 204.19 184.39 204.53 184.14 Q 204.87 183.89 205.07 183.33 Z M 202.19 181.91 L 205.08 181.91 Q 205.02 181.25 204.75 180.93 Q 204.33 180.42 203.66 180.42 Q 203.06 180.42 202.64 180.83 Q 202.23 181.23 202.19 181.91 Z M 201.55 185.00 L 201.55 179.81 L 202.34 179.81 L 202.34 180.54 Q 202.58 180.16 202.99 179.93 Q 203.39 179.70 203.91 179.70 Q 204.49 179.70 204.85 179.94 Q 205.22 180.18 205.37 180.61 Q 205.99 179.70 206.98 179.70 Q 207.75 179.70 208.16 180.12 Q 208.58 180.55 208.58 181.44 L 208.58 185.00 L 207.70 185.00 L 207.70 181.73 Q 207.70 181.21 207.62 180.97 Q 207.53 180.74 207.31 180.60 Q 207.08 180.46 206.78 180.46 Q 206.23 180.46 205.87 180.82 Q 205.51 181.19 205.51 181.99 L 205.51 185.00 L 204.63 185.00 L 204.63 181.63 Q 204.63 181.04 204.42 180.75 Q 204.20 180.46 203.71 180.46 Q 203.34 180.46 203.03 180.65 Q 202.71 180.85 202.57 181.23 Q 202.43 181.60 202.43 182.31 L 202.43 185.00 Z" transform="translate(-0.46604156494140625, 0)" fill="#666" /></svg>